<svg width="84" height="83" viewBox="0 0 84 83" fill="none" xmlns="http://www.w3.org/2000/svg">
<path d="M6.75276 74.7827C4.93405 74.9176 3.26238 75.7199 1.78378 77.1688C1.42409 77.5209 1.41777 78.0984 1.76922 78.4593C2.12067 78.8196 2.69692 78.8266 3.05596 78.4739C4.23568 77.3182 5.4889 76.7066 6.88709 76.6027C8.19789 76.5058 9.4562 77.0453 10.7531 77.7324V75.6908C9.50749 75.1006 8.1991 74.6751 6.75276 74.7827Z" fill="#DAA412"/>
<path d="M52.6214 77.806C50.4443 78.9756 49.0119 78.0258 47.1984 76.8239C45.9711 76.0102 44.58 75.0875 42.8593 74.8893C40.5436 74.6208 38.7382 75.7112 37.1463 76.6731C35.4441 77.7008 33.9744 78.5886 32.0392 77.9605C29.5664 77.1575 28.1037 74.905 25.33 74.7139C23.1308 74.5613 21.7496 75.7208 20.1943 76.8011V78.944C21.7743 77.8953 23.1794 76.3958 25.2051 76.5352C27.6703 76.7056 29.216 78.9631 31.4786 79.697C34.2029 80.581 36.2659 79.3354 38.0859 78.2367C39.5601 77.3464 40.9513 76.5067 42.6515 76.7024C45.6612 77.0501 47.561 80.1745 50.7158 80.1745C54.3855 80.1745 56.7448 75.4119 60.5456 76.8652C61.3644 77.1786 62.0553 77.7099 62.7467 78.2444V76.0343C62.2655 75.6898 61.7621 75.377 61.1947 75.1598C57.6187 73.7927 55.5043 76.2566 52.6212 77.8061L52.6214 77.806Z" fill="#DAA412"/>
<path d="M74.2132 74.9367C73.7484 75.0798 73.295 75.2901 72.8467 75.5358V77.5197C73.4457 77.1866 74.072 76.8896 74.7482 76.6813C77.1685 75.9347 79.6241 77.217 80.8824 78.7235C81.2054 79.1098 81.7791 79.1611 82.1648 78.8375C82.5504 78.5139 82.6011 77.9383 82.2781 77.552C80.5912 75.5326 77.4434 73.9407 74.2132 74.9367Z" fill="#DAA412"/>
<path d="M74.2132 65.9379C73.7484 66.081 73.295 66.2912 72.8467 66.5369V68.5208C73.4457 68.1877 74.072 67.8907 74.7482 67.6824C77.1685 66.9358 79.6241 68.2181 80.8824 69.7246C81.2054 70.1109 81.7791 70.1622 82.1648 69.8386C82.5504 69.515 82.6011 68.9394 82.2781 68.5532C80.5912 66.5344 77.4434 64.9425 74.2132 65.9379Z" fill="#DAA412"/>
<path d="M6.75276 65.784C4.93405 65.9189 3.26238 66.7212 1.78378 68.1701C1.42409 68.5222 1.41777 69.0997 1.76922 69.4607C2.12067 69.821 2.69692 69.8279 3.05596 69.4752C4.23568 68.3196 5.4889 67.7079 6.88709 67.604C8.19789 67.5071 9.4562 68.0466 10.7531 68.7337V66.6921C9.50749 66.1019 8.1991 65.6764 6.75276 65.784Z" fill="#DAA412"/>
<path d="M52.6214 68.8074C50.4443 69.977 49.0119 69.0271 47.1984 67.8252C45.9711 67.0115 44.58 66.0889 42.8593 65.8906C40.5436 65.6221 38.7382 66.7125 37.1463 67.6745C35.4441 68.7022 33.9744 69.5899 32.0392 68.9618C29.5664 68.1589 28.1037 65.9064 25.33 65.7153C23.1308 65.5626 21.7496 66.7221 20.1943 67.8024V69.9453C21.7743 68.8967 23.1794 67.3971 25.2051 67.5366C27.6703 67.7069 29.216 69.9645 31.4786 70.6983C34.2029 71.5823 36.2659 70.3368 38.0859 69.2381C39.5601 68.3478 40.9513 67.5081 42.6515 67.7038C45.6612 68.0514 47.561 71.1758 50.7158 71.1758C54.3855 71.1758 56.7448 66.4132 60.5456 67.8665C61.3644 68.18 62.0553 68.7113 62.7467 69.2457V67.0357C62.2655 66.6912 61.7621 66.3784 61.1947 66.1612C57.6187 64.794 55.5043 67.2579 52.6212 68.8074L52.6214 68.8074Z" fill="#DAA412"/>
<path d="M6.75276 58.5166C4.93405 58.6515 3.26238 59.4538 1.78378 60.9027C1.42409 61.2548 1.41777 61.8323 1.76922 62.1932C2.12067 62.5535 2.69692 62.5605 3.05596 62.2078C4.23568 61.0521 5.4889 60.4405 6.88709 60.3365C8.19789 60.2397 9.4562 60.7792 10.7531 61.4663V59.4246C9.50749 58.8345 8.1991 58.4089 6.75276 58.5166Z" fill="#DAA412"/>
<path d="M52.6215 61.54C50.4444 62.7096 49.012 61.7597 47.1984 60.5578C45.9712 59.7441 44.58 58.8215 42.8594 58.6232C42.6815 58.6023 42.5073 58.5928 42.3351 58.5871C66.3905 44.8085 45.8248 30.2958 41.7177 41.2755C36.755 30.2045 17.8698 44.4638 40.6944 58.7573C39.3595 59.0733 38.2052 59.7674 37.1463 60.407C35.4441 61.4347 33.9744 62.3224 32.0392 61.6943C29.5664 60.8914 28.1037 58.6389 25.33 58.4478C23.1308 58.2952 21.7496 59.4546 20.1943 60.5349V62.6779C21.7743 61.6292 23.1794 60.1297 25.2051 60.2691C27.6703 60.4394 29.216 62.697 31.4786 63.4308C34.2029 64.3148 36.2659 63.0693 38.0859 61.9706C39.5601 61.0803 40.9513 60.2406 42.6515 60.4363C45.6612 60.7839 47.561 63.9083 50.7158 63.9083C54.3855 63.9083 56.7448 59.1457 60.5456 60.599C61.3644 60.9125 62.0553 61.4438 62.7467 61.9782V59.7682C62.2655 59.4237 61.7621 59.1109 61.1947 58.8937C57.6187 57.5271 55.5043 59.9911 52.6212 61.5406L52.6215 61.54Z" fill="#DAA412"/>
<path d="M74.2132 58.6706C73.7484 58.8137 73.295 59.024 72.8467 59.2697V61.2535C73.4457 60.9205 74.072 60.6235 74.7482 60.4151C77.1685 59.6685 79.6241 60.9509 80.8824 62.4574C81.2054 62.8437 81.7791 62.895 82.1648 62.5714C82.5504 62.2478 82.6011 61.6722 82.2781 61.2859C80.5912 59.2665 77.4434 57.6753 74.2132 58.6706Z" fill="#DAA412"/>
<path d="M7.92159 32.55C8.07103 32.5373 8.22301 32.531 8.37626 32.531C9.36538 32.531 10.4292 32.7887 11.4398 33.2769C11.5038 32.4119 11.7013 31.5861 12.0217 30.8503C11.5911 27.9171 9.25891 25.6622 6.34094 25.3436C5.32015 27.845 5.93828 30.6953 7.92159 32.55Z" fill="#DAA412"/>
<path d="M13.9062 40.2679C13.9062 41.1355 14.6053 41.8415 15.4659 41.8415C16.3259 41.8415 17.0256 41.1355 17.0256 40.2679C17.0256 39.4004 16.3265 38.6943 15.4659 38.6943C14.6053 38.6943 13.9062 39.4004 13.9062 40.2679Z" fill="#DAA412"/>
<path d="M67.9712 38.6938C67.1112 38.6938 66.4121 39.3999 66.4121 40.2674C66.4121 41.135 67.1112 41.841 67.9712 41.841C68.8311 41.841 69.5308 41.135 69.5308 40.2674C69.5302 39.3999 68.8311 38.6938 67.9712 38.6938Z" fill="#DAA412"/>
<mask id="mask0_952_718" style="mask-type:luminance" maskUnits="userSpaceOnUse" x="6" y="0" width="72" height="51">
<path d="M6.17383 0.663086H77.1777V50.7403H6.17383V0.663086Z" fill="white"/>
</mask>
<g mask="url(#mask0_952_718)">
<path d="M76.9383 45.4587C77.5677 44.3657 76.514 42.5242 74.6365 41.4376C74.3959 41.2983 74.1445 41.1735 73.888 41.0659C73.1946 40.7752 73.1946 39.7595 73.888 39.4695C75.214 38.9141 77.9743 36.8751 76.9383 35.0766C75.9092 33.2897 72.755 34.6606 71.6203 35.5294C71.0225 35.9872 70.1435 35.4781 70.2398 34.7309C70.426 33.2846 70.0403 29.8859 67.9716 29.8859C67.8804 29.8859 67.793 29.8948 67.7081 29.9075L67.7088 26.6184C67.7088 12.3066 56.099 0.663086 41.828 0.663086C27.557 0.663086 15.9473 12.3064 15.9473 26.6184V29.955C15.7978 29.9113 15.6389 29.8853 15.4666 29.8853C13.4004 29.8853 13.0134 33.2896 13.1984 34.7309C13.2947 35.4788 12.4151 35.9854 11.8173 35.5288C10.6749 34.6543 7.53033 33.2865 6.49996 35.076C5.46462 36.8745 8.2261 38.9161 9.55021 39.4689C10.2442 39.7595 10.2442 40.7752 9.55021 41.0659C8.22357 41.62 5.46457 43.6609 6.49996 45.4587C7.54354 47.2718 10.63 45.9153 11.8173 45.0066C12.4195 44.5456 13.294 45.0592 13.1984 45.8045C13.0129 47.2508 13.3979 50.6501 15.4666 50.6501C17.5329 50.6501 17.9198 47.2458 17.7349 45.8051C17.6386 45.0573 18.5176 44.5494 19.1153 45.0066C20.2577 45.8818 23.4023 47.2483 24.4333 45.4594C25.0628 44.3664 24.0091 42.5249 22.1315 41.4383C21.8909 41.2989 21.6395 41.1742 21.383 41.0665C20.6897 40.7759 20.6897 39.7602 21.383 39.4701C22.709 38.9148 25.4693 36.8757 24.4333 35.0773C23.4043 33.2904 20.2501 34.6613 19.1153 35.5301C18.5175 35.9879 17.6386 35.4788 17.7348 34.7316C17.7994 34.2288 17.795 33.4904 17.6747 32.7407V27.6247C22.6297 27.3853 27.6065 25.6831 31.5433 22.6531C31.6706 21.2764 32.6046 19.858 34.0566 18.8335C32.9941 18.0844 32.2266 17.1357 31.8309 16.1631C28.5242 20.2792 23.182 23.8101 17.7951 24.2179C17.854 23.624 17.9332 23.0357 18.0339 22.455C27.4552 20.7838 34.4264 12.8653 35.0002 3.38447C35.5695 3.21602 36.1483 3.06911 36.734 2.94183C36.5814 5.93015 35.8544 9.07604 34.6506 11.6439C35.6409 11.5647 36.7447 11.7844 37.7908 12.2746C37.9814 10.0146 39.1193 8.22685 40.66 7.72723C40.9209 6.28914 41.0526 4.81883 41.0526 3.34768V2.4105C41.3109 2.40226 41.5699 2.39656 41.8302 2.39656C42.1487 2.39656 42.4647 2.40416 42.7801 2.4162L42.7782 3.60541C42.7782 5.12329 42.9257 6.64367 43.2157 8.13118C44.3594 8.91894 45.1268 10.4609 45.2807 12.2726C46.4629 11.7179 47.7212 11.5089 48.8033 11.6875C47.5742 9.0506 46.8687 5.86223 46.7408 2.90066C47.331 3.02351 47.9135 3.16598 48.4867 3.33125C48.4816 3.33062 48.4759 3.32999 48.4709 3.32999C48.949 12.9995 56 20.9561 65.6318 22.5059C65.7312 23.086 65.8103 23.673 65.868 24.2662C60.2094 23.7451 54.7717 20.3098 51.3485 15.8708C50.9958 16.9447 50.1833 18.0092 49.0144 18.833C50.1777 19.6562 51.0275 20.7517 51.3739 21.8839C55.409 25.2845 60.7554 27.291 65.9834 27.6089V31.8079C65.663 32.83 65.6142 34.0192 65.706 34.7302C65.8023 35.4781 64.9227 35.9847 64.3249 35.5281C63.1826 34.6536 60.038 33.2858 59.0076 35.0754C57.9722 36.8738 60.7337 38.9154 62.0578 39.4682C62.7519 39.7589 62.7519 40.7746 62.0578 41.0652C60.7312 41.6193 57.9722 43.6603 59.0076 45.4581C60.0512 47.2711 63.1377 45.9146 64.3249 45.0059C64.9271 44.5449 65.8017 45.0585 65.706 45.8038C65.5205 47.2502 65.9055 50.6494 67.9743 50.6494C70.0405 50.6494 70.4275 47.2451 70.2425 45.8045C70.1462 45.0566 71.0252 44.5488 71.623 45.006C72.7634 45.8817 75.9082 47.2489 76.9384 45.4594L76.9383 45.4587ZM18.7524 40.2675C18.7524 42.0893 17.2782 43.5711 15.4659 43.5711C13.6536 43.5711 12.1795 42.0893 12.1795 40.2675C12.1795 38.4457 13.6537 36.9639 15.4659 36.9639C17.2783 36.9639 18.7524 38.4463 18.7524 40.2675ZM67.972 43.5711C66.1596 43.5711 64.6856 42.0893 64.6856 40.2675C64.6856 38.4457 66.1598 36.9639 67.972 36.9639C69.7844 36.9639 71.2585 38.4456 71.2585 40.2675C71.2585 42.0893 69.7843 43.5711 67.972 43.5711Z" fill="#DAA412"/>
</g>
<path d="M43.0533 18.8113C43.0533 19.6149 42.4074 20.2665 41.6108 20.2665C40.8142 20.2665 40.1689 19.6149 40.1689 18.8113C40.1689 18.0071 40.8142 17.3555 41.6108 17.3555C42.4074 17.3555 43.0533 18.0071 43.0533 18.8113Z" fill="#DAA412"/>
<path d="M36.1386 19.5504C34.9114 20.0627 32.3595 21.951 33.3169 23.6138C34.282 25.2907 37.1372 24.0362 38.2353 23.1952C38.7919 22.7691 39.6012 23.244 39.5125 23.933C39.3409 25.271 39.6975 28.415 41.6104 28.415C43.5215 28.415 43.8799 25.2658 43.7083 23.933C43.6196 23.2415 44.4327 22.7716 44.9855 23.1946C46.0424 24.0039 48.9515 25.2685 49.9046 23.6132C50.4865 22.6019 49.5119 20.8985 47.7756 19.8936C47.5533 19.765 47.3203 19.6491 47.0828 19.5497C46.4413 19.2812 46.4413 18.3415 47.0828 18.073C48.3094 17.5594 50.8626 15.673 49.9045 14.0096C48.9527 12.3569 46.0348 13.6245 44.9854 14.4281C44.4326 14.8518 43.6195 14.3806 43.7082 13.6898C43.8804 12.3517 43.5233 9.20776 41.6103 9.20776C39.6992 9.20776 39.3415 12.3569 39.5125 13.6898C39.6011 14.3813 38.788 14.8505 38.2352 14.4275C37.1784 13.6182 34.2699 12.3536 33.3168 14.0089C32.3587 15.6725 34.9139 17.5607 36.1385 18.0724C36.7806 18.3421 36.7807 19.2819 36.1386 19.5504ZM41.6111 15.756C43.2873 15.756 44.6513 17.127 44.6513 18.8121C44.6513 20.4972 43.2873 21.8682 41.6111 21.8682C39.9349 21.8682 38.5709 20.4972 38.5709 18.8121C38.5715 17.127 39.9349 15.756 41.6111 15.756Z" fill="#DAA412"/>
<path d="M71.2881 30.8494C71.6085 31.5846 71.8061 32.4103 71.8701 33.276C73.0378 32.7118 74.2758 32.4553 75.3883 32.5484C77.3716 30.6937 77.9897 27.8429 76.9689 25.3422C74.0509 25.6613 71.7187 27.9162 71.2881 30.8494Z" fill="#DAA412"/>
<mask id="mask1_952_718" style="mask-type:luminance" maskUnits="userSpaceOnUse" x="65" y="50" width="7" height="33">
<path d="M65.0195 50.416H71.0176V82.3354H65.0195V50.416Z" fill="white"/>
</mask>
<g mask="url(#mask1_952_718)">
<path d="M68.0165 52.3807C66.8684 52.3807 65.8464 51.736 65.1162 50.6829V82.3364H70.9883V50.5759C70.2538 51.6923 69.2025 52.3807 68.0165 52.3807Z" fill="#DAA412"/>
</g>
<mask id="mask2_952_718" style="mask-type:luminance" maskUnits="userSpaceOnUse" x="12" y="50" width="7" height="33">
<path d="M12.334 50.416H18.4941V82.3354H12.334V50.416Z" fill="white"/>
</mask>
<g mask="url(#mask2_952_718)">
<path d="M15.4656 52.3808C14.2795 52.3808 13.2277 51.6924 12.4938 50.5767L12.4932 82.3355H18.3659V50.682C17.6358 51.7357 16.6132 52.3805 15.4656 52.3805L15.4656 52.3808Z" fill="#DAA412"/>
</g>
<path d="M74.1042 14.679C89.48 6.27784 76.8348 -2.79964 74.3372 3.90828C71.3319 -2.82428 59.8189 5.98847 74.1042 14.679Z" fill="#DAA412"/>
<path d="M8.88616 14.679C24.2619 6.27784 11.6167 -2.79964 9.11856 3.90828C6.11387 -2.82428 -5.39849 5.98847 8.88616 14.679Z" fill="#DAA412"/>
</svg>
