<svg width="25" height="18" viewBox="0 0 25 18" fill="none" xmlns="http://www.w3.org/2000/svg">
<path d="M14.737 17.0101C14.7915 16.9875 23.657 11.0293 23.657 11.0293C24.4361 10.567 24.9343 9.77621 24.9961 8.90405C24.9839 8.10484 24.5685 7.36027 23.88 6.90318C23.8457 6.87176 14.7332 0.830653 14.7281 0.827413C14.3372 0.573669 13.8802 0.4275 13.4076 0.404929C12.9351 0.382358 12.4651 0.48445 12.0495 0.700013C11.6386 0.931823 11.2992 1.26299 11.0655 1.65971C10.8317 2.05667 10.7121 2.50509 10.7188 2.96007L10.7104 5.50323H2.67452C1.96434 5.50323 1.28291 5.77195 0.780509 6.25012C0.278312 6.7285 -0.00390625 7.3771 -0.00390625 8.05352V9.75378C-0.00390625 10.4302 0.278318 11.0788 0.780509 11.5572C1.28293 12.0356 1.96434 12.3043 2.67452 12.3043H11.603C11.922 12.3043 12.2168 12.1421 12.3763 11.8791C12.5358 11.616 12.5358 11.2921 12.3763 11.029C12.2168 10.766 11.922 10.604 11.603 10.604H2.67452C2.43771 10.604 2.21064 10.5144 2.04316 10.3549C1.87591 10.1955 1.78176 9.97926 1.78176 9.75376V8.0535C1.78176 7.82802 1.87591 7.61182 2.04316 7.45235C2.21063 7.29289 2.4377 7.20345 2.67452 7.20345H11.603C11.8398 7.20345 12.0668 7.1138 12.2343 6.95435C12.4018 6.79489 12.4959 6.57869 12.4959 6.35319L12.5044 6.36901V6.36648L12.4959 2.86131C12.4809 2.58562 12.6335 2.32618 12.8883 2.19433C13.1937 2.05406 13.5544 2.07917 13.835 2.26014C13.835 2.26014 22.7385 8.25006 22.7635 8.26626C23.088 8.47887 23.2099 8.66744 23.2099 8.90391C23.2019 9.20364 23.0335 9.47849 22.7635 9.63287L13.8436 15.5801C13.5596 15.7611 13.1965 15.7862 12.8881 15.6459C12.636 15.5126 12.4867 15.2532 12.5042 14.979V14.8838C12.5042 14.5801 12.3341 14.2994 12.0578 14.1477C11.7816 13.9958 11.4411 13.9958 11.1649 14.1477C10.8886 14.2994 10.7185 14.5801 10.7185 14.8838V14.979C10.7147 15.4213 10.8372 15.856 11.0732 16.2369C11.3091 16.6177 11.6496 16.9303 12.0578 17.141C12.9167 17.5308 13.9239 17.4812 14.7362 17.0096L14.737 17.0101Z" fill="#DAA412"/>
</svg>
