<svg width="178" height="138" viewBox="0 0 178 138" fill="none" xmlns="http://www.w3.org/2000/svg">
<path d="M170.944 31.1749H167.667V11.2586C167.667 4.60449 162.085 -0.351448 156.15 0.787018L88.9996 13.4089L21.876 0.61742C15.8892 -0.542744 10.3333 4.45393 10.3333 11.0824V31.1749H7.05556C3.43525 31.1749 0.5 34.3468 0.5 38.2599V119.737C0.5 123.65 3.43525 126.822 7.05556 126.822H60.6247C66.1977 126.822 68.77 129.756 72.0486 133.299C74.5073 135.956 77.8424 137.449 81.3193 137.449C86.8776 137.449 91.1215 137.449 96.6798 137.449C100.157 137.449 103.492 135.956 105.951 133.299C109.228 129.757 111.797 126.822 117.374 126.822H170.944C174.565 126.822 177.5 123.65 177.5 119.737V38.2599C177.5 34.3468 174.565 31.1749 170.944 31.1749ZM157.273 7.76837C159.219 7.39287 161.111 9.00249 161.111 11.259V99.4266C161.111 101.15 159.972 102.616 158.403 102.917L92.2778 115.517V19.9837L157.273 7.76837ZM16.8889 11.0824C16.8889 8.88957 18.7105 7.2153 20.7366 7.59169L85.7222 19.9767V115.517L19.5967 102.917C18.0283 102.616 16.8889 101.15 16.8889 99.4266V11.0824ZM102.162 75.3351C101.846 73.408 103.036 71.5712 104.819 71.232L147.43 63.1126C149.207 62.7495 150.913 64.0571 151.227 65.9838C151.543 67.9109 150.353 69.7477 148.57 70.0869L105.959 78.2063C105.767 78.2443 105.574 78.2616 105.386 78.2616C103.824 78.2616 102.441 77.0541 102.162 75.3351ZM102.162 57.6227C101.846 55.6955 103.036 53.8588 104.819 53.5196L147.43 45.4002C149.207 45.0437 150.913 46.3447 151.227 48.2714C151.543 50.1985 150.353 52.0353 148.57 52.3745L105.959 60.4938C105.767 60.5319 105.574 60.5492 105.386 60.5492C103.824 60.5492 102.441 59.3416 102.162 57.6227ZM102.162 39.9102C101.846 37.9831 103.036 36.1463 104.819 35.8071L147.43 27.6878C149.207 27.3247 150.913 28.6323 151.227 30.5589C151.543 32.4861 150.353 34.3228 148.57 34.662L105.959 42.7814C105.767 42.8195 105.574 42.8368 105.386 42.8368C103.824 42.8368 102.441 41.6292 102.162 39.9102ZM102.162 93.0475C101.846 91.1204 103.036 89.2836 104.819 88.9444L147.43 80.8251C149.207 80.4686 150.913 81.7696 151.227 83.6962C151.543 85.6233 150.353 87.4601 148.57 87.7993L105.959 95.9187C105.767 95.9568 105.574 95.974 105.386 95.974C103.824 95.974 102.441 94.7665 102.162 93.0475ZM32.5563 53.4226C27.701 47.1931 26.8656 38.5096 31.0755 33.3885C36.1618 27.2016 45.6325 28.5273 51.3056 35.8071C56.979 30.6896 66.4493 32.9736 71.5356 41.0992C75.7455 47.8246 74.9097 56.1897 70.0549 60.5687L56.7389 72.5799C53.7405 75.2846 48.8706 74.3565 45.8722 70.5089L32.5563 53.4226Z" fill="#DAA412"/>
</svg>
