<svg width="75" height="73" viewBox="0 0 75 73" fill="none" xmlns="http://www.w3.org/2000/svg">
<path d="M74.6384 25.0555C74.6354 22.4133 73.5847 19.8799 71.7164 18.0117C69.8481 16.1435 67.3148 15.0927 64.6732 15.0897C64.0732 15.0897 63.4744 15.1452 62.8848 15.2552C62.6316 12.8529 61.5132 10.624 59.7386 8.98471C57.964 7.34544 55.6542 6.40716 53.2386 6.3456C50.8236 6.28337 48.4683 7.10146 46.6116 8.64767C44.6769 6.16432 41.6806 4.74267 38.5332 4.81398C37.0928 2.42792 34.7189 0.754303 31.9879 0.199628C29.2563 -0.355635 26.417 0.259445 24.1604 1.89505C21.9036 3.53062 20.4354 6.03686 20.1122 8.80544C17.9394 8.57825 15.7521 9.07191 13.8882 10.2102C12.0236 11.348 10.5851 13.0676 9.79406 15.1038C6.75912 15.2663 3.96348 16.8052 2.2034 19.2836C0.443316 21.7616 -0.0889309 24.9076 0.757513 27.8271C1.60462 30.746 3.73754 33.1194 6.55005 34.2716C7.47329 37.1066 9.62071 39.3772 12.3993 40.4569C12.2489 41.1445 12.1728 41.8466 12.1722 42.5504C12.1722 45.3504 13.3498 48.0216 15.4179 49.9097C17.4855 51.7979 20.2528 52.7284 23.0412 52.4746C25.8296 52.2202 28.383 50.8039 30.0749 48.5731C32.7206 50.8511 36.3666 51.5767 39.683 50.4854C42.9995 49.3942 45.5015 46.6457 46.2774 43.2415C48.1758 43.882 50.2229 43.9352 52.1516 43.3944C54.0397 45.2094 56.5666 46.2077 59.1853 46.1726C61.804 46.1375 64.3036 45.0717 66.1422 43.2065C67.9803 41.3412 69.0098 38.8272 69.0073 36.2079C69.0067 35.5107 68.9324 34.8152 68.785 34.1337C70.5336 33.3476 72.017 32.0721 73.0555 30.4607C74.0947 28.8499 74.6445 26.972 74.6384 25.0555ZM66.9511 32.2323C66.6387 32.3308 66.3795 32.5513 66.2321 32.8438C66.0841 33.1356 66.0605 33.4752 66.1662 33.7851C66.9227 35.9965 66.6073 38.434 65.3137 40.3807C64.0195 42.3269 61.8945 43.5612 59.5628 43.7208C57.2305 43.8803 54.9576 42.9462 53.4112 41.1934C53.0783 40.8176 52.5484 40.6853 52.0777 40.8593C50.044 41.6109 47.7854 41.4508 45.8779 40.42C45.5106 40.22 45.0671 40.2224 44.7015 40.4261C44.3366 40.6303 44.1016 41.0067 44.0792 41.4242C43.9729 43.4477 43.0545 45.3419 41.5324 46.6791C40.0104 48.0162 38.0129 48.6826 35.9931 48.5273C33.9732 48.3721 32.1014 47.4083 30.8018 45.8543C30.5402 45.5462 30.1432 45.3861 29.7408 45.426C29.3378 45.4689 28.9825 45.7093 28.7934 46.0676C27.6037 48.3352 25.3422 49.8421 22.7911 50.0668C20.2402 50.2916 17.7502 49.2034 16.1822 47.1787C14.6142 45.1539 14.1841 42.4706 15.0403 40.0575C15.1526 39.7342 15.1242 39.3783 14.9617 39.0774C14.7992 38.7765 14.517 38.5572 14.1853 38.4744C12.8699 38.1464 11.6676 37.4678 10.7069 36.5114C9.74562 35.5556 9.0616 34.3561 8.7275 33.0426C8.62478 32.642 8.32691 32.3212 7.93537 32.1895C5.64661 31.4233 3.86363 29.6059 3.14221 27.3026C2.42138 24.9987 2.84918 22.4888 4.29263 20.5548C5.73609 18.62 8.02006 17.4957 10.4338 17.5313H10.4459L10.6217 17.5415C11.1866 17.576 11.6966 17.205 11.838 16.657C12.3649 14.758 13.6199 13.1441 15.3309 12.1659C17.0415 11.1877 19.0692 10.9248 20.9725 11.4342C21.3447 11.5309 21.7411 11.4457 22.0407 11.2052C22.3404 10.9641 22.509 10.5955 22.4945 10.2113C22.4945 10.1968 22.4812 9.97924 22.48 9.96535H22.4806C22.4788 7.68447 23.512 5.52563 25.2896 4.0961C27.0665 2.66654 29.3964 2.12086 31.6241 2.61155C33.8517 3.10223 35.7363 4.57704 36.7484 6.62111C36.9774 7.07306 37.4602 7.3383 37.9647 7.28936C39.4365 7.13107 40.9217 7.41141 42.2346 8.09477C43.5475 8.77814 44.629 9.83428 45.3444 11.1297C45.5359 11.4759 45.8839 11.7073 46.2773 11.7496C46.6718 11.7949 47.0627 11.6433 47.3225 11.3436C48.6754 9.79862 50.6009 8.87416 52.6529 8.78414C54.7042 8.69472 56.703 9.44757 58.1857 10.8681C59.6685 12.2886 60.5059 14.2536 60.504 16.3072C60.504 16.4111 60.4956 16.5132 60.4883 16.6154L60.4787 16.7652C60.4539 17.1742 60.6364 17.5688 60.965 17.8141C61.2937 18.06 61.7239 18.1235 62.1094 17.9833C64.0109 17.2927 66.1105 17.3972 67.934 18.2727C69.7581 19.1482 71.1527 20.721 71.8034 22.6363C72.4547 24.5523 72.3067 26.6488 71.3937 28.4542C70.4808 30.2596 68.8796 31.6216 66.9509 32.2324L66.9511 32.2323ZM13.8579 52.639C12.122 52.639 10.4575 53.329 9.22964 54.5562C8.00249 55.7833 7.31303 57.4479 7.31303 59.1838C7.31303 60.9198 8.00242 62.5843 9.22964 63.8121C10.4574 65.0393 12.122 65.7287 13.8579 65.7287C15.5939 65.7287 17.2584 65.0393 18.4856 63.8121C19.7127 62.5844 20.4028 60.9198 20.4028 59.1838C20.4004 57.4485 19.7104 55.7851 18.4839 54.5587C17.2567 53.3315 15.5932 52.6414 13.8581 52.6391L13.8579 52.639ZM13.8579 63.2936C12.7679 63.2936 11.7226 62.8604 10.9517 62.09C10.1813 61.3191 9.74809 60.2738 9.74809 59.1838C9.74809 58.0938 10.1813 57.0485 10.9517 56.2782C11.7226 55.5072 12.7679 55.0746 13.8579 55.0746C14.9479 55.0746 15.9932 55.5072 16.7635 56.2782C17.5345 57.0485 17.9671 58.0938 17.9671 59.1838C17.9659 60.2738 17.5327 61.3179 16.7623 62.0882C15.9919 62.8592 14.9473 63.2924 13.8579 63.2936ZM6.14644 65.5317C5.16582 65.5317 4.22504 65.9208 3.53146 66.6144C2.83843 67.3081 2.44871 68.2487 2.44871 69.2294C2.44871 70.21 2.83843 71.1508 3.53146 71.8444C4.2251 72.538 5.16579 72.9277 6.14644 72.9277C7.12707 72.9277 8.06785 72.538 8.76143 71.8444C9.45501 71.1507 9.84478 70.2101 9.84478 69.2294C9.84357 68.2488 9.45386 67.3092 8.76022 66.6157C8.06719 65.9226 7.12695 65.5323 6.14644 65.5317ZM6.14644 70.4922C5.63588 70.4922 5.17548 70.1847 4.97971 69.7128C4.78455 69.2409 4.8927 68.6977 5.25341 68.3364C5.61472 67.9751 6.15792 67.8675 6.6298 68.0627C7.10169 68.2584 7.40923 68.7189 7.40923 69.2294C7.40863 69.9267 6.84372 70.4916 6.14644 70.4922Z" fill="#DAA412"/>
</svg>
