<svg width="166" height="166" viewBox="0 0 166 166" fill="none" xmlns="http://www.w3.org/2000/svg">
<path d="M164.908 26.6284C164.34 24.354 162.065 23.2167 159.791 23.2167H142.733V6.15856C142.733 3.88414 141.596 1.60971 139.321 1.04111C137.047 -0.0961041 134.772 0.472502 133.066 2.17832L110.322 24.9226C109.185 26.0598 108.616 27.197 108.616 28.9028V49.3726L76.2058 81.7832C73.9314 84.0576 73.9314 87.4692 76.2058 89.7437C77.343 90.8809 79.0488 91.4495 80.1861 91.4495C81.3233 91.4495 83.0291 90.8809 84.1663 89.7437L116.577 57.3331H137.047C138.752 57.3331 139.89 56.7645 141.027 55.6273L163.771 32.883C165.477 31.1772 166.046 28.9028 164.908 26.6284Z" fill="#DAA412"/>
<path d="M91.97 97.9195C89.12 101.339 84.56 103.049 80 103.049C75.44 103.049 70.88 101.339 68.03 97.9195C61.19 91.0795 61.19 80.2495 68.03 73.9795L83.99 58.0195C82.85 57.4495 81.14 57.4495 80 57.4495C64.04 57.4495 51.5 69.9895 51.5 85.9495C51.5 101.909 64.04 114.449 80 114.449C95.96 114.449 108.5 101.909 108.5 85.9495C108.5 84.8095 108.5 83.0995 107.93 81.9595L91.97 97.9195Z" fill="#DAA412"/>
<path d="M148.711 63.1638C145.871 66.5923 141.329 68.3066 136.786 68.3066H120.886L116.911 72.3066C118.614 76.3066 119.182 80.878 119.182 85.4495C119.182 107.735 101.579 125.449 79.4321 125.449C57.2857 125.449 39.6821 107.735 39.6821 85.4495C39.6821 63.1637 57.2857 45.4495 79.4321 45.4495C83.975 45.4495 88.5179 46.5923 92.4929 47.7352L97.0357 44.3066V28.3066C97.0357 23.7352 98.7393 19.1637 102.146 16.3066L107.825 10.5923C98.7393 7.16375 89.6536 5.44946 80 5.44946C36.275 5.44946 0.5 41.4495 0.5 85.4495C0.5 129.449 36.275 165.449 80 165.449C123.725 165.449 159.5 129.449 159.5 85.4495C159.5 75.7352 157.796 66.5923 154.389 57.4495L148.711 63.1638Z" fill="#DAA412"/>
</svg>
