<svg width="70" height="70" viewBox="0 0 70 70" fill="none" xmlns="http://www.w3.org/2000/svg">
<path d="M69.8536 35.4228C69.8536 52.825 56.9579 67.2117 40.2052 69.5463C38.6388 69.7636 37.0362 69.8771 35.4095 69.8771C33.5317 69.8771 31.6877 69.7274 29.892 69.4377C13.4894 66.7965 0.962891 52.5715 0.962891 35.4228C0.962891 16.3934 16.3857 0.966064 35.4071 0.966064C54.4285 0.966064 69.8536 16.3934 69.8536 35.4228Z" fill="#1877F2"/>
<path d="M40.2045 28.6313V36.1373H49.4871L48.0173 46.2484H40.2045V69.5438C38.6381 69.7611 37.0355 69.8746 35.4087 69.8746C33.531 69.8746 31.687 69.7249 29.8913 69.4352V46.2484H21.3303V36.1373H29.8913V26.9534C29.8913 21.2556 34.5085 16.6347 40.2069 16.6347V16.6395C40.2238 16.6395 40.2383 16.6347 40.2552 16.6347H49.4895V25.3792H43.4556C41.6623 25.3792 40.2069 26.8351 40.2069 28.6289L40.2045 28.6313Z" fill="white"/>
</svg>
