<svg width="22" height="22" viewBox="0 0 22 22" fill="none" xmlns="http://www.w3.org/2000/svg">
<path d="M11.4941 21.5998H11.4479C5.66867 21.5998 0.966797 16.8966 0.966797 11.1156V11.0694C0.966797 5.2885 5.66867 0.585236 11.4479 0.585236H11.4941C17.2733 0.585236 21.9752 5.2885 21.9752 11.0694V11.1156C21.9752 16.8966 17.2733 21.5998 11.4941 21.5998ZM11.4479 1.29656C6.0605 1.29656 1.67791 5.68044 1.67791 11.0694V11.1156C1.67791 16.5046 6.0605 20.8885 11.4479 20.8885H11.4941C16.8815 20.8885 21.2641 16.5046 21.2641 11.1156V11.0694C21.2641 5.68044 16.8815 1.29656 11.4941 1.29656H11.4479Z" fill="#1877F2"/>
<path d="M12.8841 8.73612V10.9476H15.6191L15.186 13.9266H12.8841V20.7902C12.4226 20.8542 11.9505 20.8876 11.4712 20.8876C10.9179 20.8876 10.3746 20.8435 9.84556 20.7582V13.9266H7.32324L7.32324 10.9476H9.84556V8.24176C9.84556 6.56304 11.2059 5.20157 12.8849 5.20157V5.20298C12.8898 5.20298 12.8941 5.20157 12.8991 5.20157H15.6198V7.77798H13.842C13.3137 7.77798 12.8849 8.2069 12.8849 8.73541L12.8841 8.73612Z" fill="#1877F2"/>
</svg>
