<svg width="61" height="60" viewBox="0 0 61 60" fill="none" xmlns="http://www.w3.org/2000/svg">
<g clip-path="url(#clip0_620_354)">
<path d="M43.1832 2.77645C42.0654 3.17425 41.3148 3.83304 40.779 4.85904C40.4112 5.57904 40.335 5.93065 40.335 6.75805C40.335 8.42725 40.6566 8.91685 43.566 11.8724C46.3374 14.6594 46.8126 14.981 47.7156 14.6132C47.9604 14.5058 49.308 13.2812 50.7018 11.8724C53.6418 8.90185 53.9478 8.42725 53.9328 6.71245C53.9172 5.05885 53.1822 3.84925 51.6972 3.03745C51.0084 2.65465 50.7174 2.59345 49.737 2.57785C48.7878 2.57785 48.4662 2.65464 47.8842 2.97565L47.1798 3.37404L46.4448 2.99125C45.4344 2.48545 44.2242 2.40865 43.1832 2.77645Z" fill="#DAA412"/>
<path d="M17.9639 6.35921C17.0297 6.61961 15.8357 7.89041 15.5903 8.90081C15.1919 10.6006 15.5747 11.305 18.3923 14.107C20.4593 16.159 20.6435 16.312 21.1793 16.312C21.7151 16.312 21.8993 16.159 23.9663 14.107C25.1759 12.9124 26.3093 11.6722 26.4623 11.3506C27.3809 9.58961 26.6459 7.43081 24.8087 6.54221C24.0125 6.14441 22.5887 6.17501 21.7919 6.58841C21.1793 6.91001 21.1793 6.91001 20.5973 6.60341C19.8779 6.23681 18.7757 6.12941 17.9639 6.35921Z" fill="#DAA412"/>
<path d="M30.3972 15.0108C30.1368 16.236 23.9964 43.4922 23.9352 43.6452C23.9046 43.752 23.445 43.5684 22.6644 43.0938C21.2862 42.267 19.5252 41.6388 17.8716 41.379C16.4628 41.1648 13.5384 41.2872 12.2976 41.6088C10.9656 41.9766 9.03598 42.9408 8.22418 43.6608C6.34138 45.33 5.52958 48.0096 6.15778 50.3676C6.50998 51.6846 7.16818 52.7412 8.47018 54.0276C9.46558 55.038 9.97078 55.3902 11.1498 55.9722C13.3086 57.0438 14.5188 57.3348 17.0448 57.4266C18.8826 57.4878 19.3878 57.4572 20.5512 57.1818C24.8538 56.1558 27.5334 52.986 27.1662 49.3878C27.0438 48.27 26.508 46.815 25.9104 46.0344C25.635 45.6822 25.5276 45.3762 25.5738 45.1002C25.7424 44.0286 31.4232 18.9462 31.53 18.8394C31.683 18.6402 32.5254 20.2326 33.9648 23.4024C36.4458 28.884 37.9464 30.9054 40.4424 32.13C42.6168 33.1866 44.8218 33.2478 47.976 32.3292C48.573 32.1606 49.0788 31.992 49.1094 31.977C49.14 31.9308 48.6804 30.369 48.5886 30.2622C48.5736 30.2316 47.8842 30.4002 47.0418 30.6144C45.771 30.936 45.2808 30.9972 44.0406 30.936C42.693 30.8748 42.4176 30.8136 41.4066 30.3084C40.5492 29.895 40.0134 29.4816 39.2172 28.6242C37.977 27.2922 37.2876 26.1282 35.6646 22.5912C33.6432 18.2118 32.8014 16.8186 31.1628 15.2412L30.489 14.5824L30.3972 15.0108Z" fill="#000D1F"/>
<path d="M1.34961 19.4975V20.7227H14.5796H27.8096L28.0544 19.6355C28.1924 19.0385 28.2992 18.4871 28.2992 18.4103C28.2992 18.3335 22.4498 18.2723 14.8244 18.2723H1.34961V19.4975Z" fill="#000D1F"/>
<path d="M35.6188 19.4975L36.1852 20.7071L48.175 20.7227H60.1492V19.4975V18.2723H47.593H35.0518L35.6188 19.4975Z" fill="#000D1F"/>
<path d="M1.34961 30.5987V31.7471H13.3544H25.3442L25.5278 30.8129C25.6352 30.2921 25.7576 29.7869 25.8032 29.6645C25.8644 29.4809 24.0578 29.4503 13.6142 29.4503H1.34961V30.5987Z" fill="#000D1F"/>
<path d="M30.1068 30.5987L29.877 31.7471H33.69H37.518L36.7218 30.7979C36.2778 30.2621 35.8794 29.7569 35.8488 29.6495C35.7876 29.4965 35.1138 29.4503 33.0618 29.4503H30.3516L30.1068 30.5987Z" fill="#000D1F"/>
<path d="M43.566 29.6494C44.1174 29.7412 44.6988 29.7412 45.327 29.6494C46.2612 29.4964 46.2456 29.4964 44.5308 29.4964C42.9228 29.4964 42.831 29.4964 43.566 29.6494Z" fill="#000D1F"/>
<path d="M49.7373 29.5883C49.7373 29.6651 49.9059 30.1547 50.1051 30.6911L50.4723 31.6709L55.3113 31.7165L60.1497 31.7471V30.5987V29.4503H54.9435C52.0491 29.4503 49.7373 29.5115 49.7373 29.5883Z" fill="#000D1F"/>
<path d="M1.34961 41.7006V42.9258H4.27461H7.19961L7.72041 42.4818C8.36361 41.8998 9.42021 41.2872 10.5074 40.8432L11.3804 40.476H6.37221H1.34961V41.7006Z" fill="#000D1F"/>
<path d="M20.7201 40.7664C21.1491 40.9194 21.8535 41.226 22.2975 41.4552C22.7265 41.6694 23.0937 41.8074 23.0937 41.7462C23.0937 41.6694 23.1549 41.3634 23.2317 41.0418L23.3697 40.4754L21.6549 40.4904H19.9551L20.7201 40.7664Z" fill="#000D1F"/>
<path d="M27.7018 41.3484C27.5944 41.8386 27.472 42.3894 27.4264 42.5736L27.3496 42.9258H43.7494H60.1492V41.7006V40.4754H44.0254H27.886L27.7018 41.3484Z" fill="#000D1F"/>
<path d="M1.34961 52.8023V53.9507H3.95301H6.55641L5.94381 53.0015C5.60661 52.4963 5.33121 51.9755 5.33121 51.8531C5.33121 51.7001 4.90221 51.6539 3.34041 51.6539H1.34961V52.8023Z" fill="#000D1F"/>
<path d="M28.0541 52.5264C27.8705 53.0166 27.6869 53.5368 27.6101 53.6748C27.5027 53.9352 28.3301 53.9502 43.8263 53.9502H60.1493V52.8018V51.6534H44.2547H28.3757L28.0541 52.5264Z" fill="#000D1F"/>
</g>
<defs>
<clipPath id="clip0_620_354">
<rect width="60" height="60" fill="white" transform="translate(0.75)"/>
</clipPath>
</defs>
</svg>
