<svg width="60" height="48" viewBox="0 0 60 48" fill="none" xmlns="http://www.w3.org/2000/svg">
<path d="M59.3916 2.58902C59.0117 2.4353 58.4074 2.11619 57.6873 1.92273C56.9679 1.72109 55.9936 1.38268 55.0035 1.2991C54.0011 1.1939 52.8632 1.16117 51.6253 1.22312C50.4172 1.31898 49.1869 1.57672 47.8712 1.91864C46.5509 2.2588 45.351 2.82514 44.0664 3.44292C42.8109 4.08408 41.6701 4.88071 40.5228 5.75097C39.4386 6.64813 38.4146 7.64113 37.4742 8.69785C36.5981 9.78203 35.7261 10.9001 35.058 12.0924C34.3654 13.2754 33.7699 14.4922 33.3379 15.7395C33.2538 15.9604 33.2006 16.1866 33.124 16.4093C33.4221 17.058 33.7962 17.9493 34.2965 19.1925L35.5846 19.7127C39.3486 18.0066 39.8068 18.0066 39.9792 18.0066H40.3229L40.3708 18.0499C40.6788 17.6735 40.995 17.2877 41.303 16.9335C41.839 16.3765 42.3556 15.8406 42.8454 15.3327C43.3691 14.8616 43.8653 14.4127 44.3235 14.0036C44.8133 13.6325 45.2634 13.2947 45.6637 12.9954C46.0477 12.6775 46.4516 12.4916 46.7497 12.3011C47.3616 11.9381 47.7134 11.7306 47.7134 11.7306C47.7134 11.7306 47.3791 11.9668 46.7993 12.3741C46.5135 12.591 46.1354 12.8002 45.7794 13.1474C45.4095 13.4741 44.9951 13.8417 44.5392 14.2427C44.119 14.6833 43.6678 15.1609 43.1891 15.6641C42.7507 16.2006 42.2873 16.7658 41.8068 17.3503C41.5152 17.743 41.227 18.1633 40.9354 18.5794L43.1014 20.6928C43.5515 21.1376 43.6789 21.265 41.7151 25.7099L42.2388 26.9501C42.6467 27.0939 43.0067 27.226 43.3469 27.3505C43.5626 27.2283 43.7788 27.1126 43.9945 26.9881C44.9425 26.444 45.8408 25.8221 46.7345 25.1838C47.6024 24.5181 48.4645 23.8483 49.2465 23.1037C50.0186 22.3398 50.7988 21.6245 51.4745 20.7957C52.8626 19.2065 54.0432 17.5087 55.007 15.7143C55.5067 14.8704 55.9228 13.885 56.3314 12.996C56.7428 12.1152 57.0953 11.1356 57.443 10.2391C57.7955 9.35888 58.1192 8.46581 58.4068 7.59496C58.7189 6.69781 58.9948 5.91988 59.221 5.27931C59.4811 4.63991 59.6435 3.97186 59.7914 3.58085C59.927 3.139 59.9995 2.90288 59.9995 2.90288C59.9995 2.90288 59.7838 2.76553 59.3916 2.58902Z" fill="#000D1F"/>
<path d="M17.1061 27.2284C17.313 27.1484 17.5182 27.0665 17.7473 26.9783L18.2692 25.7445C16.2008 21.3791 16.3457 21.2383 16.7969 20.7941L19.2236 18.4217C18.8817 17.9284 18.5398 17.4363 18.1956 16.9717C17.7157 16.3854 17.2505 15.8203 16.8127 15.2867C16.3358 14.7828 15.8828 14.3053 15.4626 13.8646C15.0067 13.4631 14.5906 13.0967 14.2235 12.7694C13.8676 12.4245 13.4883 12.2147 13.2042 11.9967C12.6221 11.5899 12.2884 11.3532 12.2884 11.3532C12.2884 11.3532 12.6408 11.5601 13.2533 11.9236C13.5526 12.1159 13.9576 12.3006 14.3381 12.618C14.7373 12.9172 15.1885 13.2568 15.68 13.6262C16.1359 14.0371 16.6321 14.4842 17.1558 14.9553C17.6456 15.4655 18.164 15.9991 18.6982 16.5561C19.1284 17.05 19.565 17.576 19.9951 18.1114C20.2359 18.1312 21.0004 18.2972 24.3792 19.7257L25.6644 19.2043C26.2103 17.7443 26.5972 16.7613 26.8994 16.0909C26.8193 15.8477 26.7574 15.6058 26.6674 15.3638C26.2355 14.1166 25.6393 12.8985 24.9473 11.7162C24.2793 10.5244 23.4072 9.4081 22.53 8.32217C21.5901 7.26604 20.5662 6.27186 19.4831 5.37529C18.3341 4.50503 17.195 3.70782 15.9401 3.06724C14.649 2.45297 13.445 1.88779 12.1259 1.54822C10.8108 1.20806 9.58113 0.950312 8.37188 0.850953C7.13281 0.791922 5.99719 0.822898 4.99484 0.926933C4.00417 1.0111 3.0287 1.35067 2.30747 1.55406C1.58858 1.74635 0.984239 2.06605 0.603168 2.21918C0.215083 2.39511 0 2.52544 0 2.52544C0 2.52544 0.0736426 2.75923 0.206901 3.20342C0.355939 3.5956 0.517836 4.26247 0.777923 4.90129C1.00586 5.54245 1.27998 6.32388 1.59091 7.21753C1.88022 8.08838 2.20577 8.97969 2.55587 9.86165C2.90421 10.7594 3.25605 11.7378 3.6681 12.6186C4.07606 13.5075 4.49103 14.4929 4.99308 15.3369C5.95804 17.1289 7.13749 18.8291 8.52442 20.4183C9.20065 21.247 9.98032 21.9624 10.7524 22.7263C11.5344 23.4715 12.3971 24.1413 13.2656 24.8076C14.1587 25.4458 15.0576 26.0671 16.0038 26.6112C16.375 26.8217 16.7391 27.0262 17.1061 27.2284Z" fill="#000D1F"/>
<path d="M41.7172 27.9305L40.9071 26.0105C40.9071 26.0105 42.7873 21.7691 42.6231 21.6072L40.135 19.1758C39.9632 19.0098 35.7182 20.945 35.7182 20.945L33.762 20.1548C33.762 20.1548 32.0338 15.8555 31.7982 15.8555H28.2827C28.0389 15.8555 26.4398 20.1647 26.4398 20.1647L24.4877 20.9567C24.4877 20.9567 20.1551 19.1156 19.9926 19.2816L17.5057 21.713C17.3339 21.8831 19.3129 26.0357 19.3129 26.0357L18.504 27.9516C18.504 27.9516 14.1123 29.6442 14.1123 29.8715V33.314C14.1123 33.5542 18.5139 35.1206 18.5139 35.1206L19.3187 37.0341C19.3187 37.0341 17.4426 41.2744 17.6062 41.4346L20.0943 43.8689C20.2626 44.0343 24.5058 42.0968 24.5058 42.0968L26.4638 42.8881C26.4638 42.8881 28.195 47.1787 28.4317 47.1787H31.9461C32.1863 47.1787 33.7901 42.8764 33.7901 42.8764L35.7486 42.0851C35.7486 42.0851 40.0713 43.9267 40.2391 43.7631L42.7271 41.3311C42.8995 41.1587 40.9153 37.0102 40.9153 37.0102L41.723 35.0902C41.723 35.0902 46.1158 33.3964 46.1158 33.1685V29.726C46.1153 29.4928 41.7172 27.9305 41.7172 27.9305ZM30.1161 34.7343C28.3399 34.7343 26.9051 33.2965 26.9051 31.5226C26.9051 29.7482 28.3399 28.3122 30.1161 28.3122C31.89 28.3122 33.326 29.7482 33.326 31.5226C33.3266 33.2965 31.89 34.7343 30.1161 34.7343Z" fill="#DAA412"/>
</svg>
