<svg width="71" height="79" viewBox="0 0 71 79" fill="none" xmlns="http://www.w3.org/2000/svg">
<path d="M35.0869 17.4346C35.2565 17.2881 35.4559 17.1798 35.6714 17.117C35.8869 17.0542 36.1135 17.0385 36.3357 17.0708C36.5538 17.1015 36.7621 17.1804 36.9455 17.3018C37.1289 17.4232 37.2826 17.584 37.3953 17.7723C37.526 18.0321 37.6004 18.3164 37.6135 18.6067C37.7085 19.7421 37.4883 20.8817 36.9768 21.9009C36.7357 22.4162 36.3857 22.8737 35.9506 23.2418C35.5974 23.5272 35.1757 23.7164 34.727 23.7909L34.5175 23.8232C34.417 24.1973 34.3043 24.5125 34.2487 24.6799C33.8723 25.697 31.6689 29.3572 28.9605 30.3737C28.9643 31.1773 29.0381 31.979 29.1809 32.7699C29.305 33.478 29.2666 34.1107 30.2553 34.4662C30.3206 34.4897 33.1246 35.8177 33.2247 35.8588C33.2247 35.8588 32.7283 43.2433 24.5185 43.2433C16.3087 43.2433 15.3454 36.0114 15.3454 36.0114C15.5359 35.9467 18.6628 34.4907 18.7282 34.4673C19.7169 34.1117 19.6778 33.479 19.8035 32.771C19.9538 31.9422 20.0273 31.1014 20.0231 30.2592C18.8192 29.6722 17.7605 28.8277 16.9226 27.7859C15.9775 26.6316 15.2878 25.2916 14.8989 23.8535L14.5 23.7917C14.0519 23.7173 13.6307 23.5286 13.2774 23.2441C12.8423 22.8758 12.4923 22.4183 12.2511 21.903C11.7397 20.8837 11.5195 19.7442 11.6144 18.6088C11.6276 18.3185 11.7019 18.0342 11.8325 17.7744C11.9453 17.5861 12.099 17.4253 12.2824 17.3039C12.4658 17.1825 12.6741 17.1036 12.8922 17.0729C13.1144 17.0405 13.341 17.0563 13.5565 17.1191C13.772 17.1819 13.9714 17.2902 14.141 17.4367C14.141 17.4367 14.3478 8.59685 24.3967 8.59685C34.4456 8.59685 35.0869 17.4346 35.0869 17.4346Z" fill="white"/>
<path d="M18.3253 33.6944C18.6781 34.8766 19.0926 36.7178 20.0343 39.404C21.5512 43.7306 23.6299 48.5592 24.7493 50.9644L24.826 51.1291C26.4761 47.2015 27.9187 43.1907 29.1481 39.113C29.6986 37.2868 30.1231 35.4253 30.4186 33.5414L18.327 33.694" fill="white"/>
<path d="M19.494 30.5703C19.4684 31.4373 19.3743 32.301 19.2125 33.1533C19.1928 33.2784 19.1618 33.4016 19.1201 33.5212C19.0838 33.6118 19.0289 33.6937 18.9588 33.7617C18.7925 33.8915 18.6052 33.9921 18.405 34.0592C17.6218 34.4053 16.8496 34.7771 16.0713 35.1339C15.8521 35.2344 15.6325 35.3343 15.4126 35.4337C15.3426 35.4651 15.2724 35.4963 15.2021 35.5274C15.0549 35.5926 15.2732 35.5031 15.1835 35.535C15.0584 35.5727 14.9527 35.6568 14.8882 35.7699C14.8237 35.883 14.8053 36.0165 14.8369 36.1427C14.8729 36.2685 14.957 36.3751 15.0712 36.4397C15.1854 36.5043 15.3205 36.5216 15.4474 36.488C15.7718 36.3721 16.0851 36.2099 16.3986 36.067C16.8981 35.8387 17.3969 35.6092 17.895 35.3783C18.2321 35.2229 18.5721 35.073 18.9069 34.9126C18.9192 34.9086 18.931 34.9034 18.9422 34.8969C18.9364 34.9017 18.7511 34.9744 18.8711 34.9284C18.9298 34.906 18.9879 34.8819 19.0458 34.857C19.2543 34.7697 19.4473 34.6496 19.6174 34.5012C19.8689 34.2669 20.0454 33.964 20.1249 33.6303C20.2122 33.2423 20.2787 32.8499 20.324 32.4547C20.4186 31.8306 20.4739 31.2013 20.4895 30.5703C20.5025 29.9341 19.5099 29.9343 19.4969 30.5703H19.494Z" fill="#281B19"/>
<path d="M28.4357 30.5703C28.4721 31.4877 28.5721 32.4015 28.7351 33.3053C28.841 33.967 29.1539 34.5214 29.7836 34.8156C29.821 34.8331 30.0625 34.8967 30.0937 34.9437C30.0919 34.9408 29.9318 34.87 30.0098 34.9091C30.0534 34.9311 30.0989 34.9503 30.1432 34.9709C30.3072 35.0472 30.4711 35.124 30.6347 35.2012C31.0844 35.4129 31.5342 35.6247 31.9839 35.8368C32.3032 35.9873 32.6198 36.1485 32.9447 36.2867C33.0592 36.3486 33.1932 36.3647 33.3193 36.3318C33.4454 36.2988 33.5542 36.2193 33.6236 36.1094C33.6891 35.996 33.7072 35.8615 33.6738 35.735C33.6405 35.6084 33.5585 35.5 33.4455 35.4333C32.7654 35.145 32.1034 34.8035 31.4348 34.4889C31.1337 34.347 30.8341 34.2006 30.5303 34.065C30.3459 34.0002 30.1708 33.912 30.0092 33.8025C29.9295 33.735 29.8641 33.6525 29.8166 33.5597C29.7691 33.467 29.7405 33.3658 29.7325 33.262C29.5469 32.3763 29.4452 31.4751 29.4289 30.5705C29.4159 29.9355 28.4232 29.9333 28.4363 30.5705L28.4357 30.5703Z" fill="#281B19"/>
<path d="M12.6107 8.65224C14.1164 3.89486 18.9623 0.504153 24.5417 0.504153C30.9327 0.504153 35.1981 4.01922 36.6329 9.61536C37.0287 11.1595 37.4077 14.7479 36.6587 17.1569C36.5547 17.1161 36.4463 17.0873 36.3357 17.0708C35.9909 17.0217 35.6394 17.0872 35.3358 17.2574C33.9419 16.4346 32.6873 15.3978 31.6185 14.1852C30.3392 12.7745 29.2517 10.9596 28.6772 9.95301C26.8847 11.4619 25.6025 12.171 22.6503 13.7475C19.0498 15.671 14.5937 17.0818 14.0407 17.1351L13.7028 17.1676C13.4456 17.065 13.1657 17.0316 12.8913 17.0709L12.8514 17.0772L12.3551 15.3661C11.8588 14.2453 11.9622 11.5464 12.3344 9.71378C12.4079 9.35537 12.5001 9.00104 12.6107 8.65224Z" fill="#DAA412"/>
<path d="M12.0598 24.4905C12.3907 23.921 12.8947 23.4524 13.6337 23.4846C13.9012 23.639 14.1948 23.7428 14.5 23.7917L14.8989 23.8535C15.2878 25.2916 15.9775 26.6316 16.9226 27.7859C17.7693 28.8402 18.8427 29.6924 20.0639 30.279C18.8119 31.8025 15.8057 32.4094 13.855 31.2538C12.152 30.245 11.2701 28.0704 11.53 26.0773C11.6075 25.5205 11.7871 24.9827 12.0598 24.4905Z" fill="#DAA412"/>
<path d="M12.7842 15.1166C12.8177 15.1948 12.7542 15.0258 12.748 15.0067C12.7259 14.9385 12.7067 14.8693 12.6891 14.8008C12.65 14.6458 12.619 14.4889 12.596 14.3307C12.5489 13.9792 12.5231 13.6251 12.5189 13.2704C12.5022 12.4386 12.5487 11.6067 12.6581 10.7819C12.8311 9.34572 13.2954 7.95952 14.0229 6.70745C15.5127 4.18537 18.0284 2.36741 20.8276 1.53605C23.7634 0.671999 26.9065 0.822128 29.7457 1.96202C32.1948 3.00204 34.1695 4.90934 35.2879 7.31502C35.8569 8.51912 36.237 9.80297 36.4151 11.1218C36.6535 12.6713 36.6674 14.2469 36.4565 15.8003C36.3969 16.1911 36.3116 16.5776 36.2011 16.9572C36.0212 17.5687 36.9788 17.8299 37.1581 17.2199C37.6437 15.5685 37.6563 13.774 37.5113 12.0718C37.4079 10.6278 37.0976 9.20599 36.5899 7.84949C35.5373 5.13491 33.6308 2.81068 31.0127 1.46563C28.1575 -0.000263554 24.6864 -0.341002 21.5621 0.329152C18.3968 0.992175 15.5911 2.80094 13.6883 5.40523C12.7924 6.65547 12.1687 8.07825 11.8572 9.58242C11.5224 11.2295 11.3728 13.0207 11.6539 14.6859C11.7071 15.0055 11.7989 15.3176 11.9271 15.6155C11.9941 15.728 12.1029 15.8098 12.23 15.8429C12.3572 15.8761 12.4923 15.8581 12.6062 15.7927C12.7172 15.7242 12.7976 15.6159 12.8307 15.49C12.8639 15.3642 12.8472 15.2305 12.7842 15.1166Z" fill="#281B19"/>
<path d="M13.2553 23.0156C12.1938 23.1597 11.567 24.166 11.2543 25.0935C10.9341 26.1044 10.9015 27.1838 11.1603 28.2119C11.4234 29.3829 12.0567 30.439 12.9672 31.2252C13.9317 32.0022 15.1482 32.4014 16.3877 32.3479C17.7431 32.3344 19.0509 31.8484 20.0835 30.9742C20.5608 30.5493 19.8561 29.8524 19.3817 30.2755C17.9717 31.5313 15.4995 31.7638 13.9197 30.7099C13.1147 30.1412 12.5229 29.3218 12.2379 28.3809C11.9544 27.534 11.9053 26.6268 12.0956 25.7544C12.2887 24.9675 12.6746 24.0831 13.5192 23.9684C13.6457 23.9329 13.7531 23.8492 13.818 23.7354C13.8829 23.6216 13.9 23.487 13.8658 23.3606C13.8278 23.2362 13.7434 23.1309 13.6297 23.0667C13.5161 23.0025 13.3821 22.9842 13.2553 23.0156Z" fill="#281B19"/>
<path d="M21.2825 11.5746C21.2548 11.6584 21.2261 11.7417 21.1951 11.8245C21.1767 11.8739 21.1572 11.9229 21.1378 11.9721C21.132 11.9867 21.1068 12.0469 21.1268 11.9997C21.0547 12.1679 20.9734 12.3326 20.8857 12.4938C20.803 12.6463 20.7134 12.795 20.6169 12.94C20.5643 13.0195 20.5101 13.0977 20.4541 13.1747C20.4336 13.2021 20.4129 13.2296 20.3921 13.257C20.292 13.39 20.4481 13.1926 20.3418 13.3207C20.1223 13.5882 19.8826 13.8388 19.6249 14.0701C19.3698 14.2969 19.0936 14.499 18.7999 14.6735C18.7437 14.7063 18.6944 14.7497 18.655 14.8014C18.6156 14.8531 18.5868 14.912 18.5702 14.9748C18.5537 15.0376 18.5497 15.103 18.5586 15.1673C18.5674 15.2316 18.5889 15.2935 18.6218 15.3496C18.6547 15.4056 18.6983 15.4546 18.7503 15.4939C18.8022 15.5331 18.8614 15.5618 18.9244 15.5782C18.9875 15.5947 19.0532 15.5987 19.1177 15.5899C19.1823 15.581 19.2445 15.5597 19.3008 15.5269C20.6886 14.683 21.7301 13.3756 22.2396 11.8381C22.2569 11.7755 22.2617 11.7102 22.2537 11.6458C22.2456 11.5814 22.2249 11.5192 22.1927 11.4627C22.1606 11.4063 22.1175 11.3567 22.0661 11.3169C22.0147 11.277 21.9559 11.2476 21.893 11.2303C21.8302 11.2131 21.7645 11.2083 21.6998 11.2163C21.6352 11.2243 21.5727 11.2449 21.516 11.277C21.4593 11.309 21.4095 11.3519 21.3695 11.4031C21.3294 11.4543 21.2999 11.5128 21.2825 11.5754V11.5746Z" fill="#281B19"/>
<path d="M35.4378 17.784C35.5461 17.6956 35.6713 17.6298 35.8057 17.5906C35.9402 17.5513 36.0812 17.5395 36.2203 17.5557C36.3595 17.572 36.4939 17.616 36.6156 17.6851C36.7373 17.7542 36.8437 17.847 36.9286 17.958C37.1228 18.2432 37.1292 18.6403 37.1377 18.972C37.1494 19.3397 37.1241 19.7077 37.062 20.0704C36.8213 21.4212 36.1057 23.0557 34.5951 23.3155C34.4687 23.3513 34.3615 23.4351 34.2967 23.5488C34.2318 23.6626 34.2144 23.7971 34.2483 23.9235C34.2859 24.0482 34.3703 24.1537 34.4841 24.218C34.5979 24.2823 34.7321 24.3004 34.859 24.2686C36.4461 23.9954 37.3916 22.5155 37.8346 21.091C38.0711 20.3321 38.1678 19.537 38.1199 18.7439C38.0701 17.9648 37.8304 17.2251 37.1066 16.8221C36.732 16.6186 36.3035 16.5347 35.8793 16.5818C35.4551 16.6289 35.0557 16.8048 34.7353 17.0855C34.6432 17.1787 34.5916 17.3041 34.5916 17.4349C34.5916 17.5656 34.6432 17.691 34.7353 17.7842C34.8297 17.8745 34.9554 17.9248 35.0862 17.9248C35.2171 17.9248 35.3428 17.8745 35.4372 17.7842L35.4378 17.784Z" fill="#281B19"/>
<path d="M34.2146 22.6353C34.1883 23.0855 34.1037 23.5305 33.9629 23.9591C33.9156 24.1166 33.8637 24.2729 33.8111 24.4287C33.795 24.4765 33.7782 24.5243 33.7619 24.5729C33.7286 24.6692 33.7412 24.6219 33.7553 24.5935C33.5544 25.0281 33.3242 25.4487 33.0662 25.8524C32.3324 27.0635 31.3957 28.1405 30.2968 29.0369C29.6972 29.5292 28.9956 29.8833 28.2423 30.0739C27.62 30.2166 27.8833 31.1696 28.5062 31.0269C30.0681 30.6687 31.3769 29.5518 32.4086 28.3793C33.2856 27.4174 34.0171 26.3333 34.58 25.1613C34.9488 24.3668 35.1613 23.5094 35.2062 22.6353C35.2269 21.9991 34.2342 21.9999 34.2136 22.6353H34.2146Z" fill="#281B19"/>
<path d="M14.4911 17.0853C14.213 16.8394 13.8734 16.6728 13.5082 16.6029C13.1429 16.5331 12.7655 16.5626 12.4157 16.6883C11.6392 16.9903 11.237 17.6304 11.1363 18.435C10.9496 20.0016 11.3493 21.5818 12.259 22.8735C12.7535 23.5937 13.5099 24.0942 14.3683 24.2694C14.4951 24.3005 14.629 24.282 14.7426 24.2178C14.8561 24.1537 14.9407 24.0486 14.979 23.9243C15.0128 23.798 14.9955 23.6634 14.9306 23.5497C14.8657 23.4359 14.7585 23.3521 14.6322 23.3164C13.1225 23.0563 12.4062 21.4222 12.1655 20.0712C12.1033 19.7085 12.0779 19.3405 12.0896 18.9728C12.0979 18.6422 12.1028 18.2421 12.2987 17.9588C12.3835 17.8478 12.49 17.755 12.6117 17.6859C12.7334 17.6168 12.8678 17.5728 13.0069 17.5566C13.1461 17.5403 13.2871 17.5522 13.4216 17.5914C13.556 17.6306 13.6811 17.6964 13.7895 17.7849C13.8841 17.8745 14.0098 17.9244 14.1404 17.9244C14.271 17.9244 14.3967 17.8745 14.4913 17.7849C14.5834 17.6917 14.635 17.5662 14.635 17.4355C14.635 17.3048 14.5834 17.1793 14.4913 17.0861L14.4911 17.0853Z" fill="#281B19"/>
<path d="M14.0839 22.493C14.653 25.7598 16.4317 28.9578 19.4702 30.5384C20.2979 30.9689 21.2006 31.2383 22.1298 31.3321C22.2612 31.3312 22.3869 31.2789 22.4798 31.1864C22.5727 31.0939 22.6253 30.9687 22.6261 30.8379C22.6233 30.7078 22.5701 30.5837 22.4776 30.4917C22.3851 30.3996 22.2605 30.3466 22.1298 30.3438C19.0173 30.0214 16.5876 27.2405 15.6078 24.4495C15.358 23.7266 15.1684 22.9843 15.0412 22.2303C15.0053 22.1045 14.9211 21.9978 14.8069 21.9333C14.6926 21.8687 14.5574 21.8515 14.4305 21.8853C14.3053 21.9226 14.1993 22.0067 14.1347 22.1199C14.0702 22.2331 14.052 22.3668 14.0839 22.493Z" fill="#281B19"/>
<path d="M35.4303 16.7381C33.9865 15.8532 32.6992 14.737 31.6203 13.4347C30.6715 12.2683 29.83 11.0192 29.1059 9.70266C28.7899 9.14986 27.9321 9.64727 28.2487 10.2015C29.9194 13.1251 31.9986 15.8285 34.9293 17.5928C35.4775 17.9222 35.9769 17.0684 35.4303 16.7394V16.7381Z" fill="#281B19"/>
<path d="M14.468 30.0309C14.8357 30.2422 15.2472 30.3668 15.6709 30.3951C16.0945 30.4234 16.5191 30.3547 16.9119 30.1941C17.0235 30.129 17.1051 30.0231 17.1394 29.8989C17.1737 29.7703 17.1557 29.6335 17.0893 29.518C17.0235 29.4073 16.9172 29.3262 16.7928 29.2915C16.6633 29.2644 16.5285 29.2819 16.4104 29.3414C16.4185 29.3379 16.5264 29.2973 16.4631 29.3183C16.4478 29.3232 16.4327 29.3292 16.4174 29.3346C16.3819 29.3465 16.3459 29.3571 16.3095 29.3663C16.2761 29.3751 16.2425 29.3827 16.2086 29.3893C16.1869 29.3937 16.1649 29.3974 16.1432 29.4013C16.0717 29.4142 16.1885 29.3998 16.1949 29.3953C16.1742 29.4097 16.1097 29.4044 16.0849 29.4062C16.0427 29.4094 16.0005 29.4114 15.9581 29.4124C15.8763 29.4143 15.7944 29.4122 15.7127 29.406C15.674 29.4033 15.6347 29.3959 15.5958 29.3949C15.614 29.3949 15.709 29.412 15.6403 29.4007L15.582 29.3912C15.4997 29.3766 15.4182 29.3579 15.3378 29.3352C15.2579 29.3127 15.1822 29.281 15.1039 29.2549C15.1214 29.2609 15.2029 29.3002 15.1434 29.2705C15.1227 29.2598 15.1004 29.2499 15.0793 29.2394C15.0414 29.2203 15.0046 29.1997 14.9682 29.1777C14.8545 29.1116 14.7191 29.0931 14.5918 29.1264C14.4645 29.1596 14.3556 29.2419 14.2892 29.355C14.2228 29.4682 14.2042 29.603 14.2376 29.7298C14.2711 29.8566 14.3537 29.9649 14.4673 30.0311L14.468 30.0309Z" fill="#281B19"/>
<path d="M14.0407 17.6292C14.6499 17.5299 15.247 17.368 15.8227 17.1462C16.9202 16.7859 18.0038 16.3822 19.0727 15.9453C21.5272 14.9627 23.8823 13.7501 26.1063 12.3238C27.0685 11.6831 27.9906 10.9846 28.8674 10.2322C28.9595 10.139 29.011 10.0135 29.011 9.88281C29.011 9.75211 28.9595 9.62664 28.8674 9.53342C28.773 9.44324 28.6472 9.39289 28.5164 9.39289C28.3856 9.39289 28.2598 9.44324 28.1654 9.53342C24.6178 12.5187 20.3168 14.5813 15.9339 16.0674C15.4997 16.2146 15.0631 16.3556 14.6224 16.4841C14.4777 16.5253 14.3313 16.5664 14.1842 16.6029C14.1363 16.6146 14.0879 16.6249 14.0395 16.636C13.9303 16.6611 13.9508 16.65 14.0395 16.6403C13.909 16.644 13.7849 16.6973 13.6926 16.7891C13.6003 16.881 13.5469 17.0046 13.5432 17.1345C13.544 17.2653 13.5965 17.3905 13.6894 17.483C13.7823 17.5755 13.9081 17.6278 14.0395 17.6286L14.0407 17.6292Z" fill="#281B19"/>
<path d="M19.5275 38.6745C20.7384 38.8749 21.9672 38.9478 23.1936 38.8919C23.3243 38.889 23.4488 38.836 23.5412 38.744C23.6337 38.6519 23.6869 38.5279 23.6899 38.3978C23.6887 38.2671 23.6361 38.1421 23.5432 38.0497C23.4504 37.9572 23.3248 37.9048 23.1936 37.9037C22.0562 37.9615 20.9159 37.9004 19.7913 37.7215C19.6645 37.6909 19.5308 37.7096 19.4173 37.7737C19.3039 37.8379 19.2192 37.9426 19.1807 38.0667C19.1467 38.1931 19.164 38.3277 19.2289 38.4414C19.2938 38.5551 19.401 38.6389 19.5275 38.6745Z" fill="#281B19"/>
<path d="M69.4474 43.1142C68.9947 42.9071 68.1497 42.7166 67.6927 42.9131C67.5449 42.9085 67.3104 42.7302 67.063 42.7376C66.1544 42.7648 65.1516 43.1906 64.2764 43.4356C63.8238 43.5624 63.4594 43.7708 62.9809 43.7988C62.5023 43.8268 59.974 43.8418 59.0881 43.8811C59.1357 43.8041 59.1655 43.7537 59.1655 43.7537C59.6647 42.9145 60.9057 42.2301 61.5281 41.2581C61.8623 40.7362 62.1504 40.2664 61.6611 39.8005C61.2212 39.3815 60.7797 39.568 60.3204 39.8767C59.3035 40.5416 58.3288 41.2686 57.4019 42.0533C56.5746 42.709 55.9136 43.5491 55.4723 44.5058C55.24 44.9884 55.1989 45.5628 54.9087 46.0174C54.6475 46.4474 54.347 46.8525 54.011 47.2276C54.9623 48.1942 56.6314 49.7671 57.7284 50.8791C58.2247 50.3998 58.8313 49.8617 59.232 49.6726C60.222 49.3714 61.2346 49.1499 62.2602 49.0101C63.2246 48.8765 64.1655 48.6089 65.0552 48.215C65.8748 47.888 67.0146 47.2354 67.7837 46.8236C68.8994 46.2272 71.0114 44.1743 69.4474 43.1142Z" fill="white"/>
<path d="M54.3632 47.5767C54.7038 47.2021 55.0085 46.7965 55.2731 46.3653C55.573 45.9002 55.6619 45.382 55.8522 44.8733C56.2045 44.0251 56.7511 43.2707 57.4484 42.6703C58.3157 41.8994 59.2369 41.1907 60.205 40.5497C60.4693 40.3698 60.9882 39.8579 61.3093 40.1505C61.6137 40.4276 61.152 40.9559 60.9679 41.196C60.3134 42.0498 59.3065 42.5783 58.7357 43.5046C58.4007 44.0483 59.2589 44.5453 59.5927 44.0034C59.8809 43.5986 60.2271 43.2379 60.6201 42.9328C61.0541 42.5716 61.4501 42.1673 61.8019 41.7261C62.1421 41.2732 62.5356 40.6638 62.3843 40.0721C62.2985 39.7568 62.1009 39.4833 61.828 39.3021C61.5551 39.1209 61.2255 39.0443 60.9003 39.0867C60.3165 39.1783 59.8078 39.622 59.3369 39.95C58.7918 40.329 58.257 40.7229 57.7373 41.1361C56.857 41.8361 56.0108 42.5824 55.4224 43.5511C55.2442 43.8397 55.0887 44.1416 54.9571 44.4541C54.8267 44.771 54.7563 45.1057 54.643 45.4283C54.535 45.6886 54.3941 45.934 54.2236 46.1586C54.056 46.4139 53.8675 46.6549 53.6599 46.8792C53.2207 47.341 53.9215 48.041 54.3618 47.5792L54.3632 47.5767Z" fill="#281B19"/>
<path d="M58.9878 44.382C60.2561 44.311 61.5294 44.3409 62.7987 44.3007C63.1839 44.2861 63.5642 44.2096 63.9249 44.0742C64.4212 43.8947 64.9314 43.7494 65.4345 43.5896C65.9311 43.4049 66.4497 43.2854 66.9772 43.234C67.1807 43.225 67.3403 43.3423 67.5335 43.3858C67.768 43.4385 67.9709 43.3226 68.201 43.324C68.5203 43.3265 69.0137 43.3977 69.2483 43.5764C69.3419 43.6383 69.4158 43.7256 69.4612 43.8279C69.5066 43.9303 69.5215 44.0435 69.5043 44.1541C69.4995 44.2451 69.5301 44.0419 69.4989 44.1974C69.4923 44.2313 69.4844 44.2651 69.4757 44.2984C69.4577 44.3675 69.4354 44.4354 69.4089 44.5017C69.3404 44.6452 69.2621 44.7839 69.1746 44.9169C68.9733 45.207 68.7382 45.4723 68.4744 45.7075C67.9469 46.1938 67.3164 46.5138 66.6649 46.8669C65.834 47.3326 64.9676 47.7325 64.0736 48.0628C62.9139 48.4746 61.7008 48.5473 60.5092 48.8246C59.9285 48.9597 59.2403 49.0575 58.7355 49.3863C58.2477 49.7239 57.7929 50.1065 57.3771 50.5289C56.917 50.9718 57.6192 51.6701 58.079 51.2279C58.532 50.7918 59.0259 50.2413 59.6471 50.0684C60.3903 49.8539 61.1452 49.6821 61.9082 49.5536C62.6517 49.4621 63.3863 49.3093 64.1044 49.0966C64.7228 48.8929 65.3275 48.6502 65.9149 48.3698C66.5283 48.0752 67.123 47.7439 67.7202 47.4188C68.146 47.1953 68.5487 46.9307 68.9225 46.6289C69.6627 46.0166 70.4942 45.0991 70.5 44.0806C70.4992 43.7893 70.4192 43.5036 70.2684 43.254C70.1177 43.0043 69.9017 42.8 69.6437 42.6627C69.0601 42.3745 68.1837 42.1949 67.5596 42.4362H67.8234C67.6782 42.396 67.5356 42.3471 67.3964 42.2896C67.1884 42.2396 66.9726 42.2311 66.7613 42.2647C66.3576 42.3141 65.9587 42.3975 65.5691 42.514C64.8102 42.7358 64.0686 43.0226 63.309 43.2386C62.9237 43.3178 62.5298 43.347 62.1369 43.3256C61.5966 43.3349 61.056 43.3419 60.5156 43.3512C60.0063 43.3598 59.4959 43.3639 58.9874 43.3923C58.3523 43.4278 58.3482 44.4162 58.9874 44.3806L58.9878 44.382Z" fill="#281B19"/>
<path d="M61.262 45.7009C59.8971 45.6962 58.4586 45.4405 57.2294 46.199C56.6874 46.5333 57.1852 47.3886 57.7303 47.0524C58.7732 46.409 60.0733 46.6851 61.2622 46.6892C61.901 46.6914 61.9016 45.7032 61.262 45.7009Z" fill="#281B19"/>
<path d="M66.905 43.0769C66.373 43.4487 65.7901 43.7425 65.1741 43.9491C64.5561 44.1709 63.9199 44.3387 63.2726 44.4506C63.1463 44.4864 63.0391 44.5702 62.9743 44.6839C62.9094 44.7977 62.8921 44.9322 62.9261 45.0586C62.9636 45.1833 63.0481 45.2887 63.1618 45.353C63.2755 45.4173 63.4097 45.4354 63.5365 45.4036C64.2032 45.2885 64.8582 45.1141 65.4936 44.8825C66.1723 44.6555 66.8158 44.3352 67.4055 43.9309C67.5163 43.8622 67.5965 43.7539 67.6296 43.6281C67.6627 43.5024 67.6462 43.3688 67.5835 43.2548C67.5164 43.1424 67.4075 43.0608 67.2805 43.0277C67.1534 42.9945 67.0183 43.0124 66.9044 43.0776L66.905 43.0769Z" fill="#281B19"/>
<path d="M67.7988 44.1753C67.7876 44.1848 67.6873 44.2643 67.7527 44.2151C67.818 44.1659 67.7027 44.2486 67.6907 44.2562C67.6265 44.2995 67.5606 44.34 67.494 44.3798C67.3248 44.4784 67.1497 44.5665 66.9727 44.6501C66.5771 44.8368 66.2427 44.9688 65.8011 45.131C65.1372 45.3935 64.4544 45.606 63.7584 45.7666C63.6315 45.8014 63.5236 45.8851 63.4586 45.9991C63.3936 46.1131 63.3767 46.2481 63.4117 46.3745C63.4467 46.5009 63.5307 46.6082 63.6452 46.673C63.7597 46.7377 63.8953 46.7545 64.0223 46.7196C64.7534 46.5507 65.4702 46.3256 66.1664 46.0464C66.9619 45.7497 67.8507 45.4403 68.5005 44.8747C68.5923 44.7818 68.6435 44.6565 68.643 44.5262C68.6425 44.3958 68.5902 44.271 68.4976 44.1788C68.405 44.0866 68.2796 44.0346 68.1487 44.0341C68.0178 44.0335 67.8919 44.0845 67.7986 44.1759L67.7988 44.1753Z" fill="#281B19"/>
<path d="M53.4506 46.6307C52.6344 47.4911 50.7769 49.664 49.3749 51.1573C49.0531 51.4999 48.4406 52.1758 47.7825 52.9038L46.982 52.6055C46.1962 52.1678 45.6964 50.5586 45.3562 49.706C44.6026 47.8164 44.0095 45.9002 43.2816 43.9824C42.83 42.793 42.1285 39.6823 41.3675 39.2193C40.9225 38.8656 40.422 38.6879 39.9218 38.4163C37.3293 36.9709 34.6588 35.6687 31.9224 34.5156C31.2665 33.9694 30.6753 33.5702 30.4174 33.5406C30.1218 35.4244 29.6973 37.286 29.1468 39.1122C27.9175 43.1898 26.4748 47.2006 24.8248 51.1283L24.748 50.9635C23.6293 48.5584 21.5506 43.7298 20.0331 39.4031C19.0913 36.717 18.6769 34.8757 18.3241 33.6935C17.9893 33.7098 17.0353 34.4586 16.1275 35.3406C13.9768 36.3114 12.1105 37.2918 10.0326 38.4169C9.51684 38.6963 8.91237 38.9415 8.46465 39.3134C7.57832 39.7089 6.32906 43.5628 5.38814 46.1796C4.71605 48.0511 2.43963 55.0823 1.79794 57.0618C1.04519 59.384 0.388615 60.9428 1.92201 62.9598C2.65159 63.9201 3.70832 64.7067 4.62774 65.317C5.76513 66.0726 8.77609 68.0215 11.0384 69.3676C10.6943 71.8985 10.3614 74.2892 10.2152 75.6079C11.2064 75.7368 12.2703 75.849 13.3535 75.934C14.7376 76.0427 16.1536 76.1072 17.4907 76.1057L24.8223 74.8344L26.2285 75.8476C26.9874 76.5192 27.9637 76.6917 29.1197 76.6902C32.0653 76.6878 37.5196 76.1496 39.7367 75.5888C39.35 72.1093 37.6894 61.322 37.8985 59.921C38.1119 58.4845 38.3375 57.018 38.566 55.5535C39.5659 57.6021 40.6375 59.4499 42.1907 61.1211C43.5031 62.5332 44.6309 63.3421 46.6435 63.3382C48.5123 63.3347 49.5349 62.0714 50.6893 60.8126C52.021 59.3605 57.8978 52.7521 58.6156 51.8338C57.7572 50.7811 54.2621 47.5823 53.4506 46.6307ZM12.0573 60.79C11.1197 60.1384 10.2328 59.4874 9.61072 59.0101L9.63781 58.816C9.73873 58.0929 10.3176 56.6908 11.0356 55.1761C11.1086 55.0223 11.1829 54.8675 11.2585 54.7117C11.5296 56.444 11.8009 58.1981 12.0569 59.9205C12.0818 60.2098 12.0819 60.5007 12.0573 60.79Z" fill="black"/>
<path d="M24.3423 52.1503C25.6658 49.2362 27.7739 43.6995 29.1464 39.1128C29.697 37.2866 30.1215 35.4251 30.417 33.5412C31.0882 33.6182 34.0216 36.2022 34.4702 37.3597C34.4998 37.4363 33.1434 38.7622 32.5296 39.3105C32.8135 39.7245 33.9861 41.1359 34.0061 41.2687C34.0194 41.3562 30.5214 47.0725 27.9242 51.3193L26.8015 53.1568L24.3423 52.1503Z" fill="black"/>
<path d="M24.9048 52.1674C25.9684 49.8217 26.8778 47.404 27.7394 44.9789C28.7291 42.1935 29.6944 39.3725 30.3541 36.4886C30.5675 35.5558 30.733 34.6151 30.8955 33.6732L30.285 34.0184C30.3411 34.0265 30.5047 34.0991 30.3655 34.0316C30.4459 34.0707 30.5249 34.1115 30.6021 34.1572C30.8027 34.2788 30.9964 34.4115 31.1823 34.5546C31.6574 34.9233 32.1109 35.3187 32.5406 35.739C32.963 36.1371 33.3523 36.5687 33.7046 37.0295C33.77 37.1209 33.8333 37.2148 33.8907 37.3109C33.9178 37.3564 33.9439 37.4026 33.9681 37.4497C34.0949 37.6968 33.9009 37.3739 34.0301 37.1409C33.991 37.2117 34.1116 37.0546 34.0522 37.1153C34.0223 37.1462 33.996 37.1814 33.9673 37.2133C33.8862 37.3043 33.8018 37.3923 33.7166 37.4798C33.2203 37.9908 32.7077 38.4886 32.1776 38.9621C32.1004 39.0396 32.051 39.1402 32.0369 39.2484C32.0229 39.3566 32.0451 39.4664 32.1001 39.5608C32.5588 40.2211 33.0627 40.8221 33.5299 41.4307C33.5402 41.4439 33.5495 41.4756 33.5628 41.4857C33.4904 41.4311 33.5297 41.1291 33.5247 41.1464C33.5791 40.9555 33.582 41.0286 33.5518 41.0768C33.5164 41.133 33.4873 41.1947 33.4544 41.2526C33.3268 41.4768 33.1947 41.6985 33.0627 41.9203C31.9752 43.7475 30.8622 45.5599 29.754 47.3746C29.0014 48.6071 28.2482 49.8393 27.4945 51.071C27.1616 51.6158 28.0196 52.1128 28.3517 51.5699C29.7055 49.3558 31.0576 47.1407 32.408 44.9245C32.9072 44.1029 33.4062 43.2812 33.8982 42.4552C34.0336 42.2287 34.1691 42.0006 34.3004 41.771C34.4088 41.6235 34.478 41.451 34.5014 41.2697C34.4803 41.0822 34.3999 40.9063 34.2719 40.7673C34.1164 40.5542 33.9524 40.3471 33.7896 40.1396C33.4831 39.7484 33.2205 39.4412 32.9571 39.062L32.8795 39.6609C33.3965 39.1977 33.8967 38.7138 34.3811 38.2164C34.5658 38.0496 34.7312 37.8627 34.8741 37.6591C35.0471 37.3708 34.9115 37.0927 34.758 36.8302C34.4168 36.2896 34.0113 35.7919 33.5506 35.3478C33.0567 34.8401 32.53 34.365 31.9739 33.9256C31.5843 33.619 31.064 33.1397 30.5487 33.0658C30.3045 33.0308 29.9881 33.1224 29.9382 33.4109C29.5623 35.6079 29.0436 37.7784 28.3854 39.9086C27.5277 42.6755 26.573 45.411 25.5213 48.1149C25.0576 49.3103 24.5774 50.5003 24.0478 51.6683C23.9852 51.7823 23.9688 51.9159 24.0019 52.0416C24.035 52.1673 24.1151 52.2756 24.2259 52.3444C24.3398 52.4095 24.4748 52.4275 24.6018 52.3943C24.7289 52.3611 24.8377 52.2797 24.9048 52.1674Z" fill="#281B19"/>
<path d="M17.4909 75.6116C15.0575 75.6016 12.6273 75.4353 10.2154 75.1138L10.7117 75.6079C10.9011 73.9065 11.1336 72.3113 11.3617 70.6401C11.6497 68.53 11.9407 66.4195 12.1978 64.3057C12.3011 63.4583 12.3998 62.6098 12.4782 61.7597C12.5425 61.2182 12.5728 60.6732 12.5687 60.1279C12.529 59.6317 12.4607 59.1382 12.3642 58.6498C12.2414 57.8371 12.1173 57.0248 11.992 56.2128C11.7405 54.5896 11.4862 52.9668 11.2291 51.3444C10.7824 48.5057 10.3298 45.667 9.94098 42.8196C9.90306 42.5415 9.86619 42.2631 9.83034 41.9845C9.82625 41.8548 9.77265 41.7314 9.68044 41.6396C9.58824 41.5478 9.46436 41.4945 9.33403 41.4904C9.20263 41.4911 9.07683 41.5434 8.98392 41.636C8.89101 41.7285 8.83848 41.8537 8.83772 41.9845C9.19609 44.7559 9.63016 47.5172 10.063 50.278C10.5691 53.5035 11.0697 56.7302 11.5647 59.958C11.5978 60.1746 11.5647 59.8551 11.5709 60.0101C11.5726 60.0494 11.5759 60.0886 11.5772 60.1279C11.5807 60.2279 11.5794 60.328 11.5772 60.4278C11.5703 60.6996 11.5519 60.9712 11.531 61.2423C11.469 62.036 11.3809 62.8276 11.2885 63.6182C11.049 65.6666 10.77 67.7065 10.4935 69.7351C10.2474 71.5396 9.98957 73.343 9.77306 75.1513C9.75486 75.3035 9.73728 75.4557 9.72032 75.6079C9.68806 75.8961 9.97593 76.0709 10.2166 76.102C12.6285 76.4235 15.0588 76.5898 17.4922 76.5999C18.131 76.5999 18.132 75.6116 17.4922 75.6116H17.4909Z" fill="#281B19"/>
<path d="M40.2084 41.4649C39.8591 44.1984 39.4257 46.9208 38.9976 49.6438C38.4903 52.8709 37.9727 56.0962 37.4892 59.3268C37.4 59.901 37.3765 60.4834 37.4193 61.0628C37.4741 61.839 37.5593 62.6131 37.6482 63.386C37.8908 65.4957 38.1791 67.6003 38.4655 69.7044C38.7176 71.5573 38.9653 73.2771 39.1872 75.1282C39.2056 75.2818 39.2233 75.4353 39.2406 75.5888L39.605 75.1124C38.1016 75.4535 36.5761 75.6898 35.0397 75.8196C33.2666 76.0084 31.4828 76.1525 29.7002 76.1902C28.6774 76.2107 27.6078 76.2219 26.7316 75.6213C26.6177 75.5564 26.4828 75.5386 26.3558 75.5717C26.2288 75.6049 26.12 75.6863 26.0527 75.7986C25.9888 75.9123 25.9717 76.0463 26.0049 76.1723C26.0381 76.2984 26.1191 76.4068 26.2308 76.4747C27.1177 77.0827 28.2111 77.191 29.2599 77.1844C30.1012 77.1792 30.9424 77.1393 31.7818 77.0862C33.6798 76.9663 35.5757 76.7786 37.4582 76.508C38.2688 76.402 39.0734 76.2545 39.8688 76.066C39.9734 76.0369 40.0656 75.9746 40.1313 75.8885C40.1971 75.8025 40.2329 75.6975 40.2332 75.5894C40.0384 73.8441 39.7859 72.1044 39.5485 70.3644C39.2633 68.2745 38.9771 66.1949 38.7238 64.0905C38.5631 62.7554 38.3346 61.3764 38.384 60.0274C38.3898 59.8639 38.3669 60.1137 38.384 60.0068C38.4167 59.8063 38.444 59.6049 38.4742 59.4042C38.535 58.9994 38.5962 58.5945 38.6578 58.1895C38.7819 57.3739 38.9078 56.5586 39.0356 55.7436C39.2875 54.1292 39.5417 52.5151 39.7981 50.9014C40.2479 48.0495 40.7012 45.1971 41.0867 42.3366C41.1258 42.0463 41.1639 41.7559 41.201 41.4655C41.2004 41.3346 41.1479 41.2093 41.0549 41.1168C40.962 41.0243 40.8361 40.972 40.7047 40.9714C40.5741 40.9745 40.4497 41.0276 40.3573 41.1196C40.2649 41.2116 40.2116 41.3354 40.2084 41.4655V41.4649Z" fill="#281B19"/>
<path d="M41.1166 39.6467C41.2029 39.7023 41.0364 39.5643 41.1129 39.6426C41.1286 39.6586 41.1462 39.6722 41.1611 39.6891C41.1818 39.7118 41.2012 39.734 41.2211 39.7566C41.2705 39.8137 41.1561 39.6576 41.2267 39.7667C41.3169 39.9043 41.3989 40.0471 41.4721 40.1943C41.6328 40.5346 41.7716 40.8846 41.8878 41.2423C42.1643 42.0463 42.3872 42.8669 42.6502 43.675C43.0121 44.7868 43.4443 45.8813 43.8304 46.9863C44.2291 48.1283 44.6589 49.2568 45.0878 50.3879C45.4377 51.3109 45.826 52.4986 46.731 53.0321C47.2819 53.3568 47.7819 52.5029 47.232 52.1787C47.0959 52.0908 46.9768 51.9792 46.8805 51.8493C46.7578 51.6795 46.6493 51.5 46.5558 51.3127C46.3579 50.9175 46.1839 50.5109 46.0345 50.0951C45.5979 48.9422 45.1614 47.7919 44.7552 46.628C44.3749 45.5383 43.946 44.4607 43.5922 43.3625C43.3337 42.5596 43.111 41.7461 42.8355 40.9487C42.5857 40.2261 42.3034 39.2355 41.6187 38.7933C41.0811 38.4462 40.5831 39.3014 41.1177 39.6467H41.1166Z" fill="#281B19"/>
<path d="M45.7627 55.8523C46.7448 54.8193 47.686 53.7461 48.6426 52.6903C49.7562 51.4618 50.8841 50.2473 51.9834 49.005C52.5848 48.3255 53.1781 47.6381 53.8016 46.9791H53.0997C53.6742 47.6482 54.3343 48.2512 54.9662 48.8652C55.7694 49.6459 56.5793 50.4202 57.3665 51.2174C57.6749 51.5297 57.9869 51.8433 58.2649 52.1828V51.4838C57.5659 52.3747 56.7896 53.2116 56.0422 54.0617C54.8875 55.3756 53.7273 56.685 52.5618 57.9898C51.6532 59.0083 50.7459 60.028 49.8195 61.0307C49.0986 61.811 48.315 62.5808 47.2316 62.7926C46.2084 62.9659 45.1565 62.7744 44.261 62.252C43.1811 61.6185 42.2991 60.5804 41.5497 59.599C40.66 58.4001 39.8836 57.1218 39.2304 55.7804C38.944 55.2118 38.0875 55.7116 38.3733 56.2791C38.9712 57.4997 39.6675 58.6702 40.4551 59.7791C41.1795 60.827 42.043 61.7726 43.0219 62.5902C43.894 63.2957 44.9606 63.7213 46.0808 63.8107C46.7031 63.8761 47.3323 63.8154 47.9304 63.6322C48.4879 63.4372 49.005 63.1425 49.4563 62.7628C50.1543 62.198 50.7385 61.498 51.3382 60.8353C51.7785 60.3495 52.2168 59.8623 52.653 59.3735C53.8466 58.0394 55.0354 56.7011 56.2192 55.3588C57.1422 54.312 58.1048 53.283 58.9665 52.1851C59.0549 52.0899 59.104 51.9651 59.104 51.8356C59.104 51.706 59.0549 51.5812 58.9665 51.4861C58.3692 50.7995 57.7348 50.1456 57.0663 49.5275C56.2701 48.7493 55.464 47.9809 54.6753 47.1954C54.3771 46.8986 54.0756 46.6019 53.8014 46.2826C53.7078 46.1908 53.5817 46.1394 53.4504 46.1394C53.3191 46.1394 53.193 46.1908 53.0995 46.2826C51.8608 47.592 50.7066 48.9796 49.4882 50.3082C48.4881 51.3982 47.4914 52.4911 46.4979 53.5869C46.0223 54.1121 45.5491 54.6408 45.0607 55.1547C44.6216 55.6163 45.3223 56.3165 45.7625 55.8535L45.7627 55.8523Z" fill="#281B19"/>
<path d="M10.8602 54.3989C10.4594 55.2245 10.0744 56.0579 9.72777 56.908C9.46853 57.4759 9.27757 58.0722 9.15887 58.6846C9.12815 58.8108 9.14689 58.9439 9.21129 59.0568C9.27568 59.1697 9.38088 59.254 9.50546 59.2924C9.63235 59.3263 9.76754 59.3091 9.88178 59.2445C9.99602 59.1799 10.0801 59.0732 10.1159 58.9473C10.2295 58.3571 10.4118 57.7821 10.6592 57.234C10.9791 56.4413 11.3441 55.6666 11.7174 54.8978C11.7804 54.7839 11.7971 54.6502 11.764 54.5243C11.7308 54.3985 11.6504 54.2901 11.5393 54.2217C11.4254 54.1567 11.2903 54.1389 11.1633 54.172C11.0363 54.2052 10.9275 54.2866 10.8602 54.3989Z" fill="#281B19"/>
<path d="M36.9048 47.5967H31.7295C31.7295 47.9702 31.7378 48.9556 31.7378 49.4056C32.6016 49.4056 36.2548 49.4139 36.9048 49.4139C36.9048 48.7915 36.8984 47.671 36.9048 47.5967Z" fill="white"/>
<path d="M36.9048 47.1849H31.7295C31.6203 47.1865 31.516 47.2304 31.4388 47.3073C31.3615 47.3841 31.3175 47.488 31.3159 47.5967C31.3159 48.1997 31.3238 48.8026 31.3242 49.4056C31.3258 49.5143 31.3699 49.6181 31.4471 49.695C31.5243 49.7719 31.6286 49.8158 31.7378 49.8174C33.4602 49.8174 35.1824 49.8254 36.9048 49.8256C37.014 49.824 37.1183 49.7801 37.1955 49.7033C37.2727 49.6264 37.3168 49.5226 37.3184 49.4139C37.3184 48.8106 37.2847 48.1991 37.3184 47.5967C37.348 47.0672 36.5208 47.0688 36.4912 47.5967C36.4575 48.1991 36.4912 48.8114 36.4912 49.4139L36.9048 49.0021C35.1824 49.0021 33.4602 48.9938 31.7378 48.9938L32.1514 49.4056C32.1514 48.8026 32.1435 48.1997 32.1431 47.5967L31.7295 48.0085H36.9048C37.4371 48.0085 37.4379 47.1849 36.9048 47.1849Z" fill="#281B19"/>
<path d="M8.47789 58.6208C8.99502 59.0851 9.54296 59.5141 10.118 59.9051C11.0453 60.5914 11.989 61.2552 12.949 61.8966C14.4518 62.896 16.0212 63.7951 17.5573 64.7424C18.2468 65.1675 18.9635 65.5768 19.6104 66.0654L19.4203 65.6003C19.4032 65.6567 19.3837 65.7119 19.3631 65.767C19.3504 65.8002 19.3372 65.8329 19.324 65.8659C19.3172 65.8864 19.3088 65.9063 19.2987 65.9254C19.2191 66.1049 19.1359 66.2827 19.0491 66.4588C18.82 66.9256 18.5756 67.3853 18.3253 67.8413C17.7761 68.846 17.2026 69.8396 16.5912 70.8083C16.46 71.0161 16.3271 71.2226 16.1889 71.426C16.1335 71.5073 16.0775 71.5882 16.0198 71.6679C15.9952 71.7021 15.9699 71.7356 15.9449 71.7696C15.8864 71.8485 15.9863 71.7181 15.9182 71.8027L16.2106 71.6823C16.3347 71.6982 16.276 71.694 16.2092 71.6687C16.1722 71.6547 16.015 71.593 16.1058 71.6317C15.9546 71.5678 15.8064 71.4968 15.6589 71.4258C15.2286 71.2166 14.8048 70.9934 14.3828 70.7688C13.5142 70.3054 12.6526 69.828 11.7978 69.3365C9.67111 68.1098 7.60376 66.7742 5.54923 65.4325C4.37049 64.6633 3.14542 63.8795 2.27626 62.7527C2.21855 62.661 2.1279 62.5947 2.02277 62.5672C1.91765 62.5397 1.80595 62.5532 1.71046 62.6049C1.61627 62.6604 1.54789 62.7507 1.52013 62.8562C1.49237 62.9616 1.50748 63.0737 1.56219 63.1682C2.79346 64.7648 4.59114 65.8008 6.26496 66.8782C7.96896 67.9752 9.68 69.0696 11.4374 70.0803C12.7729 70.8487 14.123 71.6323 15.5268 72.2718C15.7189 72.3787 15.9266 72.4552 16.1424 72.4982C16.4911 72.5363 16.6745 72.1727 16.8455 71.924C17.256 71.3302 17.6286 70.7093 17.9959 70.0886C18.4716 69.2831 18.9331 68.468 19.3697 67.6406C19.7077 67.0615 19.9907 66.4524 20.2151 65.821C20.2371 65.7334 20.2306 65.6411 20.1964 65.5575C20.1622 65.4739 20.1022 65.4033 20.025 65.3559C19.476 64.9415 18.8723 64.5908 18.2879 64.2287C17.487 63.7319 16.6811 63.2427 15.875 62.7543C14.1774 61.7249 12.522 60.649 10.9181 59.4791C10.2665 59.0429 9.64654 58.5616 9.06292 58.0386C8.6822 57.668 8.09676 58.2492 8.47789 58.6208Z" fill="#281B19"/>
<path d="M18.0377 33.9838C16.3042 34.7005 14.601 35.4828 12.9282 36.3309C12.1423 36.7299 11.3623 37.1411 10.5854 37.5578C9.77264 37.9939 8.88611 38.3671 8.15405 38.931C8.06163 39.0241 8.00979 39.1496 8.00979 39.2804C8.00979 39.4113 8.06163 39.5368 8.15405 39.6298C8.24881 39.7197 8.37469 39.7699 8.5056 39.7699C8.63651 39.7699 8.76239 39.7197 8.85715 39.6298C9.20992 39.3866 9.58483 39.1769 9.97696 39.0035C10.3781 38.8009 10.7706 38.5808 11.1667 38.3686C11.9173 37.9665 12.6707 37.5695 13.4303 37.1841C15.0255 36.3744 16.6488 35.6194 18.3026 34.9361C18.4272 34.8977 18.5325 34.8135 18.5969 34.7006C18.6613 34.5876 18.6801 34.4545 18.6494 34.3283C18.6137 34.2023 18.5296 34.0955 18.4153 34.0309C18.3009 33.9663 18.1656 33.9492 18.0387 33.9832L18.0377 33.9838Z" fill="#281B19"/>
<path d="M31.7903 34.9945C33.3915 35.6602 34.9638 36.3927 36.5098 37.1769C37.2464 37.5505 37.9782 37.933 38.7052 38.3243C39.0826 38.5263 39.4561 38.7361 39.8374 38.9319C40.2491 39.1083 40.6436 39.3219 41.0161 39.5701C41.1112 39.6589 41.2367 39.7083 41.3671 39.7083C41.4974 39.7083 41.6229 39.6589 41.718 39.5701C41.8106 39.477 41.8626 39.3512 41.8626 39.2201C41.8626 39.089 41.8106 38.9632 41.718 38.8701C41.3389 38.5931 40.9326 38.3553 40.5051 38.1602C40.0915 37.9574 39.6914 37.7297 39.2863 37.5127C38.5319 37.1085 37.7746 36.7098 37.0115 36.3227C35.3883 35.4991 33.7361 34.7385 32.0548 34.0407C31.9279 34.0066 31.7926 34.0238 31.6783 34.0884C31.564 34.153 31.4799 34.26 31.4443 34.3859C31.4127 34.5122 31.4311 34.6457 31.4956 34.7588C31.5601 34.8719 31.6659 34.956 31.7909 34.9937L31.7903 34.9945Z" fill="#281B19"/>
<path d="M24.7487 50.9644C23.6299 48.5592 21.5512 43.7306 20.0337 39.404C19.0919 36.7178 18.6775 34.8766 18.3247 33.6944C17.6748 33.7259 14.693 36.5179 14.2424 37.6826C14.2128 37.7591 15.569 38.8701 16.1829 39.4184C15.8444 39.8096 14.7265 41.1365 14.7064 41.2693C14.6954 41.3422 18.4418 45.9408 21.2842 49.4482L24.1692 52.4826L24.7487 50.9644Z" fill="black"/>
<path d="M21.6358 49.0989C20.2055 47.334 18.7751 45.5694 17.3443 43.8049C16.8046 43.1368 16.2665 42.4673 15.73 41.7965C15.6447 41.6891 15.5594 41.5813 15.4742 41.4733L15.3669 41.3368C15.3541 41.3203 15.3413 41.3037 15.3282 41.2872C15.2703 41.2133 15.3998 41.3815 15.3196 41.2759C15.2782 41.2209 15.2379 41.1643 15.1955 41.1111C15.0557 40.9368 15.2598 41.016 15.1887 41.392C15.1605 41.5406 15.1632 41.4585 15.2195 41.3767C15.2648 41.3109 15.3136 41.2472 15.3622 41.1838C15.316 41.2439 15.3682 41.176 15.3752 41.1671C15.4201 41.1099 15.4653 41.053 15.5108 40.9963C15.5852 40.9038 15.6599 40.8117 15.735 40.72C15.9979 40.3996 16.2646 40.0823 16.5351 39.7682C16.6263 39.6745 16.6774 39.5492 16.6774 39.4188C16.6774 39.2883 16.6263 39.163 16.5351 39.0694C16.0462 38.6344 15.5402 38.2189 15.0497 37.7859C14.9575 37.7036 14.8654 37.6231 14.7761 37.5388C14.7418 37.5063 14.7089 37.4726 14.6748 37.44C14.6076 37.3762 14.6473 37.3811 14.681 37.4577C14.8216 37.7793 14.627 38.006 14.743 37.7775C14.7637 37.7375 14.7844 37.6984 14.8069 37.6597C14.8689 37.552 14.9364 37.4483 15.0071 37.3466C15.3376 36.8942 15.7031 36.4681 16.1002 36.0723C16.5359 35.6209 16.9964 35.1939 17.4795 34.7932C17.6677 34.6322 17.8668 34.4843 18.0753 34.3505C18.162 34.2949 18.2513 34.2476 18.3413 34.1976C18.4484 34.1389 18.2817 34.2198 18.3435 34.1976C18.3955 34.178 18.5139 34.1747 18.327 34.1899L17.8476 33.8265C18.1113 34.7139 18.3349 35.6128 18.5907 36.503C18.9672 37.8121 19.3955 39.104 19.8587 40.385C20.7953 42.9756 21.8301 45.5321 22.9179 48.0622C23.3728 49.119 23.8361 50.1719 24.3208 51.2151C24.388 51.3275 24.4969 51.409 24.6239 51.4421C24.751 51.4753 24.886 51.4574 24.9999 51.3924C25.1113 51.3242 25.192 51.2158 25.2252 51.0899C25.2584 50.964 25.2414 50.8301 25.178 50.7163C24.2226 48.6601 23.3352 46.5714 22.4861 44.4697C21.443 41.888 20.4417 39.2798 19.6548 36.608C19.3573 35.5974 19.1048 34.5741 18.8047 33.5643C18.7749 33.4605 18.7122 33.3691 18.6259 33.3038C18.5397 33.2384 18.4346 33.2025 18.3262 33.2015C17.8352 33.2414 17.4128 33.5955 17.0397 33.885C16.5068 34.3041 16.0018 34.7572 15.5278 35.2414C15.0351 35.7264 14.5832 36.2508 14.1766 36.8094C14.0404 36.9957 13.9234 37.1951 13.8271 37.4046C13.6749 37.7499 13.8097 37.986 14.0602 38.2247C14.627 38.7651 15.2484 39.2483 15.8334 39.7688V39.07C15.2971 39.6481 14.7997 40.2608 14.3445 40.9042C14.0279 41.3883 14.4409 41.7506 14.7281 42.1165C15.9015 43.6108 17.1075 45.0812 18.3043 46.5562C19.1807 47.6365 20.0572 48.717 20.9339 49.7976C21.0274 49.8895 21.1534 49.9411 21.2848 49.9411C21.4162 49.9411 21.5423 49.8895 21.6358 49.7976C21.7261 49.7035 21.7765 49.5784 21.7765 49.4482C21.7765 49.3181 21.7261 49.1929 21.6358 49.0989Z" fill="#281B19"/>
<path d="M14.3352 48.0898C15.9546 48.4929 29.845 54.0502 32.6793 55.3266C32.096 57.4621 24.1922 77.3637 23.6524 78.5057C21.588 77.8057 8.32238 72.3934 5.48823 71.1172C5.77505 70.0225 13.7944 49.2318 14.3352 48.0898Z" fill="white"/>
<path d="M14.2033 48.5662C14.9435 48.7785 15.6716 49.031 16.3841 49.3224C17.6963 49.811 19.0018 50.3171 20.3056 50.827C23.3159 52.0039 26.3161 53.2062 29.3063 54.4339C29.6433 54.5726 29.9802 54.7118 30.3169 54.8517L30.7673 55.0394L30.9069 55.0979L31.1182 55.1871C31.5566 55.3724 31.9948 55.5576 32.4289 55.7532L32.2014 55.1951C31.9214 56.2136 31.5072 57.2058 31.1366 58.1934C30.4567 60.0052 29.7585 61.8112 29.0569 63.6151C28.2451 65.7014 27.4271 67.7858 26.6028 69.8683C25.8888 71.673 25.1702 73.4761 24.4469 75.2775C24.1938 75.9066 23.9392 76.5353 23.683 77.1634C23.5933 77.383 23.5029 77.6026 23.4117 77.8222C23.3939 77.8648 23.3764 77.9074 23.3584 77.9501C23.3387 77.997 23.2678 78.1559 23.3518 77.9663C23.3259 78.0248 23.3017 78.0841 23.2761 78.1426C23.2591 78.1809 23.2424 78.2191 23.2246 78.257L23.785 78.0305C21.6769 77.3135 19.6182 76.4247 17.5548 75.5914C14.6289 74.411 11.7099 73.2138 8.7978 71.9998C7.85191 71.6041 6.76271 71.1522 5.73928 70.6916L5.96675 71.2497C6.20167 70.3644 6.58714 69.5014 6.90706 68.6457C7.57322 66.8661 8.2471 65.0893 8.92871 63.3156C9.7348 61.2076 10.545 59.1012 11.3594 56.9964C12.0778 55.1382 12.7999 53.2818 13.5256 51.4272C13.7828 50.7717 14.0418 50.1167 14.3023 49.4624C14.3921 49.2376 14.4825 49.013 14.5736 48.7886C14.6082 48.7039 14.6427 48.6193 14.677 48.5349C14.6908 48.5025 14.7046 48.4702 14.7184 48.438C14.7449 48.3735 14.6564 48.5773 14.7097 48.4585C14.7273 48.4188 14.7445 48.3787 14.7629 48.3391C14.8257 48.2252 14.8423 48.0915 14.8092 47.9657C14.776 47.84 14.6957 47.7316 14.5848 47.663C14.4709 47.598 14.3359 47.5802 14.2089 47.6134C14.0819 47.6466 13.973 47.7281 13.9059 47.8405C13.4923 48.7198 13.1651 49.6477 12.8099 50.5509C12.1083 52.3323 11.4128 54.116 10.7235 55.9023C9.90499 58.0152 9.09042 60.1299 8.27978 62.2462C7.5684 64.1033 6.86177 65.962 6.1599 67.8224C5.78002 68.8327 5.37221 69.8401 5.04465 70.8695C5.03245 70.908 5.02004 70.9465 5.0097 70.9856C4.98156 71.0906 4.98854 71.2018 5.02959 71.3025C5.07063 71.4032 5.1435 71.4878 5.23717 71.5435C7.5107 72.5664 9.82931 73.4959 12.1351 74.4436C15.0044 75.6229 17.8774 76.7926 20.7635 77.9305C21.6777 78.2912 22.5905 78.6657 23.5213 78.9821C23.6268 79.0112 23.7388 79.0047 23.8402 78.9637C23.9415 78.9228 24.0265 78.8496 24.0817 78.7557C24.4852 77.8986 24.8153 77.0009 25.1695 76.1232C25.8681 74.3938 26.5601 72.6612 27.2457 70.9255C28.0689 68.8481 28.8867 66.7687 29.6992 64.6872C30.4312 62.8101 31.1554 60.9297 31.8716 59.0459C32.2976 57.9191 32.7463 56.7923 33.1043 55.6414C33.1233 55.5797 33.1417 55.5189 33.1589 55.4574C33.1871 55.3524 33.1802 55.2411 33.1391 55.1403C33.0981 55.0396 33.0252 54.955 32.9314 54.8992C30.6101 53.8552 28.2322 52.9262 25.871 51.9767C22.952 50.8032 20.0281 49.6387 17.0821 48.5312C16.2287 48.1764 15.3558 47.8698 14.4678 47.6128C13.8476 47.4573 13.5833 48.4102 14.2033 48.5662Z" fill="#281B19"/>
<path d="M29.5623 68.3667C29.323 67.9056 27.7373 67.5951 26.9531 67.3719C25.7808 67.0384 24.8459 66.3013 23.603 66.4598C22.44 66.6077 21.381 66.7804 20.1865 66.9554L19.44 66.5976C18.8322 67.8475 17.677 69.8751 16.873 71.1357L18.3919 72.0406C19.3107 73.3249 21.2714 75.0635 22.8381 75.5711C23.2763 75.7407 24.5721 75.7463 25.1594 75.3833C25.3839 75.2653 25.5626 74.8258 25.5523 74.4315C25.7502 74.4515 25.95 74.4251 26.1358 74.3545C26.3217 74.2839 26.4884 74.171 26.6226 74.0249C26.7568 73.8788 26.8549 73.7034 26.9089 73.5128C26.963 73.3223 26.9715 73.1217 26.9339 72.9273C27.9764 73.3957 28.7607 72.07 28.6067 71.3197C28.524 70.6706 27.6014 70.1783 26.8489 69.7604C27.4223 69.9387 29.8377 70.1223 29.5623 68.3667Z" fill="white"/>
<path d="M19.6991 66.0328C19.7447 65.9273 19.7848 65.8195 19.8192 65.7098C19.1004 65.1626 15.4883 63.0047 14.4076 62.3426C12.2091 60.9955 9.17169 58.7274 8.77051 58.3297L5.19168 65.6882C6.63616 66.6338 9.31976 68.3556 11.3081 69.5261C12.4041 70.1709 15.7896 72.0517 16.2125 72.0939C16.9092 71.2448 19.1037 67.4499 19.6991 66.0328Z" fill="black"/>
<path d="M8.41936 58.6791C8.94182 59.1479 9.49535 59.5813 10.0762 59.9761C11.0036 60.6624 11.9473 61.3262 12.9073 61.9675C14.4101 62.967 15.9794 63.8661 17.5155 64.8134C18.205 65.2385 18.9218 65.6476 19.5686 66.1362L19.3411 65.5783C19.3242 65.6345 19.3047 65.6898 19.2839 65.7448C19.2712 65.778 19.2576 65.8107 19.2448 65.8438C19.2034 65.9497 19.2797 65.7697 19.228 65.8836C19.1467 66.0625 19.0649 66.2408 18.9782 66.417C18.7491 66.8838 18.5046 67.3435 18.2544 67.7995C17.7054 68.8043 17.1319 69.7979 16.5204 70.7665C16.3893 70.9743 16.2561 71.1808 16.118 71.3842C16.0628 71.4655 16.0067 71.5464 15.949 71.6261C15.9242 71.6603 15.8988 71.6936 15.874 71.7278C15.8082 71.8186 15.9385 71.6483 15.8603 71.7443L16.2119 71.6002C16.4303 71.6284 16.2497 71.5958 16.1889 71.5742C16.155 71.5621 16.1217 71.5479 16.0882 71.5349C16.2063 71.5808 16.0864 71.5335 16.0394 71.5125C15.814 71.4116 15.5929 71.3018 15.3727 71.1907C14.8028 70.9024 14.2403 70.6004 13.6801 70.2944C12.5475 69.6758 11.4303 69.0314 10.3285 68.3612C8.89645 67.4866 7.48009 66.5863 6.07263 65.6732C4.7907 64.8414 3.45231 64.0298 2.46196 62.8468C1.92511 62.2511 1.58806 61.5037 1.49767 60.7085C1.44328 59.9356 1.6447 59.1835 1.8699 58.451C2.20905 57.3493 2.58025 56.2558 2.93635 55.1593C3.75237 52.6465 4.56653 50.1324 5.41192 47.6292C5.79801 46.4862 6.20457 45.3501 6.61134 44.214C6.89486 43.4216 7.18417 42.6304 7.5047 41.8519C7.73379 41.2536 8.01811 40.6776 8.35402 40.1316C8.3869 40.0813 8.42143 40.0323 8.45555 39.9831C8.50208 39.916 8.41647 40.0193 8.5025 39.9244C8.56118 39.8569 8.62552 39.7944 8.69482 39.7377C8.78723 39.6447 8.83907 39.5191 8.83907 39.3883C8.83907 39.2575 8.78723 39.1319 8.69482 39.0389C8.60024 38.9491 8.47457 38.899 8.34388 38.899C8.2132 38.899 8.08753 38.9491 7.99295 39.0389C7.46293 39.4563 7.15459 40.2044 6.88617 40.7994C6.455 41.7552 6.09021 42.7399 5.73514 43.7257C5.21815 45.1623 4.70964 46.6023 4.22552 48.0505C3.24407 50.9856 2.2928 53.9305 1.33823 56.8743C1.01066 57.8831 0.636357 58.8907 0.522412 59.9523C0.418447 60.9825 0.678331 62.0167 1.25737 62.8768C2.38048 64.5857 4.21973 65.6534 5.90347 66.7411C8.9103 68.6838 11.9556 70.6267 15.1808 72.197C15.4283 72.3257 15.6839 72.4384 15.9459 72.5345C16.0512 72.5751 16.1645 72.5903 16.2768 72.5789C16.5165 72.5458 16.6265 72.3669 16.758 72.19C17.1371 71.6801 17.4667 71.1308 17.7949 70.5878C18.6192 69.271 19.3654 67.9073 20.0298 66.5037C20.1332 66.2888 20.2225 66.0674 20.2972 65.841C20.3236 65.736 20.3158 65.6253 20.2749 65.525C20.234 65.4247 20.1621 65.34 20.0697 65.283C19.5206 64.8686 18.917 64.518 18.3326 64.1556C17.5317 63.6588 16.7258 63.1698 15.9197 62.6815C14.2221 61.652 12.5667 60.5759 10.9628 59.4062C10.3146 58.9765 9.69898 58.4998 9.12103 57.9801C8.66421 57.5348 7.96172 58.2329 8.41792 58.6789L8.41936 58.6791Z" fill="#281B19"/>
<path d="M20.3191 67.432C21.3495 67.2805 22.3779 67.1139 23.4107 66.9791C23.8574 66.9085 24.3143 66.9366 24.7489 67.0614C25.1798 67.2056 25.6031 67.3716 26.017 67.5589C26.7459 67.8601 27.5121 68.0075 28.2642 68.2358C28.5545 68.3082 28.8326 68.4224 29.0897 68.5747C29.1739 68.6295 29.1121 68.5868 29.0951 68.5765C29.1163 68.592 29.1352 68.6103 29.1512 68.6311C29.1512 68.6292 29.0684 68.5119 29.0825 68.5063C29.0825 68.5063 29.0879 68.6208 29.0877 68.6379C29.0957 68.755 29.0656 68.8716 29.0019 68.9704C28.9829 69.0064 28.9565 69.038 28.9245 69.0633C28.8896 69.1104 28.8415 69.1462 28.7862 69.1662C28.6716 69.2325 28.547 69.2799 28.4172 69.3064C28.1134 69.3746 27.8008 69.3954 27.4906 69.3682C26.8524 69.3313 26.8545 70.3196 27.4906 70.3564C28.2071 70.3976 29.0399 70.3025 29.5904 69.7974C29.8923 69.5111 30.0679 69.1172 30.0786 68.7021C30.1008 68.4929 30.0578 68.282 29.9556 68.0979C29.8535 67.9138 29.6969 67.7654 29.5073 67.6727C28.7895 67.2609 27.9228 67.1316 27.1351 66.9109C26.1121 66.625 25.202 66.0162 24.1188 65.9505C23.4692 65.911 22.7889 66.074 22.148 66.1673C21.4501 66.2702 20.7531 66.3779 20.0552 66.4804C19.9288 66.516 19.8215 66.5998 19.7566 66.7135C19.6918 66.8273 19.6745 66.9619 19.7086 67.0882C19.7464 67.2128 19.8309 67.3181 19.9445 67.3824C20.0581 67.4466 20.1923 67.4649 20.3191 67.4335V67.432Z" fill="#281B19"/>
<path d="M26.4616 70.1098C26.8913 70.3259 27.3036 70.575 27.6947 70.8547C27.8332 70.9561 27.9534 71.0803 28.0502 71.2217C28.1189 71.3202 28.1471 71.4411 28.129 71.5596C28.1055 71.8326 27.9938 72.0907 27.8107 72.2952C27.7288 72.3947 27.6206 72.4694 27.4982 72.5108C27.3517 72.5485 27.1962 72.5269 27.0656 72.4509C26.683 72.2911 26.3933 72.7362 26.4549 73.0586C26.5302 73.4511 26.1379 74.0341 25.684 73.9551C25.6104 73.9364 25.5335 73.9345 25.4591 73.9496C25.3847 73.9647 25.3147 73.9963 25.2543 74.0421C25.1938 74.088 25.1446 74.1468 25.1102 74.2142C25.0759 74.2816 25.0572 74.3559 25.0558 74.4315C25.0663 74.6035 25.0241 74.7747 24.9348 74.9223C24.8759 74.982 24.8018 75.0247 24.7205 75.0458C24.4256 75.1399 24.1177 75.1876 23.8079 75.1875C23.5508 75.2049 23.2926 75.1816 23.0428 75.1185C22.751 75.028 22.4699 74.9062 22.2044 74.7553C20.872 74.0258 19.7166 73.0141 18.8196 71.7916C18.7507 71.6812 18.6419 71.6013 18.5156 71.5683C18.3893 71.5353 18.2551 71.5518 18.1407 71.6144C18.0278 71.6812 17.9458 71.7895 17.9125 71.916C17.8792 72.0425 17.8972 72.1769 17.9626 72.2903C18.8166 73.4512 19.8736 74.4495 21.083 75.2373C21.6124 75.6092 22.198 75.8947 22.8176 76.0833C23.4192 76.218 24.0432 76.2191 24.6453 76.0866C24.995 76.0378 25.3243 75.8935 25.5965 75.6697C25.9032 75.3314 26.065 74.8872 26.0476 74.4319L25.4193 74.9083C25.6965 74.9549 25.9809 74.9327 26.2474 74.8436C26.5139 74.7546 26.7541 74.6014 26.9469 74.3977C27.1507 74.1894 27.2996 73.9343 27.3807 73.655C27.4617 73.3756 27.4722 73.0807 27.4114 72.7963L26.802 73.4037C27.9555 73.8853 28.9785 72.7871 29.1077 71.7155C29.263 70.4254 27.9056 69.7867 26.9626 69.2574C26.4055 68.9447 25.9047 69.7981 26.4618 70.1108L26.4616 70.1098Z" fill="#281B19"/>
<path d="M28.5163 34.6647C27.8403 35.0634 27.0929 35.3277 26.3158 35.4429C24.1984 35.7847 21.5992 35.6639 20.5668 35.6114C19.1889 35.5412 18.6281 34.8319 18.7408 34.0742C19.0194 33.1889 19.3364 32.4937 19.6116 31.6948C19.6503 31.5621 19.7333 31.4465 19.847 31.3672C19.9606 31.2878 20.0981 31.2495 20.2366 31.2586C22.1966 31.4933 24.1753 31.5333 26.1433 31.3782C27.1403 31.2888 28.1718 30.8361 29.0041 30.9625C29.5466 31.0448 29.5697 31.6314 29.7614 32.5589C29.9246 33.3565 29.4109 34.1136 28.5163 34.6647Z" fill="#DAA412"/>
<path d="M28.2659 34.2383C26.7259 35.1689 24.7418 35.1736 22.9938 35.1813C22.2739 35.1846 21.5541 35.1648 20.835 35.1306C20.5003 35.1315 20.1674 35.0817 19.8476 34.9832C19.7355 34.9408 19.6281 34.8869 19.527 34.8226C19.4778 34.7838 19.4317 34.7413 19.3891 34.6954C19.3507 34.662 19.3207 34.6202 19.3014 34.5733C19.285 34.5453 19.27 34.5164 19.2568 34.4868C19.2665 34.5095 19.2808 34.5585 19.2551 34.4703C19.2458 34.4378 19.2181 34.2836 19.2268 34.3674C19.2183 34.2163 19.2467 34.0653 19.3095 33.9274C19.4631 33.4712 19.6404 33.0236 19.8139 32.5744C19.8933 32.3685 19.9712 32.1626 20.0451 31.954C20.0955 31.8118 20.0995 31.7687 20.2359 31.7531C20.4724 31.7533 20.7083 31.7759 20.9405 31.8206C21.2041 31.8442 21.4679 31.8657 21.7319 31.8851C22.7353 31.9614 23.7421 31.9855 24.748 31.9573C25.2731 31.9406 25.8027 31.9172 26.3243 31.8527C26.8276 31.791 27.3169 31.665 27.8109 31.5565C28.0475 31.4988 28.2884 31.4598 28.5312 31.4399C28.6373 31.4316 28.7439 31.4316 28.8501 31.4399C29.1243 31.4667 28.9357 31.4506 28.921 31.4482C29.031 31.4657 28.8844 31.4119 28.9719 31.4642C28.8794 31.4091 29.0422 31.5447 28.9783 31.469C29.0471 31.5513 29.0174 31.5188 29.0529 31.6275C29.1098 31.8172 29.1547 32.0103 29.1876 32.2056C29.2583 32.5713 29.3615 32.9108 29.2082 33.2682C28.9983 33.6777 28.67 34.0157 28.2659 34.2383C27.7282 34.5776 28.2247 35.4322 28.7669 35.0915C29.5859 34.5753 30.3828 33.7378 30.2786 32.6952C30.2357 32.2436 30.1456 31.7978 30.0098 31.3648C29.963 31.1723 29.8696 30.9942 29.7376 30.846C29.6057 30.6979 29.4392 30.5842 29.2529 30.5149C28.7702 30.3627 28.2042 30.4684 27.7226 30.566C27.2017 30.6986 26.6744 30.8048 26.1427 30.884C24.9545 30.9918 23.7599 31.0129 22.5686 30.9473C22.0103 30.9201 21.4519 30.8783 20.8936 30.8276C20.3352 30.777 19.7953 30.6673 19.3784 31.1319C19.2224 31.3362 19.1082 31.569 19.0425 31.8171C18.9424 32.0924 18.8357 32.3652 18.7298 32.6382C18.5452 33.115 18.2621 33.6585 18.2335 34.1728C18.186 35.0069 18.7747 35.6346 19.5208 35.913C20.2504 36.1843 21.1221 36.1384 21.8924 36.1576C23.0144 36.1939 24.1376 36.1644 25.2561 36.0692C26.4825 35.9556 27.6997 35.7367 28.7676 35.0915C29.3121 34.7619 28.8139 33.907 28.2659 34.2383Z" fill="#281B19"/>
<path d="M28.5239 32.7096C28.3566 32.7813 28.2421 32.8649 28.2104 32.9855L27.9499 32.9968C27.1409 33.0119 25.2942 33.2149 24.5584 33.6763C23.5676 34.2966 23.8909 34.9785 24.3142 36.0956C24.5311 36.6682 24.7193 37.2885 25.0512 37.6836L25.0059 37.739C24.9339 37.7739 24.8714 37.8257 24.824 37.89C24.7765 37.9543 24.7454 38.0291 24.7334 38.108C24.7215 38.1869 24.7289 38.2675 24.7552 38.3428C24.7814 38.4182 24.8257 38.4861 24.8841 38.5407C25.6906 39.2613 27.0311 39.8081 27.5018 40.0735C27.6203 40.1409 27.7587 40.1654 27.8933 40.1429C28.028 40.1204 28.1507 40.0522 28.2406 39.95C28.5148 39.6075 28.7506 39.2362 28.9437 38.8427C29.4266 37.8376 29.8181 37.131 30.2315 36.3081L30.4157 35.9412L30.7985 36.2315C31.6013 36.7017 32.4289 37.1288 33.2776 37.5108C33.4069 37.5583 33.5468 37.57 33.6822 37.5446C33.8177 37.5192 33.9437 37.4577 34.0469 37.3667C34.778 36.8737 35.4377 36.283 36.0075 35.6114C36.3256 35.2467 35.9908 34.8805 35.5217 34.7567L35.4531 34.7143C35.4661 34.6535 35.4718 34.5912 35.4698 34.529C35.5284 33.3349 35.139 31.3584 34.0928 30.9557C33.0371 30.8033 31.3995 31.841 30.2914 32.394L30.18 32.4805C29.949 32.3312 29.421 32.4272 29.0012 32.5503C28.8393 32.5945 28.6799 32.6477 28.5239 32.7096Z" fill="#DAA412"/>
<path d="M27.9499 32.5027C27.0042 32.5146 26.0639 32.6485 25.1527 32.9009C24.2722 33.1574 23.3406 33.745 23.4138 34.7798C23.4834 35.2798 23.6253 35.7672 23.835 36.2267C23.9868 36.6842 24.1687 37.1313 24.3795 37.565C24.5867 37.9969 24.9513 38.334 25.3993 38.5077C25.932 38.6897 26.5503 38.5265 27.0636 38.3535C27.6857 38.1655 28.277 37.8881 28.8186 37.53C29.2284 37.2317 29.6213 36.9111 29.9955 36.5695C30.4732 36.1454 29.7693 35.4485 29.2936 35.8708C28.707 36.3919 28.1201 36.8872 27.3833 37.1827C26.931 37.3641 26.432 37.5798 25.9386 37.5983C25.8109 37.6037 25.6845 37.571 25.5757 37.5043C25.4668 37.4377 25.3805 37.3401 25.3277 37.2243C25.1451 36.9044 24.9969 36.5662 24.8856 36.2154C24.7367 35.8088 24.5574 35.4075 24.4498 34.9873C24.4108 34.8653 24.394 34.7373 24.4002 34.6093C24.4132 34.504 24.4588 34.4052 24.5307 34.3268C24.755 34.0981 25.0416 33.9397 25.3552 33.8712C26.1988 33.6278 27.0717 33.4996 27.9499 33.4901C28.5876 33.4761 28.5899 32.4879 27.9499 32.5019V32.5027Z" fill="#281B19"/>
<path d="M28.8687 32.0749C28.3724 32.2213 27.6963 32.4272 27.7052 33.0631C27.7275 33.4429 27.7946 33.8188 27.905 34.1829C28.0075 34.6005 28.1553 35.0058 28.3457 35.3917C28.4246 35.5542 28.5294 35.7031 28.6559 35.8325C28.8598 36.0055 29.1158 36.106 29.3834 36.1182C29.6516 36.1364 29.921 36.1134 30.1823 36.0501C30.4773 35.9944 30.7629 35.8969 31.0301 35.7604C31.1319 35.7199 31.2241 35.6587 31.3009 35.5807C31.3776 35.5027 31.4372 35.4097 31.4758 35.3075C31.5115 35.1867 31.5256 35.0606 31.5171 34.935C31.4627 34.2798 31.2994 33.6381 31.0338 33.0362C30.9343 32.7158 30.7717 32.4184 30.5555 32.1614C30.1252 31.7434 29.3768 31.9285 28.8681 32.0753C28.7411 32.1101 28.6333 32.1937 28.5683 32.3077C28.5032 32.4217 28.4864 32.5568 28.5214 32.6832C28.5564 32.8096 28.6403 32.9169 28.7548 32.9816C28.8694 33.0464 29.005 33.0632 29.1319 33.0283C29.2366 32.9981 29.3416 32.9703 29.4479 32.9472C29.4975 32.9365 29.5472 32.9266 29.5972 32.918C29.6094 32.9159 29.712 32.9023 29.6535 32.9087C29.6047 32.9143 29.6977 32.9058 29.7066 32.9052C29.7515 32.9019 29.7966 32.8999 29.8417 32.9005C29.8623 32.9005 29.8841 32.9019 29.9054 32.9025C30.0015 32.9054 29.9078 32.905 29.8901 32.8997C29.9521 32.9182 29.9697 32.9322 29.901 32.8935C29.9393 32.9141 29.7699 32.8101 29.8443 32.8509C29.8561 32.8572 29.8619 32.8733 29.8725 32.8811C29.9151 32.9128 29.796 32.7662 29.839 32.8399C29.8597 32.8764 29.8851 32.9108 29.9062 32.9474C29.9616 33.044 30.0079 33.1449 30.054 33.246C30.0218 33.1636 30.0989 33.3437 30.054 33.246C30.065 33.2733 30.0766 33.3007 30.0875 33.3283C30.1143 33.3952 30.1399 33.4625 30.1643 33.5303C30.2142 33.6669 30.2604 33.8046 30.303 33.9435C30.385 34.2024 30.4511 34.4661 30.5009 34.7331C30.5063 34.7635 30.5111 34.7948 30.516 34.8247C30.5319 34.9202 30.5102 34.7629 30.5119 34.7921C30.5148 34.8438 30.5228 34.8951 30.5247 34.9472C30.5262 34.9869 30.5206 35.0279 30.5231 35.0674C30.527 35.1349 30.547 34.9221 30.5311 35.0036C30.5291 35.0145 30.5171 35.0363 30.5187 35.0466C30.5107 34.996 30.6014 34.8932 30.6174 34.8772C30.6174 34.8772 30.7586 34.7907 30.6703 34.8317C30.6219 34.8541 30.5764 34.885 30.5291 34.9095C30.4968 34.9262 30.4643 34.942 30.4317 34.9579C30.3522 34.9964 30.4823 34.9396 30.4023 34.9721C30.1818 35.0544 29.9519 35.109 29.7178 35.1345C29.8005 35.1238 29.695 35.1345 29.6667 35.137C29.6177 35.1405 29.5687 35.1422 29.5195 35.1413C29.5004 35.1413 29.3793 35.1384 29.4496 35.1413C29.5135 35.1436 29.4576 35.143 29.4421 35.1395C29.4188 35.1339 29.3952 35.1296 29.372 35.1232C29.3489 35.1168 29.3269 35.1065 29.3048 35.1026C29.3114 35.1039 29.3857 35.1477 29.3435 35.1187C29.3013 35.0896 29.4175 35.2025 29.3575 35.1372C29.3401 35.1162 29.3215 35.096 29.3019 35.0769C29.3054 35.0769 29.364 35.1669 29.3402 35.1261C29.3313 35.1104 29.3195 35.096 29.309 35.081C29.2728 35.0261 29.2396 34.9693 29.2095 34.9109C29.1915 34.8764 29.1743 34.8414 29.1576 34.8061C29.1369 34.7639 29.1053 34.6871 29.1429 34.7781C29.0765 34.6176 29.0188 34.4539 28.9661 34.2881C28.8541 33.9332 28.7681 33.5707 28.7088 33.2033C28.6906 33.0901 28.7163 33.2838 28.7088 33.2058C28.7057 33.1725 28.7028 33.1385 28.6989 33.1049C28.6991 33.0921 28.6984 33.0793 28.6968 33.0666C28.6838 33.0199 28.6716 33.1805 28.6944 33.0985C28.6821 33.1426 28.5879 33.2556 28.6577 33.1891C28.6952 33.1539 28.623 33.2173 28.6224 33.2175C28.644 33.2072 28.6647 33.1952 28.6844 33.1817C28.7074 33.1696 28.7307 33.1593 28.7541 33.1482C28.7109 33.1688 28.7059 33.1669 28.7541 33.1508C28.8794 33.1078 29.0056 33.0685 29.1326 33.0312C29.2595 32.9964 29.3673 32.9128 29.4324 32.7988C29.4974 32.6848 29.5142 32.5497 29.4792 32.4233C29.4443 32.297 29.3603 32.1896 29.2458 32.1249C29.1313 32.0601 28.9956 32.0433 28.8687 32.0782V32.0749Z" fill="#281B19"/>
<path d="M27.474 35.6324C27.8277 35.4965 28.1695 35.334 28.5146 35.1794C28.6263 35.1142 28.7079 35.0082 28.7421 34.884C28.7764 34.7555 28.7585 34.6187 28.6921 34.5033C28.6262 34.3926 28.52 34.3114 28.3955 34.2768L28.2636 34.2591C28.1756 34.2591 28.0892 34.2824 28.0132 34.3266C27.778 34.4321 27.5452 34.5424 27.3078 34.6427L27.4263 34.5928C27.3545 34.6229 27.2815 34.6524 27.2096 34.6804C27.0873 34.7193 26.9824 34.7994 26.9128 34.9068C26.8464 35.0223 26.8285 35.1591 26.8628 35.2877C26.8976 35.4116 26.979 35.5174 27.0902 35.5829C27.1472 35.6169 27.2105 35.6388 27.2763 35.6474C27.3421 35.656 27.409 35.651 27.4728 35.6328L27.474 35.6324Z" fill="#281B19"/>
<path d="M30.5404 32.8218C31.2181 32.4813 31.8732 32.0963 32.5681 31.7899C32.884 31.6461 33.215 31.5374 33.5549 31.4661C33.6749 31.4417 33.7975 31.4318 33.9199 31.4366C33.9485 31.4415 33.9776 31.4432 34.0066 31.4418C34.082 31.4224 33.9267 31.3833 33.9567 31.4364C34.0004 31.4726 34.0492 31.5023 34.1015 31.5246C34.2899 31.6921 34.4396 31.8983 34.5401 32.129C34.6693 32.4067 34.7664 32.698 34.8296 32.9975C34.8974 33.2873 34.9419 33.582 34.9628 33.8788C34.9898 34.1478 34.9914 34.4187 34.9673 34.688C34.9456 34.8084 34.9442 34.8418 34.8447 34.8883C34.6296 34.9585 34.4064 35.001 34.1805 35.0147C33.7419 35.101 33.2926 35.1192 32.8485 35.0689C32.7217 35.038 32.5879 35.0566 32.4743 35.1207C32.3608 35.1848 32.2762 35.2897 32.2378 35.4139C32.2039 35.5403 32.2213 35.6748 32.2862 35.7885C32.3511 35.9022 32.4583 35.986 32.5846 36.0217C33.1132 36.0954 33.6499 36.0901 34.177 36.0058C34.6526 35.9416 35.23 35.9122 35.5929 35.5609C36.1597 35.0124 35.9875 33.9612 35.8847 33.2622C35.7697 32.4799 35.5277 31.6757 35.0199 31.0541C34.7828 30.7337 34.4287 30.5188 34.0341 30.4558C33.6329 30.434 33.2314 30.4927 32.8535 30.6283C31.8608 30.9473 30.9652 31.5027 30.0385 31.9684C29.4682 32.2552 29.9701 33.108 30.5394 32.8218H30.5404Z" fill="#281B19"/>
<path d="M31.1226 34.1061C31.2828 34.0219 31.4431 33.9379 31.61 33.8673L31.4913 33.9169C31.6157 33.8641 31.7445 33.822 31.8761 33.7909C31.939 33.7737 31.9979 33.7443 32.0493 33.7044C32.1008 33.6646 32.1439 33.615 32.1761 33.5585C32.2083 33.502 32.229 33.4398 32.2371 33.3754C32.2451 33.3109 32.2403 33.2455 32.2229 33.183C32.1881 33.0591 32.1066 32.9533 31.9955 32.8877C31.8786 32.8243 31.7422 32.8065 31.6129 32.8379C31.2661 32.9333 30.9331 33.0728 30.6221 33.2527C30.5377 33.3018 30.4698 33.3745 30.4267 33.4618C30.3837 33.5491 30.3675 33.6472 30.3802 33.7436C30.3929 33.84 30.4338 33.9306 30.498 34.004C30.5621 34.0773 30.6466 34.1302 30.7408 34.156C30.8701 34.187 31.0063 34.1692 31.1232 34.1061H31.1226Z" fill="#281B19"/>
<path d="M24.7547 37.3122C24.5962 37.4001 24.4641 37.5284 24.3721 37.684C24.28 37.8396 24.2313 38.0169 24.2308 38.1975C24.2342 38.5872 24.4687 38.8503 24.7592 39.0778C25.3149 39.4937 25.9122 39.8513 26.5418 40.1447C27.0857 40.4124 27.6647 40.8293 28.2818 40.5273C28.6127 40.3656 28.8277 40.0158 29.0184 39.7155C29.1876 39.4419 29.3413 39.1591 29.4787 38.8685C29.8582 38.091 30.2693 37.3297 30.6575 36.557C30.9431 35.99 30.0869 35.4889 29.8003 36.0581C29.4471 36.7596 29.0749 37.4514 28.7264 38.1553C28.5816 38.4466 28.4458 38.7402 28.2803 39.02C28.1976 39.1592 27.9687 39.6593 27.784 39.6558C27.7156 39.6543 27.6219 39.5767 27.5636 39.5473C27.4573 39.4933 27.35 39.4414 27.2428 39.3891C26.9604 39.251 26.6783 39.1116 26.4018 38.9615C26.0819 38.7933 25.7743 38.6029 25.4811 38.3918C25.4028 38.334 25.2743 38.2331 25.2286 38.208C25.1829 38.1829 25.2506 38.1287 25.2224 38.1851C25.215 38.1997 25.1296 38.237 25.2551 38.1645C25.8079 37.8464 25.3087 36.992 24.754 37.3113L24.7547 37.3122Z" fill="#281B19"/>
<path d="M35.3884 35.2338C35.4761 35.2519 35.5586 35.2895 35.6297 35.3437C35.6297 35.3437 35.6342 35.3025 35.6345 35.2992C35.6345 35.2912 35.4932 35.445 35.5298 35.4044C35.3127 35.6441 35.0914 35.8796 34.854 36.0997C34.6666 36.2732 34.4714 36.4379 34.2682 36.5938C34.1457 36.6877 34.02 36.7791 33.8959 36.8683C33.802 36.936 33.6546 37.0729 33.5268 37.0696C33.3407 37.0649 33.0855 36.8771 32.9215 36.7975C32.6565 36.669 32.3931 36.5378 32.1311 36.4038C31.7549 36.2324 31.3927 36.0319 31.0479 35.8043C30.934 35.739 30.7989 35.721 30.6718 35.7542C30.5447 35.7874 30.4359 35.8691 30.3688 35.9815C30.3053 36.0954 30.2884 36.2292 30.3216 36.3551C30.3548 36.481 30.4354 36.5893 30.5468 36.6575C31.0161 36.9637 31.5101 37.2307 32.0238 37.4557C32.3373 37.6117 32.6518 37.7676 32.9711 37.9117C33.1883 38.017 33.4308 38.0595 33.671 38.0344C33.9112 38.0092 34.1395 37.9175 34.33 37.7696C34.9664 37.3329 35.5539 36.8294 36.0824 36.2679C36.3903 35.9346 36.7234 35.5871 36.5975 35.0964C36.4846 34.6581 36.0598 34.4018 35.6527 34.2805C35.0393 34.0983 34.7767 35.052 35.3884 35.2338Z" fill="#281B19"/>
<path d="M22.7202 25.8006C23.3383 26.1186 24.0266 26.2771 24.7222 26.2615C25.4383 26.2568 26.1634 26.1174 26.7372 25.6721C26.8296 25.579 26.8814 25.4535 26.8814 25.3227C26.8814 25.1919 26.8296 25.0663 26.7372 24.9733C26.6425 24.8836 26.5169 24.8336 26.3862 24.8336C26.2555 24.8336 26.1298 24.8836 26.0352 24.9733C26.1842 24.8578 26.0627 24.9503 26.0244 24.9748C25.9861 24.9993 25.9417 25.0244 25.9003 25.0466C25.8674 25.0637 25.7169 25.1244 25.848 25.0756C25.7907 25.0962 25.7343 25.1193 25.6762 25.1374C25.5191 25.1871 25.3581 25.2237 25.1949 25.2467C25.2646 25.2366 25.1658 25.2494 25.1418 25.2517C25.0946 25.2563 25.0474 25.2602 25.0001 25.2634C24.8862 25.2706 24.7727 25.2735 24.6581 25.2729C24.5559 25.2729 24.4538 25.2692 24.3518 25.262C24.3051 25.2587 24.2584 25.255 24.2116 25.2502C24.2116 25.2502 24.0462 25.228 24.1365 25.242C23.9847 25.219 23.8345 25.1859 23.6872 25.1428C23.6241 25.1238 23.5631 25.1016 23.5011 25.081C23.4804 25.0742 23.4614 25.0637 23.4409 25.0577C23.565 25.0933 23.4858 25.0783 23.4506 25.0612C23.3735 25.0252 23.2976 24.9873 23.2221 24.9478C23.1078 24.8845 22.9734 24.8675 22.8468 24.9006C22.7203 24.9336 22.6115 25.014 22.5432 25.125C22.4782 25.2385 22.4604 25.3728 22.4937 25.4992C22.527 25.6255 22.6087 25.7339 22.7212 25.801L22.7202 25.8006Z" fill="#281B19"/>
<path d="M24.4825 21.0889C24.5753 21.4226 24.6496 21.7612 24.705 22.1031L24.6872 21.9717C24.6939 22.0181 24.6952 22.0651 24.6912 22.1117L24.709 21.9804C24.7056 22.0014 24.7004 22.022 24.6934 22.0421L24.7435 21.9242C24.7372 21.9385 24.7298 21.9523 24.7212 21.9653L24.7987 21.8653C24.7888 21.8773 24.7777 21.8882 24.7654 21.8978L24.8659 21.8206C24.84 21.8366 24.8131 21.8509 24.7853 21.8632L24.9038 21.8134C24.8602 21.8318 24.8146 21.8451 24.7679 21.8529L24.8998 21.8352C24.8574 21.8402 24.8145 21.8402 24.772 21.8352L24.904 21.8527C24.856 21.8461 24.8086 21.8344 24.7607 21.828C24.6313 21.798 24.4954 21.8157 24.3781 21.8778C24.3218 21.9106 24.2725 21.954 24.2331 22.0058C24.1937 22.0575 24.1649 22.1164 24.1484 22.1792C24.1318 22.242 24.1279 22.3074 24.1367 22.3717C24.1456 22.436 24.1671 22.4979 24.2 22.554C24.2316 22.6097 24.2741 22.6585 24.3251 22.6975C24.3761 22.7364 24.4345 22.7646 24.4968 22.7804C24.6039 22.7946 24.7079 22.8216 24.8171 22.8268C24.9801 22.8278 25.141 22.7898 25.2861 22.716C25.3776 22.6749 25.4587 22.614 25.5235 22.5377C25.5882 22.4613 25.6349 22.3715 25.6602 22.2748C25.6932 22.1168 25.6915 21.9536 25.6553 21.7963C25.5998 21.4696 25.5239 21.1459 25.4396 20.8254C25.4046 20.699 25.3206 20.5917 25.2061 20.527C25.0916 20.4622 24.956 20.4455 24.8291 20.4803C24.7022 20.5151 24.5944 20.5987 24.5294 20.7127C24.4644 20.8267 24.4475 20.9617 24.4825 21.0881V21.0889Z" fill="#281B19"/>
<path d="M19.0717 18.224C18.9023 18.7743 19.0125 20.0403 20.0604 20.148C21.4445 20.1398 21.5181 18.6092 21.053 17.8894C20.67 17.3004 19.5483 17.0552 19.0717 18.224Z" fill="#281B19"/>
<path d="M30.1554 18.224C30.3256 18.7743 30.2147 20.0403 29.1675 20.148C27.7834 20.1398 27.7098 18.6092 28.1749 17.8894C28.557 17.3004 29.6787 17.0554 30.1554 18.224Z" fill="#281B19"/>
</svg>
