<svg width="61" height="53" viewBox="0 0 61 53" fill="none" xmlns="http://www.w3.org/2000/svg">
<path d="M52.75 31.875V24.375H49V28.125H11.5V24.375H7.75V31.875H20.875V40.1468L13.375 44.3188V52.5H17.125V46.5234L23.2375 43.125H37.2644L43.375 46.5234V52.5H47.125V44.3188L39.625 40.1468V31.875H52.75ZM35.875 39.375H24.625V31.875H35.875V39.375Z" fill="black"/>
<path d="M19 16.875H0.25V20.625H19V16.875Z" fill="black"/>
<path d="M60.25 16.875H41.5V20.625H60.25V16.875Z" fill="black"/>
<path d="M30.2501 7.5C28.7729 7.49909 27.3099 7.79003 25.9454 8.35612C24.5809 8.9222 23.3416 9.75229 22.2988 10.7987L24.9493 13.4492C25.6449 12.7521 26.4711 12.199 27.3807 11.8216C28.2903 11.4442 29.2654 11.25 30.2501 11.25C31.2349 11.25 32.21 11.4442 33.1196 11.8216C34.0292 12.199 34.8554 12.7521 35.551 13.4492L38.2015 10.7987C37.1587 9.75226 35.9194 8.92216 34.5549 8.35607C33.1904 7.78998 31.7274 7.49906 30.2501 7.5Z" fill="#DAA412"/>
<path d="M16.998 5.49766L19.648 8.14816C21.0391 6.75397 22.6916 5.64786 24.5108 4.89316C26.3301 4.13845 28.2803 3.74998 30.2498 3.74998C32.2193 3.74998 34.1695 4.13845 35.9888 4.89316C37.808 5.64786 39.4605 6.75397 40.8516 8.14816L43.5021 5.49766C41.7632 3.75494 39.6976 2.37232 37.4237 1.42895C35.1497 0.485584 32.712 0 30.2501 0C27.7882 0 25.3505 0.485584 23.0765 1.42895C20.8025 2.37232 18.737 3.75494 16.998 5.49766Z" fill="#DAA412"/>
</svg>
