<svg width="50" height="54" viewBox="0 0 50 54" fill="none" xmlns="http://www.w3.org/2000/svg">
<path d="M40.4326 3.18956L37.8831 5.73901C37.7127 5.90763 37.6161 6.13752 37.6152 6.37725C37.6148 6.61744 37.7096 6.84778 37.8791 7.01728C38.0491 7.18725 38.2794 7.28206 38.5196 7.28162C38.7594 7.28072 38.9892 7.18411 39.1579 7.01371L41.7068 4.46472V4.46427C42.0468 4.11049 42.0414 3.54961 41.6943 3.20248C41.3472 2.85535 40.7864 2.85009 40.4326 3.18956Z" fill="#000D1F"/>
<path d="M39.3504 9.31651C39.5212 9.78345 40.0378 10.0245 40.5052 9.85502L43.8932 8.62185C44.1182 8.54045 44.302 8.37317 44.4036 8.15625C44.5047 7.93933 44.5158 7.6911 44.434 7.46613C44.3521 7.24116 44.1844 7.05822 43.967 6.95714C43.7501 6.85606 43.5019 6.84577 43.2769 6.92807L39.8889 8.16157C39.6643 8.24298 39.4814 8.4107 39.3803 8.62718C39.2792 8.84365 39.2685 9.09199 39.3504 9.31651Z" fill="#000D1F"/>
<path d="M37.4288 0.464706C36.9609 0.295636 36.4448 0.536268 36.2739 1.00321L35.0407 4.39126C34.958 4.61578 34.9683 4.86446 35.0694 5.08138C35.17 5.29875 35.3534 5.46693 35.5784 5.54877C35.8033 5.63062 36.0516 5.61944 36.2685 5.51791C36.4854 5.41638 36.6531 5.23255 36.7341 5.00714L37.9672 1.61909V1.61954C38.0495 1.39457 38.0388 1.14678 37.9377 0.930305C37.8366 0.713385 37.6533 0.546104 37.4288 0.464706Z" fill="#000D1F"/>
<path d="M38.1591 36.2839C37.8617 35.8935 37.4171 35.6417 36.9296 35.5875C34.8377 37.8328 32.4968 39.8321 29.9519 41.5465H40.154L43.8404 46.4615H37.0004L40.7847 53.0148L37.0004 53.0143L33.2156 46.461H16.3738L20.1581 53.0143H16.3738L12.5895 46.461H6.15917L9.84504 41.5465H20.3124C17.822 39.7851 15.5123 37.7809 13.4178 35.5629C12.8041 35.5231 12.2115 35.7937 11.8399 36.2839L1.02363 50.7052C0.754374 51.0639 0.628697 51.5102 0.671188 51.9571C0.713678 52.4035 0.92121 52.8185 1.25308 53.1204C1.58494 53.4223 2.01745 53.5896 2.46609 53.5896H47.5332C47.9818 53.5896 48.4143 53.4224 48.7462 53.1204C49.0781 52.8185 49.2852 52.4035 49.3277 51.9571C49.3701 51.5103 49.2445 51.0639 48.9752 50.7052L38.1591 36.2839Z" fill="#000D1F"/>
<path d="M8.77539 21.6985C8.77539 33.4164 25 42.4287 25 42.4287C25 42.4287 41.2246 34.318 41.2246 21.6985H41.2251C41.2251 15.9024 38.1327 10.5465 33.113 7.64827C28.0929 4.75005 21.9086 4.75005 16.8884 7.64827C11.8687 10.5465 8.7763 15.9026 8.7763 21.6985H8.77539ZM30.5132 14.5557C31.6917 14.7042 32.7692 15.2964 33.5264 16.211C34.284 17.1257 34.6642 18.2948 34.5904 19.4801C34.288 24.1244 25.0001 28.9094 25.0001 28.9094C25.0001 28.9094 15.7118 24.1241 15.4099 19.4798H15.4094C15.3356 18.2945 15.7162 17.1258 16.4735 16.2107C17.2311 15.296 18.3085 14.7043 19.4866 14.5558C21.2126 14.3009 22.9462 14.9642 24.0603 16.3064C24.2951 16.5815 24.6386 16.7393 25 16.7393C25.3614 16.7393 25.7045 16.5815 25.9393 16.3064C27.0534 14.9641 28.7875 14.3008 30.513 14.5558L30.5132 14.5557Z" fill="#DAA412"/>
</svg>
