<svg width="137" height="138" viewBox="0 0 137 138" fill="none" xmlns="http://www.w3.org/2000/svg">
<path d="M22.189 137.454C21.8663 137.454 21.6505 137.347 21.3279 137.239C20.5747 136.916 20.0362 136.162 20.0362 135.301V108.28L2.38129 108.281C1.19754 108.281 0.228516 107.312 0.228516 106.129V2.89203C0.228516 1.70828 1.19754 0.739258 2.38129 0.739258H134.793C135.976 0.739258 136.945 1.70828 136.945 2.89203V106.129C136.945 107.312 135.976 108.281 134.793 108.281H52.4379L23.6954 136.808C23.2649 137.238 22.7264 137.453 22.1879 137.453L22.189 137.454ZM4.53406 103.975H22.189C23.3727 103.975 24.3418 104.944 24.3418 106.128V130.134L50.0713 104.621C50.5019 104.191 51.0403 103.975 51.5788 103.975H132.64L132.639 5.04312H4.53239L4.53406 103.975Z" fill="#000D1F"/>
<path d="M81.6108 89.8732C81.395 89.8732 81.0724 89.7653 80.8576 89.5505C80.7497 89.4426 74.7219 83.7375 67.832 76.3091C67.4015 75.8786 67.4015 75.2322 67.9399 74.8016C68.4784 74.3711 69.0169 74.3711 69.4474 74.9095C74.9377 80.8303 79.8898 85.5666 81.612 87.29C86.5638 82.5529 114.769 54.7786 114.769 43.6908C114.769 33.895 106.803 25.9281 97.0062 25.9281C92.4849 25.9281 88.0714 27.6503 84.7338 30.8799C84.3032 31.3104 83.6569 31.3104 83.2263 30.8799C82.7958 30.4493 82.7958 29.8029 83.2263 29.3724C86.9944 25.8201 91.8384 23.8821 96.8982 23.8821C107.879 23.8821 116.814 32.8169 116.814 43.7975C116.814 56.8231 83.6568 88.3649 82.2565 89.6586C82.1486 89.7665 81.8249 89.8744 81.6101 89.8744L81.6108 89.8732Z" fill="#DAA412"/>
<path d="M55.5604 89.8731C55.3446 89.8731 55.0219 89.7652 54.8072 89.5504C53.4076 88.2587 20.25 56.823 20.25 43.6894C20.25 32.7087 29.1848 23.7739 40.1654 23.7739C46.1943 23.7739 51.7915 26.4651 55.5596 31.0945C59.3276 26.4652 65.0329 23.7739 70.9537 23.7739C81.9343 23.7739 90.8692 32.7087 90.8692 43.6894C90.8692 56.715 57.7123 88.2568 56.312 89.5504C56.0972 89.7652 55.8825 89.8731 55.5588 89.8731H55.5604ZM40.1662 25.928C30.3704 25.928 22.4035 33.8937 22.4035 43.6906C22.4035 54.8862 50.6072 82.5528 55.5604 87.2898C60.5121 82.5528 88.7172 54.7785 88.7172 43.6906C88.7172 33.8948 80.7514 25.928 70.9545 25.928C65.1415 25.928 59.7589 28.727 56.4214 33.4633C55.9908 34.0017 55.0218 34.0017 54.6991 33.4633C51.3627 28.835 45.9804 25.928 40.1662 25.928Z" fill="#DAA412"/>
</svg>
