<svg width="18" height="15" viewBox="0 0 18 15" fill="none" xmlns="http://www.w3.org/2000/svg">
<path d="M1 14H2.6M2.6 14H7.4M2.6 14V7.20034C2.6 6.77531 2.6 6.56268 2.65198 6.36485C2.69804 6.1896 2.77423 6.02372 2.87656 5.87383C2.99203 5.70469 3.15251 5.56443 3.47422 5.28453L7.31549 1.94242C7.91184 1.42353 8.21008 1.16407 8.54592 1.06531C8.84208 0.97823 9.15776 0.97823 9.45392 1.06531C9.79 1.16414 10.0886 1.42385 10.6859 1.94353L14.5259 5.28453C14.8476 5.56442 15.0082 5.7047 15.1237 5.87383C15.226 6.02372 15.3016 6.1896 15.3477 6.36485C15.3996 6.56268 15.4 6.77531 15.4 7.20034V14M7.4 14H10.6M7.4 14V10.8181C7.4 9.9394 8.11632 9.22713 9 9.22713C9.88368 9.22713 10.6 9.9394 10.6 10.8181V14M15.4 14H10.6M15.4 14H17" stroke="#DAA412" stroke-width="2" stroke-linecap="round" stroke-linejoin="round"/>
</svg>
