<svg width="55" height="54" viewBox="0 0 55 54" fill="none" xmlns="http://www.w3.org/2000/svg">
<path d="M27.5058 0.192871H27.3833C12.5728 0.192871 0.566406 12.2028 0.566406 27.0177V27.1402C0.566406 41.9551 12.5728 53.965 27.3833 53.965H27.5058C42.3163 53.965 54.3227 41.9551 54.3227 27.1402V27.0177C54.3227 12.2028 42.3163 0.192871 27.5058 0.192871Z" fill="url(#paint0_linear_2130_31)"/>
<path d="M35.7652 11.1325H19.1315C14.5361 11.1325 10.7977 14.8721 10.7977 19.4688V34.6907C10.7977 39.2874 14.5361 43.027 19.1315 43.027H35.7652C40.3605 43.027 44.099 39.2874 44.099 34.6907V19.4688C44.099 14.8721 40.3605 11.1325 35.7652 11.1325ZM13.7376 19.4688C13.7376 16.4941 16.1577 14.0733 19.1315 14.0733H35.7652C38.739 14.0733 41.1591 16.4941 41.1591 19.4688V34.6907C41.1591 37.6654 38.739 40.0862 35.7652 40.0862H19.1315C16.1577 40.0862 13.7376 37.6654 13.7376 34.6907V19.4688Z" fill="white"/>
<path d="M27.4471 34.8315C31.7204 34.8315 35.1989 31.3538 35.1989 27.0774C35.1989 22.8009 31.7223 19.3232 27.4471 19.3232C23.1719 19.3232 19.6952 22.8009 19.6952 27.0774C19.6952 31.3538 23.1719 34.8315 27.4471 34.8315ZM27.4471 22.2659C30.1007 22.2659 32.259 24.4248 32.259 27.0792C32.259 29.7337 30.1007 31.8926 27.4471 31.8926C24.7935 31.8926 22.6351 29.7337 22.6351 27.0792C22.6351 24.4248 24.7935 22.2659 27.4471 22.2659Z" fill="white"/>
<path d="M35.9155 20.5765C37.0662 20.5765 38.0041 19.6402 38.0041 18.4872C38.0041 17.3343 37.0681 16.398 35.9155 16.398C34.7629 16.398 33.8268 17.3343 33.8268 18.4872C33.8268 19.6402 34.7629 20.5765 35.9155 20.5765Z" fill="white"/>
<defs>
<linearGradient id="paint0_linear_2130_31" x1="8.41995" y1="46.1091" x2="46.4804" y2="8.06182" gradientUnits="userSpaceOnUse">
<stop stop-color="#FAAD4F"/>
<stop offset="0.35" stop-color="#DD2A7B"/>
<stop offset="0.62" stop-color="#9537B0"/>
<stop offset="1" stop-color="#515BD4"/>
</linearGradient>
</defs>
</svg>
