<svg width="70" height="70" viewBox="0 0 70 70" fill="none" xmlns="http://www.w3.org/2000/svg">
<path d="M35.0707 0.966064H34.9138C15.9335 0.966064 0.546875 16.3572 0.546875 35.3431V35.5C0.546875 54.486 15.9335 69.8771 34.9138 69.8771H35.0707C54.051 69.8771 69.4376 54.486 69.4376 35.5V35.3431C69.4376 16.3572 54.051 0.966064 35.0707 0.966064Z" fill="url(#paint0_linear_2109_21)"/>
<path d="M45.655 14.9858H24.3383C18.4492 14.9858 13.6582 19.7782 13.6582 25.6691V45.1765C13.6582 51.0674 18.4492 55.8597 24.3383 55.8597H45.655C51.5441 55.8597 56.3351 51.0674 56.3351 45.1765V25.6691C56.3351 19.7782 51.5441 14.9858 45.655 14.9858ZM17.4258 25.6691C17.4258 21.8569 20.5272 18.7545 24.3383 18.7545H45.655C49.466 18.7545 52.5675 21.8569 52.5675 25.6691V45.1765C52.5675 48.9887 49.466 52.091 45.655 52.091H24.3383C20.5272 52.091 17.4258 48.9887 17.4258 45.1765V25.6691Z" fill="white"/>
<path d="M34.9948 45.3576C40.4713 45.3576 44.9291 40.9008 44.9291 35.4204C44.9291 29.9399 40.4737 25.4832 34.9948 25.4832C29.516 25.4832 25.0605 29.9399 25.0605 35.4204C25.0605 40.9008 29.516 45.3576 34.9948 45.3576ZM34.9948 29.2543C38.3956 29.2543 41.1615 32.021 41.1615 35.4228C41.1615 38.8245 38.3956 41.5913 34.9948 41.5913C31.5941 41.5913 28.8281 38.8245 28.8281 35.4228C28.8281 32.021 31.5941 29.2543 34.9948 29.2543Z" fill="white"/>
<path d="M45.8485 27.0885C47.3232 27.0885 48.5252 25.8886 48.5252 24.4111C48.5252 22.9335 47.3256 21.7336 45.8485 21.7336C44.3714 21.7336 43.1719 22.9335 43.1719 24.4111C43.1719 25.8886 44.3714 27.0885 45.8485 27.0885Z" fill="white"/>
<defs>
<linearGradient id="paint0_linear_2109_21" x1="10.6115" y1="59.8095" x2="59.3874" y2="11.0504" gradientUnits="userSpaceOnUse">
<stop stop-color="#FAAD4F"/>
<stop offset="0.35" stop-color="#DD2A7B"/>
<stop offset="0.62" stop-color="#9537B0"/>
<stop offset="1" stop-color="#515BD4"/>
</linearGradient>
</defs>
</svg>
