<svg width="22" height="22" viewBox="0 0 22 22" fill="none" xmlns="http://www.w3.org/2000/svg">
<path d="M10.5448 21.5996H10.4986C4.71941 21.5996 0.0175781 16.8964 0.0175781 11.1155L0.0175781 11.0693C0.0175781 5.28845 4.71941 0.585236 10.4986 0.585236H10.5448C16.3239 0.585236 21.0258 5.28845 21.0258 11.0693V11.1155C21.0258 16.8964 16.3239 21.5996 10.5448 21.5996ZM10.4986 1.29655C5.11123 1.29655 0.728684 5.68039 0.728684 11.0693V11.1155C0.728684 16.5045 5.11123 20.8883 10.4986 20.8883H10.5448C15.9321 20.8883 20.3147 16.5045 20.3147 11.1155V11.0693C20.3147 5.68039 15.9321 1.29655 10.5448 1.29655H10.4986Z" fill="url(#paint0_linear_2036_295)"/>
<path d="M13.6625 5.07156L7.38199 5.07156C5.6469 5.07156 4.23535 6.48352 4.23535 8.21913L4.23535 13.9666C4.23535 15.7022 5.6469 17.1141 7.38199 17.1141H13.6625C15.3976 17.1141 16.8091 15.7022 16.8091 13.9666V8.21913C16.8091 6.48352 15.3976 5.07156 13.6625 5.07156ZM5.34539 8.21913C5.34539 7.09597 6.25916 6.18193 7.38199 6.18193L13.6625 6.18193C14.7853 6.18193 15.6991 7.09597 15.6991 8.21913V13.9666C15.6991 15.0897 14.7853 16.0038 13.6625 16.0038H7.38199C6.25916 16.0038 5.34539 15.0897 5.34539 13.9666L5.34539 8.21913Z" fill="url(#paint1_linear_2036_295)"/>
<path d="M10.5216 14.0199C12.1351 14.0199 13.4485 12.7068 13.4485 11.0921C13.4485 9.47743 12.1358 8.16434 10.5216 8.16434C8.90743 8.16434 7.59473 9.47743 7.59473 11.0921C7.59473 12.7068 8.90743 14.0199 10.5216 14.0199ZM10.5216 9.27541C11.5236 9.27541 12.3385 10.0906 12.3385 11.0928C12.3385 12.0951 11.5236 12.9102 10.5216 12.9102C9.51969 12.9102 8.70476 12.0951 8.70476 11.0928C8.70476 10.0906 9.51969 9.27541 10.5216 9.27541Z" fill="url(#paint2_linear_2036_295)"/>
<path d="M13.7203 8.63738C14.1547 8.63738 14.5089 8.28386 14.5089 7.84854C14.5089 7.41321 14.1555 7.05969 13.7203 7.05969C13.2851 7.05969 12.9316 7.41321 12.9316 7.84854C12.9316 8.28386 13.2851 8.63738 13.7203 8.63738Z" fill="url(#paint3_linear_2036_295)"/>
<defs>
<linearGradient id="paint0_linear_2036_295" x1="3.09098" y1="18.5253" x2="17.9567" y2="3.66391" gradientUnits="userSpaceOnUse">
<stop stop-color="#FAAD4F"/>
<stop offset="0.35" stop-color="#DD2A7B"/>
<stop offset="0.62" stop-color="#9537B0"/>
<stop offset="1" stop-color="#515BD4"/>
</linearGradient>
<linearGradient id="paint1_linear_2036_295" x1="5.29134" y1="16.3246" x2="15.7555" y2="5.86421" gradientUnits="userSpaceOnUse">
<stop stop-color="#FAAD4F"/>
<stop offset="0.35" stop-color="#DD2A7B"/>
<stop offset="0.62" stop-color="#9537B0"/>
<stop offset="1" stop-color="#515BD4"/>
</linearGradient>
<linearGradient id="paint2_linear_2036_295" x1="8.45303" y1="13.162" x2="12.5908" y2="9.02483" gradientUnits="userSpaceOnUse">
<stop stop-color="#FAAD4F"/>
<stop offset="0.35" stop-color="#DD2A7B"/>
<stop offset="0.62" stop-color="#9537B0"/>
<stop offset="1" stop-color="#515BD4"/>
</linearGradient>
<linearGradient id="paint3_linear_2036_295" x1="13.1627" y1="8.40621" x2="14.2781" y2="7.29119" gradientUnits="userSpaceOnUse">
<stop stop-color="#FAAD4F"/>
<stop offset="0.35" stop-color="#DD2A7B"/>
<stop offset="0.62" stop-color="#9537B0"/>
<stop offset="1" stop-color="#515BD4"/>
</linearGradient>
</defs>
</svg>
