<svg width="55" height="54" viewBox="0 0 55 54" fill="none" xmlns="http://www.w3.org/2000/svg">
<path d="M27.5058 0.0351562H27.3834C12.5728 0.0351562 0.566406 12.045 0.566406 26.86V26.9824C0.566406 41.7974 12.5728 53.8073 27.3834 53.8073H27.5058C42.3164 53.8073 54.3227 41.7974 54.3227 26.9824V26.86C54.3227 12.045 42.3164 0.0351563 27.5058 0.0351562Z" fill="#007EBB"/>
<path d="M13.3867 17.91C12.6786 17.2525 12.3264 16.4387 12.3264 15.4703C12.3264 14.502 12.6805 13.6524 13.3867 12.993C14.0949 12.3355 15.0064 12.0059 16.1232 12.0059C17.24 12.0059 18.1158 12.3355 18.8221 12.993C19.5302 13.6505 19.8824 14.4775 19.8824 15.4703C19.8824 16.4632 19.5283 17.2525 18.8221 17.91C18.1139 18.5675 17.2156 18.8972 16.1232 18.8972C15.0309 18.8972 14.0949 18.5675 13.3867 17.91ZM19.2872 21.6816V41.8393H12.9197V21.6816H19.2872Z" fill="#FEFFFC"/>
<path d="M40.4845 23.6723C41.8725 25.1794 42.5656 27.2479 42.5656 29.8816V41.4827H36.5182V30.6992C36.5182 29.3711 36.1735 28.3387 35.4861 27.604C34.7987 26.8693 33.8721 26.5 32.712 26.5C31.5518 26.5 30.6252 26.8674 29.9377 27.604C29.2503 28.3387 28.9057 29.3711 28.9057 30.6992V41.4827H22.8225V21.6245H28.9057V24.2582C29.5215 23.3803 30.3521 22.687 31.3955 22.1765C32.4389 21.6659 33.6122 21.4116 34.9173 21.4116C37.2414 21.4116 39.0983 22.1652 40.4845 23.6723Z" fill="#FEFFFC"/>
</svg>
