<svg width="22" height="22" viewBox="0 0 22 22" fill="none" xmlns="http://www.w3.org/2000/svg">
<path d="M10.6981 21.5998H10.6519C4.87274 21.5998 0.170898 16.8966 0.170898 11.1158V11.0695C0.170898 5.28866 4.87274 0.585449 10.6519 0.585449H10.6981C16.4773 0.585449 21.1791 5.28866 21.1791 11.0695V11.1158C21.1791 16.8966 16.4773 21.5998 10.6981 21.5998ZM10.6519 1.29676C5.26456 1.29676 0.882004 5.6806 0.882004 11.0695V11.1158C0.882004 16.5047 5.26456 20.8885 10.6519 20.8885H10.6981C16.0854 20.8885 20.468 16.5047 20.468 11.1158V11.0695C20.468 5.6806 16.0854 1.29676 10.6981 1.29676H10.6519Z" fill="#007EBB"/>
<path d="M5.36812 7.68937C5.10074 7.44112 4.96777 7.13384 4.96777 6.76822C4.96777 6.40261 5.10145 6.0818 5.36812 5.83284C5.63549 5.58459 5.97967 5.46011 6.40136 5.46011C6.82304 5.46011 7.15371 5.58459 7.42037 5.83284C7.68775 6.08109 7.82072 6.39336 7.82072 6.76822C7.82072 7.14309 7.68704 7.44112 7.42037 7.68937C7.153 7.93762 6.8138 8.0621 6.40136 8.0621C5.98891 8.0621 5.63549 7.93762 5.36812 7.68937ZM7.59602 9.11342L7.59602 16.7245H5.19176L5.19176 9.11342H7.59602Z" fill="#007EBB"/>
<path d="M15.6004 9.86527C16.1245 10.4343 16.3861 11.2153 16.3861 12.2098V16.59H14.1028V12.5185C14.1028 12.017 13.9727 11.6272 13.7131 11.3498C13.4536 11.0724 13.1037 10.9329 12.6657 10.9329C12.2276 10.9329 11.8777 11.0716 11.6182 11.3498C11.3586 11.6272 11.2285 12.017 11.2285 12.5185V16.59H8.93164V9.09207H11.2285V10.0865C11.461 9.755 11.7746 9.49324 12.1686 9.30048C12.5625 9.10771 13.0056 9.01169 13.4984 9.01169C14.3759 9.01169 15.077 9.29621 15.6004 9.86527Z" fill="#007EBB"/>
</svg>
