<svg width="70" height="70" viewBox="0 0 70 70" fill="none" xmlns="http://www.w3.org/2000/svg">
<path d="M35.2426 0.966064H35.0857C16.1054 0.966064 0.71875 16.3572 0.71875 35.3431V35.5C0.71875 54.486 16.1054 69.8771 35.0857 69.8771H35.2426C54.2229 69.8771 69.6095 54.486 69.6095 35.5V35.3431C69.6095 16.3572 54.2229 0.966064 35.2426 0.966064Z" fill="#007EBB"/>
<path d="M17.148 23.8728C16.2405 23.0302 15.7892 21.9872 15.7892 20.7463C15.7892 19.5053 16.2429 18.4165 17.148 17.5715C18.0555 16.7289 19.2236 16.3064 20.6549 16.3064C22.0862 16.3064 23.2085 16.7289 24.1136 17.5715C25.0211 18.4141 25.4724 19.4739 25.4724 20.7463C25.4724 22.0186 25.0187 23.0302 24.1136 23.8728C23.2061 24.7154 22.0548 25.1379 20.6549 25.1379C19.255 25.1379 18.0555 24.7154 17.148 23.8728ZM24.7097 28.7062V54.5391H16.5494V28.7062H24.7097Z" fill="#FEFFFC"/>
<path d="M51.875 31.258C53.6538 33.1894 54.542 35.8403 54.542 39.2155V54.0827H46.792V40.2633C46.792 38.5612 46.3503 37.2382 45.4694 36.2966C44.5884 35.355 43.401 34.8818 41.9142 34.8818C40.4274 34.8818 39.2399 35.3526 38.3589 36.2966C37.478 37.2382 37.0363 38.5612 37.0363 40.2633V54.0827H29.2405V28.6337H37.0363V32.0088C37.8255 30.8838 38.89 29.9953 40.2271 29.341C41.5642 28.6868 43.0679 28.3608 44.7405 28.3608C47.7188 28.3608 50.0986 29.3266 51.875 31.258Z" fill="#FEFFFC"/>
</svg>
