<svg width="66" height="52" viewBox="0 0 66 52" fill="none" xmlns="http://www.w3.org/2000/svg">
<path d="M63.1786 0.952151H46.5804C43.0184 0.952151 39.5363 1.95749 36.5402 3.85408L33 6.08578L29.4598 3.85408C26.4667 1.95785 22.9807 0.95028 19.4196 0.952151H2.82143C1.53739 0.952151 0.5 1.97175 0.5 3.23377V43.7324C0.5 44.9944 1.53739 46.014 2.82143 46.014H19.4196C22.9816 46.014 26.4637 47.0194 29.4598 48.916L32.6808 50.9552C32.7751 51.0122 32.8839 51.0479 32.9927 51.0479C33.1016 51.0479 33.2104 51.0193 33.3047 50.9552L36.5257 48.916C39.529 47.0194 43.0184 46.014 46.5804 46.014H63.1786C64.4626 46.014 65.5 44.9944 65.5 43.7324V3.23377C65.5 1.97175 64.4626 0.952151 63.1786 0.952151ZM25.1652 28.9376C25.1652 29.2299 24.933 29.4723 24.6501 29.4723H11.1713C10.8884 29.4723 10.6562 29.2299 10.6562 28.9376V25.7291C10.6562 25.4367 10.8884 25.1943 11.1713 25.1943H24.6429C24.9258 25.1943 25.1579 25.4367 25.1579 25.7291V28.9376H25.1652ZM25.1652 18.9555C25.1652 19.2478 24.933 19.4903 24.6501 19.4903H11.1713C10.8884 19.4903 10.6562 19.2478 10.6562 18.9555V15.747C10.6562 15.4547 10.8884 15.2122 11.1713 15.2122H24.6429C24.9258 15.2122 25.1579 15.4547 25.1579 15.747V18.9555H25.1652ZM55.3438 28.9376C55.3438 29.2299 55.1116 29.4723 54.8287 29.4723H41.3499C41.067 29.4723 40.8348 29.2299 40.8348 28.9376V25.7291C40.8348 25.4367 41.067 25.1943 41.3499 25.1943H54.8214C55.1044 25.1943 55.3365 25.4367 55.3365 25.7291V28.9376H55.3438ZM55.3438 18.9555C55.3438 19.2478 55.1116 19.4903 54.8287 19.4903H41.3499C41.067 19.4903 40.8348 19.2478 40.8348 18.9555V15.747C40.8348 15.4547 41.067 15.2122 41.3499 15.2122H54.8214C55.1044 15.2122 55.3365 15.4547 55.3365 15.747V18.9555H55.3438Z" fill="#DAA412"/>
</svg>
