<svg width="61" height="51" viewBox="0 0 61 51" fill="none" xmlns="http://www.w3.org/2000/svg">
<path d="M60.5491 30.1629L56.1199 28.6813L56.2247 28.7918L31.7233 37.8052L8.26843 12.6719L2.51166 10.7459C-0.395033 12.8313 -0.720096 18.7687 1.23238 20.8349L30.184 51L60.8071 39.8863C58.0178 38.3409 55.7549 33.9426 60.5491 30.1651V30.1629ZM28.5587 38.3026L4.43268 12.9461H5.15411L29.1732 37.8031L28.5566 38.3026H28.5587ZM30.4021 50.0923C30.4021 50.0923 27.0634 46.1383 31.3899 40.8791L57.6068 31.2556C57.6068 31.2556 54.591 36.5042 58.1206 39.6036L30.4021 50.0944V50.0923ZM8.26843 12.6719L7.46731 11.8131L31.9079 3.01651L56.1199 28.6813L60.547 30.1629C60.526 30.1799 60.5051 30.1969 60.4841 30.214L61 30.0269L32.4301 0L2.62491 10.782L8.26633 12.6698L8.26843 12.6719Z" fill="#DAA412"/>
</svg>
