<svg width="55" height="55" viewBox="0 0 55 55" fill="none" xmlns="http://www.w3.org/2000/svg">
<path fill-rule="evenodd" clip-rule="evenodd" d="M5.83268 3.12484C5.83268 2.40654 5.54734 1.71767 5.03943 1.20976C4.53152 0.701845 3.84264 0.416504 3.12435 0.416504C2.40605 0.416504 1.71718 0.701845 1.20927 1.20976C0.701357 1.71767 0.416016 2.40654 0.416016 3.12484V49.7082C0.416016 51.0011 0.92963 52.2411 1.84387 53.1553C2.75811 54.0696 3.99809 54.5832 5.29102 54.5832H51.8743C52.5926 54.5832 53.2815 54.2978 53.7894 53.7899C54.2973 53.282 54.5827 52.5931 54.5827 51.8748C54.5827 51.1565 54.2973 50.4677 53.7894 49.9598C53.2815 49.4518 52.5926 49.1665 51.8743 49.1665H5.83268V3.12484ZM53.7891 15.873C54.2825 15.3622 54.5555 14.678 54.5493 13.9679C54.5431 13.2578 54.2583 12.5785 53.7561 12.0764C53.254 11.5742 52.5747 11.2894 51.8646 11.2832C51.1545 11.277 50.4704 11.55 49.9596 12.0434L32.916 29.0869L23.9975 20.1684C23.4896 19.6606 22.8008 19.3754 22.0827 19.3754C21.3645 19.3754 20.6758 19.6606 20.1679 20.1684L9.33456 31.0017C9.07588 31.2515 8.86956 31.5504 8.72762 31.8808C8.58568 32.2113 8.51096 32.5666 8.50784 32.9263C8.50471 33.2859 8.57324 33.6425 8.70941 33.9753C8.84559 34.3082 9.04669 34.6106 9.30099 34.8649C9.55528 35.1192 9.85767 35.3203 10.1905 35.4564C10.5234 35.5926 10.88 35.6611 11.2396 35.658C11.5992 35.6549 11.9546 35.5802 12.285 35.4382C12.6155 35.2963 12.9143 35.09 13.1641 34.8313L22.0827 25.9128L31.0012 34.8313C31.5091 35.339 32.1979 35.6243 32.916 35.6243C33.6342 35.6243 34.3229 35.339 34.8308 34.8313L53.7891 15.873Z" fill="#DAA412"/>
</svg>
