<svg width="65" height="65" viewBox="0 0 65 65" fill="none" xmlns="http://www.w3.org/2000/svg">
<path fill-rule="evenodd" clip-rule="evenodd" d="M10.8327 8.12484C10.8327 7.40654 10.5473 6.71767 10.0394 6.20976C9.53152 5.70185 8.84264 5.4165 8.12435 5.4165C7.40605 5.4165 6.71718 5.70185 6.20927 6.20976C5.70136 6.71767 5.41602 7.40654 5.41602 8.12484V54.7082C5.41602 56.0011 5.92963 57.2411 6.84387 58.1553C7.75811 59.0696 8.99809 59.5832 10.291 59.5832H56.8743C57.5926 59.5832 58.2815 59.2978 58.7894 58.7899C59.2973 58.282 59.5827 57.5931 59.5827 56.8748C59.5827 56.1565 59.2973 55.4677 58.7894 54.9598C58.2815 54.4518 57.5926 54.1665 56.8743 54.1665H10.8327V8.12484ZM58.7891 20.873C59.2825 20.3622 59.5555 19.678 59.5493 18.9679C59.5431 18.2578 59.2583 17.5785 58.7561 17.0764C58.254 16.5742 57.5747 16.2894 56.8646 16.2832C56.1545 16.277 55.4704 16.55 54.9596 17.0434L37.916 34.0869L28.9975 25.1684C28.4896 24.6606 27.8008 24.3754 27.0827 24.3754C26.3645 24.3754 25.6758 24.6606 25.1679 25.1684L14.3346 36.0017C14.0759 36.2515 13.8696 36.5504 13.7276 36.8808C13.5857 37.2113 13.511 37.5666 13.5078 37.9263C13.5047 38.2859 13.5732 38.6425 13.7094 38.9753C13.8456 39.3082 14.0467 39.6106 14.301 39.8649C14.5553 40.1192 14.8577 40.3203 15.1905 40.4564C15.5234 40.5926 15.88 40.6611 16.2396 40.658C16.5992 40.6549 16.9546 40.5802 17.285 40.4382C17.6155 40.2963 17.9143 40.09 18.1641 39.8313L27.0827 30.9128L36.0012 39.8313C36.5091 40.339 37.1979 40.6243 37.916 40.6243C38.6342 40.6243 39.3229 40.339 39.8308 39.8313L58.7891 20.873Z" fill="#DAA412"/>
</svg>
