<svg width="55" height="55" viewBox="0 0 55 55" fill="none" xmlns="http://www.w3.org/2000/svg">
<path d="M54.3208 27.4114C54.3208 40.9906 44.2581 52.2167 31.1858 54.0384C29.9635 54.208 28.713 54.2965 27.4436 54.2965C25.9784 54.2965 24.5395 54.1797 23.1383 53.9537C10.341 51.8927 0.566406 40.7928 0.566406 27.4114C0.566406 12.5625 12.601 0.524414 27.4455 0.524414C42.29 0.524414 54.3246 12.5625 54.3246 27.4114H54.3208Z" fill="#1C1C1B"/>
<path d="M11.4681 12.3814L23.8642 28.9597L11.3908 42.439H14.1989L25.1204 30.6383L33.9439 42.439H43.4981L30.4051 24.9282L42.0159 12.3814H39.2078L29.1508 23.2496L21.0241 12.3814H11.4681ZM15.5963 14.45H19.9845L39.366 40.3705H34.9778L15.5963 14.45Z" fill="white"/>
</svg>
