<svg width="70" height="70" viewBox="0 0 70 70" fill="none" xmlns="http://www.w3.org/2000/svg">
<path d="M69.0192 35.4228C69.0192 52.825 56.1234 67.2117 39.3708 69.5463C37.8044 69.7636 36.2018 69.8771 34.575 69.8771C32.6973 69.8771 30.8533 69.7274 29.0576 69.4377C12.6573 66.7965 0.130859 52.5715 0.130859 35.4228C0.130859 16.3934 15.5536 0.966064 34.5774 0.966064C53.6012 0.966064 69.024 16.3934 69.024 35.4228H69.0192Z" fill="#1C1C1B"/>
<path d="M14.1029 16.1616L29.989 37.4074L14.0039 54.6816H17.6026L31.5989 39.5585L42.9065 54.6816H55.1506L38.3714 32.2408L53.2511 16.1616H49.6524L36.7639 30.0897L26.3494 16.1616H14.1029ZM19.3934 18.8125H25.0171L49.8552 52.0307H44.2316L19.3934 18.8125Z" fill="white"/>
</svg>
