<svg width="66" height="66" viewBox="0 0 66 66" fill="none" xmlns="http://www.w3.org/2000/svg">
<path d="M33.6732 0.875L13.6547 20.8935H0.538086V65.8096H44.8892V52.3387L65.013 32.262L33.6732 0.875ZM37.8269 52.5325H7.60037V27.9557H37.8269V52.5325ZM23.7812 20.8935L33.6732 11.0015L43.5652 20.8935H23.7812ZM44.8892 22.3118L54.8394 32.262L44.8892 42.2122V22.3118Z" fill="#DAA412"/>
<path d="M27.7474 39.5351C27.7474 39.5351 26.5392 38.1758 24.8324 38.1758C23.1722 38.1758 21.8168 39.7052 21.7281 41.5572C21.6781 42.6033 21.9798 43.3996 22.4055 44.1208C23.2552 45.5615 27.753 48.4842 27.753 48.4842C27.753 48.4842 32.2342 45.5742 33.0896 44.1208C33.5162 43.3962 33.817 42.6035 33.767 41.5572C33.6783 39.7052 32.3229 38.1758 30.6627 38.1758C29.0291 38.1758 27.7474 39.5351 27.7474 39.5351Z" fill="#DAA412"/>
<path d="M21.1298 48.4837C21.1298 48.4837 21.8185 48.0366 22.8064 47.3518C21.8744 46.5786 21.0535 45.7806 20.6555 45.1057C20.2114 44.3532 19.6306 43.1565 19.7114 41.4641C19.8518 38.5321 22.0662 36.2358 24.753 36.2358C25.9392 36.2358 26.9398 36.6403 27.6839 37.088C28.3839 36.6714 29.3031 36.2886 30.3619 36.2409C29.7398 33.9784 27.8892 32.2871 25.7013 32.2871C23.1349 32.2871 21.1213 34.4227 21.1213 34.4227C21.1213 34.4227 19.223 32.2871 16.5413 32.2871C13.933 32.2871 11.803 34.6903 11.6638 37.5999C11.5852 39.2437 12.0595 40.4946 12.7279 41.6277C14.063 43.8919 21.1298 48.4837 21.1298 48.4837Z" fill="#DAA412"/>
</svg>
