<svg width="70" height="66" viewBox="0 0 70 66" fill="none" xmlns="http://www.w3.org/2000/svg">
<path d="M18.2401 14.2071C20.8274 13.603 23.0795 14.646 25.119 16.1417C27.1268 17.6141 29.4428 19.9142 32.2664 22.7071L43.6414 33.9581L45.66 35.962C47.575 37.8777 49.1629 39.539 50.2801 41.0294C51.7903 43.0442 52.8634 45.2939 52.244 47.8888L47.3807 46.7276C47.4816 46.3048 47.4726 45.6195 46.2801 44.0284C45.0667 42.4096 43.0675 40.4236 40.1248 37.5128L28.7508 26.2618C25.8086 23.3516 23.7998 21.3741 22.1619 20.1729C20.5563 18.9955 19.8411 18.9681 19.3778 19.0763C18.9195 19.1833 18.2982 19.5167 17.3973 21.2745C16.4769 23.0704 15.5758 25.7245 14.2596 29.63L8.5721 46.5069C6.99313 51.1923 5.90728 54.4341 5.47933 56.8136C5.04885 59.2071 5.4496 59.8623 5.76351 60.1729C6.08902 60.4949 6.77903 60.8921 9.21273 60.464C11.6251 60.0395 14.9089 58.9634 19.6434 57.4024L36.7049 51.7774C38.016 51.3451 39.4296 52.0573 39.8621 53.3683C40.2944 54.6794 39.5823 56.093 38.2713 56.5255L21.2088 62.1515C16.6345 63.6597 12.9363 64.8861 10.0799 65.3888C7.24495 65.8876 4.37837 65.836 2.2469 63.7276C0.104323 61.6079 0.0517771 58.7461 0.558428 55.9288C1.06776 53.0968 2.30977 49.4326 3.83382 44.9102L9.52132 28.0333C10.7837 24.2872 11.8165 21.2023 12.9481 18.9942C14.0991 16.7483 15.648 14.8126 18.2401 14.2071ZM52.244 47.8888C51.9233 49.2316 50.5742 50.0599 49.2313 49.7393C47.8885 49.4186 47.0601 48.0705 47.3807 46.7276L52.244 47.8888Z" fill="#DAA412"/>
<path d="M17.4637 16.9493C17.8467 15.7415 19.0903 14.9963 20.3572 15.2608C21.7087 15.543 22.5758 16.8674 22.2938 18.2188V18.2207C22.2935 18.222 22.2924 18.2239 22.2918 18.2266C22.2905 18.2329 22.2887 18.2433 22.286 18.2569C22.2804 18.284 22.2718 18.3258 22.2606 18.3809C22.2382 18.4911 22.205 18.656 22.1629 18.8701C22.0785 19.299 21.9581 19.9258 21.8153 20.71C21.5292 22.28 21.154 24.4757 20.7996 26.9737C20.0839 32.019 19.4792 38.117 19.7889 42.7881C19.9764 45.616 20.5888 49.2751 21.1737 52.295C21.4633 53.7904 21.7411 55.1033 21.9461 56.041C22.0485 56.5094 22.132 56.8838 22.1903 57.1397C22.2194 57.2675 22.2424 57.366 22.2576 57.4317C22.2652 57.4643 22.2715 57.4888 22.2752 57.5049C22.2771 57.5128 22.2782 57.5187 22.2791 57.5225C22.2795 57.5242 22.2799 57.5256 22.2801 57.5264V57.5274L22.326 57.7793C22.4899 59.0357 21.6787 60.2368 20.4188 60.5332C19.1587 60.8296 17.8975 60.1158 17.4842 58.918L17.4129 58.6719V58.6709L17.4119 58.67C17.4116 58.6686 17.4115 58.6664 17.411 58.6641C17.4098 58.659 17.4083 58.6511 17.4061 58.6416C17.4017 58.6227 17.3948 58.5953 17.3865 58.5596C17.37 58.4881 17.3458 58.3833 17.3153 58.2491C17.2541 57.9805 17.1671 57.5921 17.0613 57.1084C16.8499 56.1412 16.5633 54.7891 16.2645 53.2461C15.6724 50.1887 15.0088 46.274 14.7996 43.1182C14.4539 37.9025 15.1252 31.3769 15.8494 26.2715C16.215 23.6946 16.6014 21.433 16.8963 19.8145C17.0438 19.0047 17.1682 18.3539 17.2567 17.9043C17.3008 17.6799 17.3359 17.5053 17.3602 17.3858C17.3723 17.3261 17.382 17.2797 17.3885 17.2481C17.3918 17.2323 17.3945 17.2195 17.3963 17.211C17.3972 17.2069 17.3978 17.2035 17.3983 17.2012C17.3985 17.2001 17.3991 17.199 17.3992 17.1983V17.1973L17.4637 16.9493ZM28.8319 41.6905C28.8319 38.8503 29.5368 35.4431 30.1834 32.8819C30.514 31.5725 30.844 30.4278 31.0916 29.6094C31.2156 29.1996 31.3198 28.87 31.3934 28.6407C31.4302 28.526 31.4598 28.4363 31.4803 28.3741C31.4905 28.3431 31.4981 28.3189 31.5037 28.3018L31.5125 28.2754L31.5135 28.2735V28.2725L36.2537 29.8643L36.2528 29.8662C36.2519 29.8687 36.2508 29.873 36.2488 29.8789C36.2449 29.8909 36.2387 29.9099 36.2303 29.9356C36.2134 29.987 36.1871 30.0652 36.1541 30.168C36.0881 30.3737 35.993 30.6769 35.8778 31.0576C35.6469 31.8204 35.3394 32.8889 35.032 34.1065C34.4027 36.5995 33.8319 39.5035 33.8319 41.6905C33.8319 43.8773 34.4027 46.7822 35.032 49.2754C35.3394 50.4929 35.647 51.5615 35.8778 52.3242C35.9929 52.7049 36.0881 53.0083 36.1541 53.2139C36.1871 53.3165 36.2134 53.3949 36.2303 53.4463C36.2387 53.4719 36.2449 53.4911 36.2488 53.503C36.2508 53.5088 36.252 53.5133 36.2528 53.5157L36.2537 53.5166L36.3231 53.7637C36.603 54.9994 35.9064 56.2704 34.6795 56.6826C33.3707 57.1223 31.9532 56.4182 31.5135 55.1094V55.1084L31.5125 55.1065L31.5037 55.0801C31.4981 55.0631 31.4905 55.0388 31.4803 55.0078C31.4598 54.9457 31.4301 54.8558 31.3934 54.7412C31.3198 54.512 31.2156 54.1822 31.0916 53.7725C30.8439 52.954 30.514 51.8087 30.1834 50.4991C29.5368 47.9377 28.8319 44.5305 28.8319 41.6905ZM31.5135 28.2715C31.9533 26.963 33.3709 26.2588 34.6795 26.6983C35.9883 27.138 36.6933 28.5555 36.2537 29.8643L31.5135 28.2715Z" fill="#DAA412"/>
<path d="M49.2981 10.9016C49.5718 9.54836 50.8902 8.67303 52.2434 8.9465C53.5966 9.22014 54.472 10.5386 54.1985 11.8918L53.7141 14.2893C53.0446 17.6002 50.6366 20.2865 47.4261 21.3449C45.9971 21.8163 44.9253 22.9577 44.5423 24.3586L44.4749 24.6418L43.9895 27.0393L43.9261 27.2873C43.5507 28.4973 42.3127 29.2507 41.0442 28.9944C39.6909 28.7207 38.8155 27.4014 39.0891 26.0481L39.5735 23.6506C40.2429 20.3396 42.6509 17.6543 45.8606 16.5959C47.3851 16.0933 48.5034 14.8278 48.8128 13.2981L49.2981 10.9016Z" fill="#DAA412"/>
<path d="M57.812 31.8643C60.2717 29.7068 63.7658 29.1642 66.768 30.4629L66.7671 30.4639L67.7485 30.8867C69.0159 31.4346 69.5991 32.9065 69.0512 34.1738C68.5034 35.4409 67.0323 36.0241 65.7651 35.4766L64.7837 35.0518H64.7827C63.5469 34.5173 62.1113 34.7448 61.1098 35.6231C58.4795 37.9301 54.6985 38.3702 51.6137 36.7676L51.3169 36.6065L50.6001 36.1973L50.3843 36.0586C49.3535 35.3221 49.0276 33.9099 49.6694 32.7861C50.3114 31.6622 51.6939 31.2252 52.852 31.7393L53.0805 31.8555L53.7964 32.2647L54.0415 32.3916C55.2853 32.9763 56.7743 32.7742 57.812 31.8643Z" fill="#DAA412"/>
<path d="M26.0351 1.90101C26.761 0.726526 28.302 0.36261 29.4765 1.08851C30.6509 1.81439 31.0148 3.35545 30.289 4.52992C29.8001 5.32091 29.8803 6.32545 30.4814 7.03089L30.6093 7.16859L30.6103 7.16956L30.9384 7.49378L31.1201 7.68031C32.9632 9.63294 33.6301 12.4237 32.8408 15.0065C32.4372 16.3269 31.0401 17.0702 29.7197 16.6666C28.3993 16.2631 27.656 14.8659 28.0595 13.5455C28.3279 12.6673 28.0886 11.7089 27.4218 11.0494V11.0485L27.0917 10.7223L27.0927 10.7213C24.7283 8.38189 24.2847 4.73304 26.0351 1.90101Z" fill="#DAA412"/>
<path d="M38.3478 7.86536C39.0248 7.19589 39.3631 6.86116 39.7542 6.73846C40.0855 6.63471 40.4406 6.63471 40.7715 6.73846C41.163 6.86116 41.5013 7.19589 42.1783 7.86536C42.8549 8.5348 43.1932 8.86953 43.3175 9.25658C43.4225 9.58396 43.4225 9.9354 43.3175 10.2627C43.1932 10.6498 42.8549 10.9845 42.1783 11.654C41.5013 12.3234 41.163 12.6582 40.7715 12.7809C40.4406 12.8847 40.0855 12.8847 39.7542 12.7809C39.3631 12.6582 39.0248 12.3234 38.3478 11.654C37.6712 10.9845 37.3325 10.6498 37.2087 10.2627C37.1036 9.9354 37.1036 9.58396 37.2087 9.25658C37.3325 8.86953 37.6712 8.5348 38.3478 7.86536Z" fill="#DAA412"/>
<path d="M58.2333 18.0932C59.0594 17.2761 59.4725 16.8676 59.9384 16.69C60.4837 16.4822 61.0876 16.4822 61.6329 16.69C62.0988 16.8676 62.5119 17.2761 63.338 18.0932C64.1641 18.9103 64.5771 19.3188 64.7565 19.7797C64.9666 20.319 64.9666 20.9164 64.7565 21.4557C64.5771 21.9166 64.1641 22.3251 63.338 23.1422C62.5119 23.9593 62.0988 24.3678 61.6329 24.5454C61.0876 24.7532 60.4837 24.7532 59.9384 24.5454C59.4725 24.3678 59.0594 23.9593 58.2333 23.1422C57.4072 22.3251 56.9942 21.9166 56.8148 21.4557C56.6047 20.9164 56.6047 20.319 56.8148 19.7797C56.9942 19.3188 57.4072 18.9103 58.2333 18.0932Z" fill="#DAA412"/>
<path d="M16.0171 6.34781C16.7222 5.65034 17.8655 5.65034 18.5706 6.34781C19.2758 7.04528 19.2758 8.17612 18.5706 8.87359C17.8655 9.57106 16.7222 9.57106 16.0171 8.87359C15.312 8.17612 15.312 7.04528 16.0171 6.34781Z" fill="#DAA412"/>
<path d="M56.8519 44.2151C57.5572 43.5175 58.7003 43.5175 59.4056 44.2151C60.1105 44.9123 60.1105 46.0431 59.4056 46.7406C58.7003 47.4382 57.5572 47.4382 56.8519 46.7406C56.147 46.0431 56.147 44.9123 56.8519 44.2151Z" fill="#DAA412"/>
<path d="M51.608 25.6623C52.3133 24.9648 53.4565 24.9648 54.1617 25.6623C54.8666 26.3597 54.8666 27.4904 54.1617 28.188C53.4565 28.8856 52.3133 28.8856 51.608 28.188C50.9028 27.4904 50.9028 26.3597 51.608 25.6623Z" fill="#DAA412"/>
</svg>
