<svg width="67" height="66" viewBox="0 0 67 66" fill="none" xmlns="http://www.w3.org/2000/svg">
<path fill-rule="evenodd" clip-rule="evenodd" d="M49.0303 21.2423C50.2369 20.8365 51.5085 21.4804 52.3471 22.4868H62.3355C62.3717 22.4868 62.4076 22.4939 62.4411 22.5078C62.4745 22.5216 62.505 22.542 62.5306 22.5676C62.5562 22.5932 62.5765 22.6236 62.5904 22.6571C62.6043 22.6906 62.6114 22.7265 62.6114 22.7627V25.3924C62.6114 25.4286 62.6043 25.4645 62.5904 25.498C62.5765 25.5314 62.5562 25.5619 62.5306 25.5875C62.505 25.6131 62.4745 25.6334 62.4411 25.6473C62.4076 25.6612 62.3717 25.6683 62.3355 25.6683H60.5878V34.4284H58.5696V25.6683H53.1263C52.8445 26.3636 52.4078 26.9854 51.8493 27.4863V34.4284H49.8203V28.904C48.4258 29.6223 46.9788 30.2336 45.4917 30.7328C43.8978 31.3264 42.2721 31.8303 40.622 32.2424C39.1345 32.5716 37.5906 32.5473 36.1143 32.1714C34.638 31.7955 33.2705 31.0785 32.1216 30.0781C31.4574 29.5112 30.8269 28.9059 30.2332 28.2655L30.0493 28.0707L28.426 37.6749C29.673 38.5128 30.9745 39.2666 32.3218 39.9312C36.5314 41.8953 39.9943 43.5185 40.7356 50.1305C40.8709 51.2884 40.8113 58.0735 40.7356 61.4066H46.5738C46.4586 61.3137 46.366 61.1957 46.3032 61.0616C46.2404 60.9275 46.2089 60.7809 46.2113 60.6328V59.6102C45.5334 59.6017 44.886 59.3267 44.4091 58.8448C43.9323 58.3629 43.6642 57.7127 43.6628 57.0347V37.5558C43.6657 36.8736 43.9379 36.2202 44.4203 35.7378C44.9027 35.2554 45.5562 34.9831 46.2384 34.9803H46.8281C46.8229 35.0216 46.8229 35.0634 46.8281 35.1047L47.472 37.5612C47.629 38.2452 47.963 38.8759 48.4406 39.3901C48.6631 39.6092 48.9282 39.7804 49.2195 39.893C49.5108 40.0056 49.8221 40.0573 50.1341 40.0448H52.7151V41.4245C52.7151 41.6464 53.7539 41.8195 53.9704 41.8195H57.3954C57.447 41.8202 57.4983 41.8107 57.5462 41.7914C57.5941 41.7722 57.6376 41.7436 57.6744 41.7073C57.7111 41.6711 57.7403 41.6279 57.7602 41.5803C57.7802 41.5327 57.7904 41.4816 57.7904 41.4299V40.0448H60.4958C60.8142 40.0473 61.1299 39.9853 61.4238 39.8626C61.7176 39.7398 61.9836 39.5588 62.2056 39.3306C62.6846 38.8184 63.0074 38.1802 63.1363 37.4909L63.6773 35.0669C63.6826 35.0237 63.6826 34.9801 63.6773 34.937H63.9533C64.6355 34.9398 65.2889 35.2121 65.7713 35.6945C66.2537 36.1769 66.526 36.8303 66.5288 37.5125V57.0184C66.5275 57.6964 66.2594 58.3466 65.7825 58.8286C65.3056 59.3105 64.6583 59.5854 63.9803 59.594V60.6058C63.9827 60.7538 63.9513 60.9005 63.8885 61.0345C63.8256 61.1686 63.7331 61.2866 63.6178 61.3795H66.5288V65.4809H0.0410156V61.3795H10.7706C11.5335 59.3288 12.3181 57.1429 13.0864 54.9461C14.6718 50.4064 16.1922 45.7478 17.3069 42.0468C16.6057 41.2176 16.0214 40.2965 15.57 39.3089C15.0528 38.1867 14.8868 36.9344 15.0938 35.7161L17.4367 23.9098C16.598 23.8665 15.6295 23.6176 14.8395 23.9639C13.3083 24.6348 11.052 27.4917 9.71551 28.8336L7.92454 30.6462C6.54479 32.0422 5.62495 33.5897 3.51474 33.422C0.895921 33.2164 -0.976213 30.3054 0.868867 28.0707L4.9973 23.8936C6.98306 21.8753 8.87143 19.5 11.3225 18.1148C13.292 17.0002 15.4347 16.2373 18.9788 16.3888C20.2774 16.3888 21.6517 16.5349 22.9503 16.6593L24.4653 16.7892C30.4172 17.1734 33.1875 20.3062 35.3518 22.7411C36.3096 23.8232 37.132 24.7431 38.0248 25.1705C38.4468 25.3707 39.1069 25.0894 39.859 24.7755L45.3618 22.7302L49.0303 21.2585V21.2423ZM33.128 61.4012C33.2038 57.6461 33.2849 52.3489 33.2254 51.3263C33.1767 50.5958 32.6843 48.6642 31.916 48.3125C30.8857 47.8662 29.8328 47.4743 28.7615 47.1383C27.2735 46.646 26.0561 46.1482 24.5844 45.7423C23.5022 49.3026 22.0521 53.5988 20.4884 57.6948L19.0113 61.4012H33.128ZM61.7349 61.4012H48.4622C48.5784 61.3091 48.6716 61.1912 48.7345 61.057C48.7974 60.9227 48.8283 60.7757 48.8247 60.6274V59.6048H61.3723V60.6058C61.3688 60.754 61.3996 60.9011 61.4625 61.0353C61.5254 61.1696 61.6187 61.2874 61.7349 61.3795V61.4012ZM48.1484 54.7838C48.0221 54.7838 47.901 54.7336 47.8117 54.6443C47.7224 54.555 47.6722 54.4339 47.6722 54.3076C47.6722 54.1813 47.7224 54.0602 47.8117 53.9709C47.901 53.8816 48.0221 53.8315 48.1484 53.8315H62.119C62.2453 53.8315 62.3664 53.8816 62.4557 53.9709C62.545 54.0602 62.5952 54.1813 62.5952 54.3076C62.5952 54.4339 62.545 54.555 62.4557 54.6443C62.3664 54.7336 62.2453 54.7838 62.119 54.7838H48.1484ZM48.1484 50.1792C48.0221 50.1792 47.901 50.129 47.8117 50.0397C47.7224 49.9504 47.6722 49.8293 47.6722 49.703C47.6722 49.5768 47.7224 49.4557 47.8117 49.3664C47.901 49.2771 48.0221 49.2269 48.1484 49.2269H62.119C62.2453 49.2269 62.3664 49.2771 62.4557 49.3664C62.545 49.4557 62.5952 49.5768 62.5952 49.703C62.5952 49.8293 62.545 49.9504 62.4557 50.0397C62.3664 50.129 62.2453 50.1792 62.119 50.1792H48.1484ZM48.1484 45.5746C48.0221 45.5746 47.901 45.5244 47.8117 45.4352C47.7224 45.3459 47.6722 45.2247 47.6722 45.0985C47.6722 44.9722 47.7224 44.8511 47.8117 44.7618C47.901 44.6725 48.0221 44.6223 48.1484 44.6223H62.119C62.2453 44.6223 62.3664 44.6725 62.4557 44.7618C62.545 44.8511 62.5952 44.9722 62.5952 45.0985C62.5952 45.2247 62.545 45.3459 62.4557 45.4352C62.3664 45.5244 62.2453 45.5746 62.119 45.5746H48.1484ZM62.6114 35.4294H47.9265L48.4135 37.2853C48.5288 37.8061 48.7788 38.2874 49.1385 38.6813C49.2657 38.8159 49.4193 38.9228 49.5897 38.9955C49.76 39.0681 49.9435 39.1048 50.1287 39.1033H60.5012C60.695 39.1042 60.887 39.0659 61.0655 38.9906C61.2441 38.9152 61.4055 38.8045 61.5401 38.665C61.8863 38.2839 62.1187 37.8134 62.211 37.3069L62.6114 35.4294ZM24.2922 0.930164C25.8521 0.396386 27.5489 0.420058 29.0934 0.997147C30.6379 1.57424 31.9344 2.66903 32.7622 4.09496C33.5899 5.5209 33.8975 7.18973 33.6327 8.81708C33.3678 10.4444 32.5469 11.9296 31.3097 13.0195C30.0726 14.1093 28.4957 14.7365 26.848 14.7941C25.2002 14.8516 23.5835 14.336 22.2733 13.3351C20.9631 12.3343 20.0405 10.91 19.6628 9.3051C19.285 7.70021 19.4754 6.01397 20.2016 4.53375C20.6126 3.69335 21.1855 2.94239 21.8875 2.32399C22.5895 1.70559 23.4067 1.23192 24.2922 0.930164Z" fill="#DAA412"/>
</svg>
