<svg width="55" height="64" viewBox="0 0 55 64" fill="none" xmlns="http://www.w3.org/2000/svg">
<path d="M16.8271 30.5005H13.6543V56.6177C13.6543 57.4864 14.3486 58.1919 15.2412 58.1919C16.1134 58.1917 16.8271 57.4636 16.8271 56.6177V30.5005ZM41.3457 56.5923V36.3979H43.8291C43.8308 36.3979 43.8395 36.3975 43.8545 36.397C43.8848 36.396 43.9408 36.3937 44.0186 36.3882C44.1756 36.377 44.4166 36.3534 44.7119 36.3042C45.3144 36.2038 46.0796 36.0075 46.8145 35.6401C47.5395 35.2776 48.1888 34.773 48.6621 34.063C49.1249 33.3687 49.5185 32.3305 49.5186 30.7251V17.103C49.5185 13.5979 48.371 10.9331 46.2861 9.10889C44.5288 7.57126 41.8876 6.44174 38.1729 6.09424V56.605C38.1729 57.4879 38.8744 58.1919 39.7598 58.1919C40.6342 58.1917 41.3457 57.4917 41.3457 56.5923ZM16.8271 0.757324H21.8271V17.103H16.8271V0.757324ZM21.8271 56.6177C21.8271 60.2174 18.8824 63.1917 15.2412 63.1919C11.5886 63.1919 8.65431 60.2493 8.6543 56.6177V30.2026C3.96367 29.076 0.481511 24.8459 0.481445 19.8267V0.757324H5.48145V19.8267C5.48152 22.9511 8.02297 25.5003 11.1455 25.5005H19.3359C22.4491 25.5004 24.9999 22.9597 25 19.8267V0.757324H30V19.8267C29.9999 24.8611 26.5057 29.0776 21.8271 30.2026V56.6177ZM54.5186 30.7251C54.5185 33.2055 53.8917 35.2322 52.8223 36.8364C51.7633 38.4249 50.3689 39.4527 49.0508 40.1118C48.0913 40.5916 47.1473 40.8873 46.3457 41.0728V56.5923C46.3457 60.25 43.3988 63.1917 39.7598 63.1919C36.0999 63.1919 33.1729 60.2363 33.1729 56.605V0.981934H35.6729C41.5107 0.981934 46.2591 2.44115 49.5791 5.34619C52.9426 8.28943 54.5185 12.4355 54.5186 17.103V30.7251Z" fill="#DAA412"/>
</svg>
