<svg width="62" height="60" viewBox="0 0 62 60" fill="none" xmlns="http://www.w3.org/2000/svg">
<path d="M54.2616 44.8327H34.5178C39.5184 39.0189 49.5169 26.4345 49.5169 18.7551C49.5169 8.42082 41.1095 0.0131836 30.775 0.0131836C20.4405 0.0131836 12.0332 8.42082 12.0332 18.7551C12.0332 26.4345 22.0316 39.0189 27.0325 44.8327H7.28819L0.533203 59.9476H61.0166L54.2616 44.8327ZM21.3339 21.8719C20.582 20.5974 20.0486 19.1904 20.1369 17.3415C20.2937 14.0686 22.6894 11.3655 25.623 11.3655C28.6393 11.3655 30.7748 13.7677 30.7748 13.7677C30.7748 13.7677 33.0396 11.3655 35.9262 11.3655C38.8601 11.3655 41.2556 14.0684 41.4124 17.3415C41.5009 19.1904 40.9689 20.5918 40.2153 21.8719C38.7036 24.4401 30.7842 29.5829 30.7842 29.5829C30.7842 29.5829 22.836 24.4183 21.3339 21.8719Z" fill="#DAA412"/>
</svg>
