<svg width="43" height="66" viewBox="0 0 43 66" fill="none" xmlns="http://www.w3.org/2000/svg">
<path d="M21.4148 10.2325L21.8734 10.5304L22.3316 10.2325C22.9408 9.83707 26.0165 7.80068 26.7446 6.56359C27.0461 6.05148 27.4407 5.23928 27.3863 4.10456C27.2943 2.18203 25.8654 0.67627 24.1338 0.67627C23.1859 0.67627 22.3891 1.09948 21.8739 1.46884C21.3635 1.09836 20.5701 0.67627 19.6042 0.67627C17.8721 0.67627 16.4435 2.18232 16.3518 4.10484C16.2973 5.24208 16.6919 6.05288 16.9934 6.56443C17.7176 7.79171 20.8034 9.83538 21.4148 10.2325Z" fill="#DAA412"/>
<path d="M35.7934 14.2876H7.94471L0.741211 29.3144V37.2555V42.6405V47.6615H8.87442V42.6133H15.9921L9.87593 49.4769L8.79617 48.4039L1.89248 55.3112L6.23421 59.6546L13.1379 52.7518L11.8621 51.4628L19.7516 42.6133H20.3731V55.7947H18.6904V65.6107H24.5799V55.7947H23.1777V42.6133H23.9859L31.8754 51.4634L30.5996 52.7459L37.5036 59.653L41.8453 55.3132L34.9414 48.4101L33.8616 49.4766L27.7454 42.6133H34.6763V47.6615H42.8095V42.6405V37.2558V29.3147L35.7934 14.2876ZM31.0304 37.5654H12.5203V33.3586H31.0304V37.5654ZM6.74689 27.1886L10.8788 18.4944H32.8584L36.9904 27.1886H6.74689Z" fill="#DAA412"/>
</svg>
