<svg width="67" height="48" viewBox="0 0 67 48" fill="none" xmlns="http://www.w3.org/2000/svg">
<path d="M56.6113 28.2096C60.8252 28.2096 64.242 24.795 64.242 20.581C64.242 16.3671 60.8251 12.9502 56.6113 12.9502C52.3984 12.9502 48.9814 16.3671 48.9814 20.581C48.9816 24.795 52.3984 28.2096 56.6113 28.2096Z" fill="#DAA412"/>
<path d="M66.3804 35.5626C66.0404 33.5195 64.3516 30.6601 63.0733 29.3827C62.9049 29.2134 62.1524 29.1742 61.9491 29.3002C60.395 30.2561 58.5694 30.8186 56.6101 30.8186C54.653 30.8186 52.8273 30.2561 51.273 29.3002C51.0688 29.1742 50.3173 29.2134 50.1489 29.3827C49.7916 29.74 49.4017 30.2157 49.0215 30.7674C50.05 32.7039 50.8657 34.761 51.1601 36.5324C51.4543 38.3082 51.3588 39.9893 50.883 41.522C52.5729 42.1334 54.5995 42.4017 56.61 42.4017C61.8537 42.4017 67.22 40.5835 66.3804 35.5626Z" fill="#DAA412"/>
<path d="M33.0894 24.9907C39.9187 24.9907 45.4556 19.4538 45.4556 12.6247C45.4556 5.79759 39.9187 0.260742 33.0894 0.260742C26.2613 0.260742 20.7266 5.79759 20.7266 12.6247C20.7266 19.4538 26.2612 24.9907 33.0894 24.9907Z" fill="#DAA412"/>
<path d="M43.5608 26.8844C43.2925 26.6172 42.0739 26.5489 41.7426 26.754C39.2217 28.305 36.2634 29.213 33.0898 29.213C29.9185 29.213 26.9588 28.305 24.4392 26.754C24.1081 26.5488 22.8895 26.6172 22.6212 26.8844C20.5446 28.9588 17.8076 33.5963 17.257 36.9024C15.8994 45.0459 24.5979 47.986 33.0898 47.986C41.5841 47.986 50.2825 45.0459 48.9248 36.9024C48.3742 33.5963 45.6373 28.9588 43.5608 26.8844Z" fill="#DAA412"/>
<path d="M9.95995 28.2096C14.1729 28.2096 17.5896 24.795 17.5896 20.581C17.5896 16.3671 14.1729 12.9502 9.95995 12.9502C5.74588 12.9502 2.3291 16.3671 2.3291 20.581C2.3291 24.795 5.74588 28.2096 9.95995 28.2096Z" fill="#DAA412"/>
<path d="M15.0211 36.5324C15.334 34.6719 16.2168 32.4814 17.3236 30.4558C17.0151 30.0344 16.7068 29.6673 16.4221 29.3827C16.2538 29.2134 15.5022 29.1742 15.2981 29.3002C13.7438 30.2561 11.9181 30.8186 9.96006 30.8186C8.00177 30.8186 6.1749 30.2561 4.62193 29.3002C4.41868 29.1742 3.66507 29.2134 3.4967 29.3827C2.21515 30.66 0.530735 33.5195 0.189576 35.5626C-0.648806 40.5835 4.71642 42.4016 9.96006 42.4016C11.8314 42.4016 13.7211 42.1712 15.334 41.6446C14.8257 40.0807 14.7181 38.3603 15.0211 36.5324Z" fill="#DAA412"/>
</svg>
