<svg width="55" height="63" viewBox="0 0 55 63" fill="none" xmlns="http://www.w3.org/2000/svg">
<path d="M16.6074 0.129395C25.7352 0.129395 33.1355 7.52888 33.1357 16.6567C33.1357 16.9208 33.1285 17.1838 33.1162 17.4448C33.3064 17.6837 33.548 17.987 33.8408 18.355C34.6692 19.3961 35.9093 20.9552 37.5605 23.0317C40.8632 27.185 45.8123 33.4095 52.4072 41.7056C53.6605 43.2552 53.5448 45.5049 52.1318 46.9185L51.2939 47.7544C51.4617 47.8446 51.6228 47.9536 51.7715 48.0854C54.3246 50.3503 55.0759 53.6495 54.04 56.562C53.0375 59.3805 50.4868 61.5521 46.9805 62.2603L46.6377 62.3247C44.6065 62.6736 42.6337 62.278 40.876 61.6646C39.1241 61.0532 37.3913 60.1528 35.8203 59.311C34.1864 58.4355 32.7361 57.6297 31.3193 57.019C29.9056 56.4097 28.7633 56.1051 27.8164 56.105C24.8664 56.105 22.2879 57.3931 19.9932 60.3843L16.0264 57.3403C19.1088 53.3225 23.0686 51.105 27.8164 51.105C29.756 51.1051 31.6301 51.7079 33.2988 52.4272C34.9649 53.1454 36.6642 54.0907 38.1816 54.9038C39.7619 55.7505 41.183 56.4761 42.5234 56.9438C43.8581 57.4096 44.9162 57.5462 45.791 57.396C47.9203 57.0303 48.9736 55.8858 49.3291 54.8862C49.6836 53.8895 49.4777 52.7356 48.4531 51.8267C48.226 51.6252 48.0467 51.39 47.9111 51.1372L46.4033 52.647C44.9769 54.0734 42.6982 54.1774 41.1475 52.8872C41.1371 52.8786 41.1265 52.8697 41.1162 52.8608L18.1523 33.1128C17.6438 33.1599 17.1282 33.1851 16.6074 33.1851C7.47965 33.1848 0.0800781 25.7846 0.0800781 16.6567C0.0803317 7.52904 7.47981 0.129648 16.6074 0.129395ZM19.9932 60.3843C19.1528 61.4794 17.5836 61.6862 16.4883 60.8462C15.3928 60.0058 15.186 58.4358 16.0264 57.3403L19.9932 60.3843ZM31.6143 23.5884C30.028 27.017 27.3021 29.8089 23.9219 31.48L43.5869 48.3911L47.9023 44.0757C41.6015 36.1497 36.8497 30.1722 33.6465 26.144C32.8804 25.1807 32.2031 24.3287 31.6143 23.5884ZM29.5264 29.5767C30.4417 28.6613 31.8901 28.6038 32.8721 29.4048L33.0615 29.5767L37.0293 33.5444L37.2012 33.7339C38.002 34.7158 37.9446 36.1643 37.0293 37.0796C36.114 37.9949 34.6655 38.0523 33.6836 37.2515L33.4941 37.0796L29.5264 33.1118L29.3545 32.9224C28.5535 31.9404 28.611 30.492 29.5264 29.5767ZM5.08008 16.6567C5.08008 23.0231 10.2411 28.1848 16.6074 28.1851C22.974 28.1851 28.1357 23.0233 28.1357 16.6567C28.1355 10.2903 22.9738 5.12939 16.6074 5.12939C10.2412 5.12965 5.08033 10.2905 5.08008 16.6567Z" fill="#DAA412"/>
</svg>
