<svg width="22" height="22" viewBox="0 0 22 22" fill="none" xmlns="http://www.w3.org/2000/svg">
<path d="M10.5956 21.5998H10.5493C4.77019 21.5998 0.0683594 16.8966 0.0683594 11.1158V11.0695C0.0683594 5.28867 4.77019 0.585449 10.5493 0.585449H10.5956C16.3747 0.585449 21.0765 5.28867 21.0765 11.0695V11.1158C21.0765 16.8966 16.3747 21.5998 10.5956 21.5998ZM10.5493 1.29676C5.16201 1.29676 0.779465 5.6806 0.779465 11.0695V11.1158C0.779465 16.5047 5.16201 20.8885 10.5493 20.8885H10.5956C15.9829 20.8885 20.3654 16.5047 20.3654 11.1158V11.0695C20.3654 5.6806 15.9829 1.29676 10.5956 1.29676H10.5493Z" fill="white"/>
<path d="M4.53892 5.53766L9.21942 11.7972L4.50977 16.8867H5.57003L9.69373 12.431L13.0253 16.8867H16.6327L11.6891 10.275L16.0731 5.53766H15.0128L11.2155 9.64123L8.14707 5.53766H4.53963H4.53892ZM6.09766 6.31868H7.75454L15.0725 16.1057H13.4157L6.09766 6.31868Z" fill="white"/>
</svg>
