<svg width="55" height="55" viewBox="0 0 55 55" fill="none" xmlns="http://www.w3.org/2000/svg">
<path d="M54.2483 27.6652C54.2483 12.8586 42.2487 0.855469 27.4464 0.855469C12.6441 0.855469 0.644531 12.8586 0.644531 27.6652C0.644531 42.4719 12.6441 54.475 27.4464 54.475C42.2487 54.475 54.2483 42.4719 54.2483 27.6652Z" fill="#FF0209"/>
<path d="M38.8246 39.5395C38.026 39.6262 37.2086 39.6412 36.4252 39.6393C30.3137 39.6337 24.2022 39.628 18.0927 39.6243C16.1698 39.6243 14.0755 39.5621 12.5896 38.3395C10.9153 36.9586 10.5669 34.5641 10.4313 32.3976C10.2429 29.4286 10.2278 26.4502 10.3823 23.4793C10.467 21.8478 10.6158 20.1768 11.3183 18.6998C11.823 17.6392 12.6649 16.6859 13.7422 16.1848C14.9946 15.6027 16.3054 15.7063 17.6539 15.7044C20.8819 15.7006 24.11 15.6988 27.338 15.695C30.6942 15.6912 34.0522 15.6893 37.4083 15.6856C38.994 15.6856 40.6966 15.7176 41.9905 16.6351C43.661 17.8181 44.1149 20.0694 44.3239 22.1059C44.71 25.8567 44.7157 29.6471 44.339 33.398C44.1827 34.9447 43.9227 36.5799 42.9039 37.7536C41.8944 38.9178 40.3971 39.3662 38.8264 39.5376L38.8246 39.5395Z" fill="white"/>
<path d="M32.9112 27.6652L23.8034 22.4053V32.925L32.9112 27.6652Z" fill="#FF0209"/>
</svg>
