<svg width="22" height="22" viewBox="0 0 22 22" fill="none" xmlns="http://www.w3.org/2000/svg">
<path d="M10.6232 21.5998C4.83105 21.5998 0.119141 16.8865 0.119141 11.0926C0.119141 5.29873 4.83105 0.585449 10.6232 0.585449C16.4154 0.585449 21.1273 5.29873 21.1273 11.0926C21.1273 16.8865 16.4154 21.5998 10.6232 21.5998ZM10.6232 1.29872C5.22466 1.29872 0.832201 5.69246 0.832201 11.0926C0.832201 16.4928 5.22466 20.8865 10.6232 20.8865C16.0218 20.8865 20.4143 16.4928 20.4143 11.0926C20.4143 5.69246 16.0218 1.29872 10.6232 1.29872Z" fill="#FF0209"/>
<path d="M17.0111 8.98913C16.9312 8.21809 16.7594 7.36573 16.1269 6.91779C15.637 6.57043 14.9931 6.5576 14.392 6.55831C13.1213 6.55903 11.8499 6.56045 10.5793 6.56116C9.35708 6.56259 8.13489 6.5633 6.91271 6.56473C6.40215 6.56544 5.90586 6.52549 5.43168 6.74661C5.02452 6.93634 4.70578 7.29726 4.51397 7.69883C4.248 8.25732 4.19238 8.88999 4.16029 9.50768C4.10111 10.6325 4.10753 11.7602 4.17812 12.8843C4.23017 13.7046 4.36209 14.6111 4.996 15.134C5.55789 15.5969 6.35081 15.6197 7.07956 15.6204C9.39273 15.6225 11.7066 15.6247 14.0205 15.6261C14.3171 15.6268 14.6266 15.6211 14.9289 15.5883C15.5236 15.5241 16.0905 15.3536 16.4727 14.9128C16.8585 14.4685 16.9576 13.8501 17.0161 13.2645C17.1587 11.8436 17.1572 10.4093 17.0111 8.98913ZM9.24156 13.084V9.1004L12.6899 11.0919L9.24156 13.084Z" fill="#FF0209"/>
</svg>
