<svg width="69" height="69" viewBox="0 0 69 69" fill="none" xmlns="http://www.w3.org/2000/svg">
<path d="M68.9999 34.4217C68.9999 15.4464 53.622 0.0639648 34.6523 0.0639648C15.6827 0.0639648 0.304687 15.4464 0.304688 34.4217C0.304688 53.397 15.6827 68.7794 34.6523 68.7794C53.622 68.7794 68.9999 53.397 68.9999 34.4217Z" fill="#FF0209"/>
<path d="M49.233 49.6386C48.2096 49.7497 47.1621 49.769 46.1581 49.7666C38.326 49.7593 30.4939 49.7521 22.6643 49.7473C20.2 49.7473 17.5161 49.6676 15.6118 48.1007C13.4661 46.331 13.0196 43.2625 12.8459 40.486C12.6045 36.6811 12.5852 32.8641 12.7831 29.0568C12.8917 26.966 13.0824 24.8246 13.9826 22.9317C14.6295 21.5725 15.7084 20.3509 17.0889 19.7087C18.6939 18.9627 20.3738 19.0954 22.1019 19.093C26.2388 19.0882 30.3757 19.0858 34.5126 19.081C38.8135 19.0761 43.117 19.0737 47.4179 19.0689C49.4502 19.0689 51.6321 19.1099 53.2902 20.2857C55.431 21.8019 56.0127 24.6869 56.2806 27.2968C56.7754 32.1036 56.7826 36.9612 56.2999 41.768C56.0996 43.7502 55.7665 45.8458 54.4608 47.3499C53.1671 48.8419 51.2483 49.4165 49.2354 49.6362L49.233 49.6386Z" fill="white"/>
<path d="M41.6563 34.4214L29.9843 27.6807V41.1621L41.6563 34.4214Z" fill="#FF0209"/>
</svg>
